<svg xmlns="http://www.w3.org/2000/svg" viewBox="0 0 183.04 233"><defs><style>.cls-1,.cls-3{fill:none;}.cls-2{fill:#fff;}.cls-2,.cls-3{stroke:#1c2e3a;stroke-linecap:round;stroke-linejoin:round;stroke-width:5px;}</style></defs><g id="Capa_2" data-name="Capa 2"><g id="Capa_1-2" data-name="Capa 1"><rect class="cls-1" width="183.04" height="233"/><path class="cls-2" d="M137.53,139.56l38.25,39.2a15.11,15.11,0,0,1,0,21,14.26,14.26,0,0,1-20.52,0l-37.75-38.7"/><path class="cls-3" d="M148.12,101.37c0,40-31.68,72.51-70.76,72.51S6.6,141.42,6.6,101.37,38.28,28.85,77.36,28.85,148.12,61.32,148.12,101.37Z"/><path class="cls-3" d="M22.73,101.46A57.11,57.11,0,0,1,27,79.63,56.23,56.23,0,0,1,38.76,61.81a54.75,54.75,0,0,1,17.39-12"/><line class="cls-2" x1="42.11" y1="121.76" x2="42.11" y2="136.35"/><line class="cls-2" x1="59.73" y1="108.9" x2="59.73" y2="136.35"/><line class="cls-2" x1="77.36" y1="87.11" x2="77.36" y2="136.35"/><line class="cls-2" x1="94.99" y1="94.69" x2="94.99" y2="136.35"/><line class="cls-2" x1="112.62" y1="70.3" x2="112.62" y2="136.35"/></g></g></svg>