<svg xmlns="http://www.w3.org/2000/svg" viewBox="0 0 238.44 233"><defs><style>.cls-1,.cls-3{fill:none;}.cls-2{fill:#fff;}.cls-2,.cls-3{stroke:#1c2e3a;stroke-linecap:round;stroke-linejoin:round;stroke-width:5px;}</style></defs><g id="Capa_2" data-name="Capa 2"><g id="Capa_1-2" data-name="Capa 1"><rect class="cls-1" width="238.44" height="233"/><path class="cls-2" d="M163.43,139.56l38.25,39.2a15.11,15.11,0,0,1,0,21,14.26,14.26,0,0,1-20.52,0l-37.75-38.7"/><path class="cls-3" d="M174,101.37c0,40-31.68,72.51-70.76,72.51S32.5,141.42,32.5,101.37s31.68-72.52,70.76-72.52S174,61.32,174,101.37Z"/><path class="cls-3" d="M48.63,101.46a57.11,57.11,0,0,1,4.3-21.83A56.23,56.23,0,0,1,64.66,61.81a54.75,54.75,0,0,1,17.39-12"/><line class="cls-2" x1="68.01" y1="121.76" x2="68.01" y2="136.35"/><line class="cls-2" x1="85.64" y1="108.9" x2="85.64" y2="136.35"/><line class="cls-2" x1="103.26" y1="87.11" x2="103.26" y2="136.35"/><line class="cls-2" x1="120.89" y1="94.69" x2="120.89" y2="136.35"/><line class="cls-2" x1="138.52" y1="70.3" x2="138.52" y2="136.35"/></g></g></svg>