<svg xmlns="http://www.w3.org/2000/svg" viewBox="0 0 174.61 174.57"><defs><style>.cls-1{fill:none;stroke:#1c2e3a;stroke-linecap:round;stroke-linejoin:round;stroke-width:5.42px;}</style></defs><g id="Capa_2" data-name="Capa 2"><g id="icons"><line class="cls-1" x1="2.71" y1="32.3" x2="48.72" y2="32.3"/><line class="cls-1" x1="48.72" y1="17.51" x2="8.06" y2="17.51"/><line class="cls-1" x1="8.06" y1="47.1" x2="48.72" y2="47.1"/><path class="cls-1" d="M113.46,14.71H90.54c-11.66,0-12.66-12-30.41-12H15.81"/><path class="cls-1" d="M98.66,49.9H90.54c-11.66,0-12.66,12-30.41,12H29.89"/><line class="cls-1" x1="32.3" y1="171.85" x2="32.3" y2="125.85"/><line class="cls-1" x1="17.51" y1="125.85" x2="17.51" y2="166.74"/><line class="cls-1" x1="47.1" y1="166.74" x2="47.1" y2="125.85"/><path class="cls-1" d="M14.71,61.11V84c0,11.66-12,12.66-12,30.42v44.32"/><path class="cls-1" d="M49.9,75.9V84c0,11.66,12,12.66,12,30.42v30.24"/><line class="cls-1" x1="171.9" y1="142.26" x2="125.9" y2="142.26"/><line class="cls-1" x1="125.9" y1="157.06" x2="166.44" y2="157.06"/><line class="cls-1" x1="166.44" y1="127.47" x2="125.9" y2="127.47"/><path class="cls-1" d="M61.16,159.86H84.07c11.66,0,12.66,12,30.42,12h44.32"/><path class="cls-1" d="M76,124.67h8.12c11.66,0,12.66-12,30.42-12h30.24"/><line class="cls-1" x1="142.26" y1="2.71" x2="142.26" y2="48.71"/><line class="cls-1" x1="157.06" y1="48.71" x2="157.06" y2="7.74"/><line class="cls-1" x1="127.47" y1="7.74" x2="127.47" y2="48.71"/><path class="cls-1" d="M159.86,113.46V90.54c0-11.66,12-12.66,12-30.41V15.81"/><path class="cls-1" d="M124.67,98.66V90.54c0-11.66-12-12.66-12-30.41V29.89"/></g></g></svg>