<svg xmlns="http://www.w3.org/2000/svg" viewBox="0 0 212.21 191.23"><defs><style>.cls-1,.cls-2{fill:none;}.cls-1{stroke:#1c2e3a;stroke-width:5.42px;}.cls-1,.cls-2,.cls-3,.cls-4{stroke-linecap:round;stroke-linejoin:round;}.cls-2,.cls-3,.cls-4{stroke:#fff;}.cls-2,.cls-4{stroke-width:23.26px;}.cls-3,.cls-4{fill:#fff;}.cls-3{stroke-width:17.45px;}</style></defs><g id="Capa_2" data-name="Capa 2"><g id="icons"><circle class="cls-1" cx="105.48" cy="86.82" r="77.21" transform="translate(15.6 189.7) rotate(-88.32)"/><path class="cls-2" d="M121.37,116.14a15,15,0,1,1-15-15A15,15,0,0,1,121.37,116.14Z"/><path class="cls-3" d="M137.86,176v-19a12.17,12.17,0,0,0-12.18-12.17H87A12.17,12.17,0,0,0,74.85,156.9v19"/><path class="cls-4" d="M58.15,26.65a15,15,0,1,1-15-15A15,15,0,0,1,58.15,26.65Z"/><path class="cls-4" d="M74.64,90.11V67.42A12.18,12.18,0,0,0,62.46,55.24H23.81A12.18,12.18,0,0,0,11.63,67.42V90.11Z"/><path class="cls-1" d="M58.15,26.65a15,15,0,1,1-15-15A15,15,0,0,1,58.15,26.65Z"/><path class="cls-1" d="M74.64,90.11V67.42A12.18,12.18,0,0,0,62.46,55.24H23.81A12.18,12.18,0,0,0,11.63,67.42V90.11"/><line class="cls-1" x1="28.44" y1="74.72" x2="28.44" y2="90.11"/><line class="cls-1" x1="57.83" y1="90.11" x2="57.83" y2="74.72"/><path class="cls-4" d="M184.09,26.65a15,15,0,1,1-15-15A15,15,0,0,1,184.09,26.65Z"/><path class="cls-4" d="M200.58,90.11V67.42A12.18,12.18,0,0,0,188.4,55.24H149.75a12.18,12.18,0,0,0-12.18,12.18V90.11Z"/><path class="cls-1" d="M184.09,26.65a15,15,0,1,1-15-15A15,15,0,0,1,184.09,26.65Z"/><path class="cls-1" d="M200.58,90.11V67.42A12.18,12.18,0,0,0,188.4,55.24H149.75a12.18,12.18,0,0,0-12.18,12.18V90.11"/><line class="cls-1" x1="154.38" y1="74.72" x2="154.38" y2="90.11"/><line class="cls-1" x1="183.77" y1="90.11" x2="183.77" y2="74.72"/><path class="cls-4" d="M121.37,116.14a15,15,0,1,1-15-15A15,15,0,0,1,121.37,116.14Z"/><path class="cls-4" d="M137.86,179.6V156.9a12.17,12.17,0,0,0-12.18-12.17H87A12.17,12.17,0,0,0,74.85,156.9v22.7Z"/><path class="cls-1" d="M121.37,116.14a15,15,0,1,1-15-15A15,15,0,0,1,121.37,116.14Z"/><path class="cls-1" d="M137.86,179.6V156.9a12.17,12.17,0,0,0-12.18-12.17H87A12.17,12.17,0,0,0,74.85,156.9v22.7"/><line class="cls-1" x1="91.66" y1="164.21" x2="91.66" y2="179.6"/><line class="cls-1" x1="121.05" y1="179.6" x2="121.05" y2="164.21"/><line class="cls-1" x1="28.44" y1="79.08" x2="28.44" y2="90.11"/><line class="cls-1" x1="57.83" y1="90.11" x2="57.83" y2="79.08"/><line class="cls-1" x1="154.38" y1="79.08" x2="154.38" y2="90.11"/><line class="cls-1" x1="183.77" y1="90.11" x2="183.77" y2="79.08"/><line class="cls-1" x1="91.66" y1="168.57" x2="91.66" y2="179.6"/><line class="cls-1" x1="121.05" y1="179.6" x2="121.05" y2="168.57"/></g></g></svg>