<svg xmlns="http://www.w3.org/2000/svg" viewBox="0 0 178.05 180.72"><defs><style>.cls-1,.cls-2,.cls-3{fill:none;stroke-linecap:round;stroke-linejoin:round;}.cls-1{stroke:#1c2e3a;}.cls-1,.cls-3{stroke-width:5.42px;}.cls-2,.cls-3{stroke:#fff;}.cls-2{stroke-width:16.27px;}</style></defs><g id="Capa_2" data-name="Capa 2"><g id="icons"><path class="cls-1" d="M40.6,31.55A14.42,14.42,0,1,0,26.18,17.13,14.44,14.44,0,0,0,40.6,31.55Z"/><line class="cls-1" x1="22.32" y1="114.72" x2="18.67" y2="65.46"/><path class="cls-1" d="M54.46,175.46l4.43-60.74.12-.11c6.39.29,15.62-2.48,16.23-12l3.25-43a16,16,0,0,0-15.3-16.1H18a16,16,0,0,0-15.3,16.1l3.25,43c.61,9.57,9.84,12.34,16.23,12l.13.11,4.49,60.74A2.75,2.75,0,0,0,29.55,178H51.72A2.75,2.75,0,0,0,54.46,175.46Z"/><path class="cls-1" d="M137.45,31.55A14.42,14.42,0,1,0,123,17.13,14.44,14.44,0,0,0,137.45,31.55Z"/><path class="cls-1" d="M151.31,175.46l4.43-60.74.12-.11c6.4.29,15.62-2.48,16.23-12l3.25-43A16,16,0,0,0,160,43.47H114.86a16,16,0,0,0-15.3,16.1l3.26,43c.6,9.57,9.83,12.34,16.23,12l.12.11,4.49,60.74A2.75,2.75,0,0,0,126.4,178h22.17A2.75,2.75,0,0,0,151.31,175.46Z"/><line class="cls-1" x1="155.74" y1="114.72" x2="159.38" y2="65.46"/><line class="cls-2" x1="40.95" y1="71.48" x2="86.46" y2="71.48"/><polyline class="cls-1" points="55.86 92.16 35.26 76.91 55.86 58.94 55.86 71.48 100.47 71.48"/><line class="cls-3" x1="88.27" y1="76.91" x2="107.27" y2="76.91"/><line class="cls-2" x1="137.1" y1="85.43" x2="90.12" y2="85.43"/><polyline class="cls-1" points="122.19 64.75 142.79 80 122.19 97.97 122.19 85.43 76.53 85.43"/><line class="cls-3" x1="88.79" y1="80" x2="72.5" y2="80"/></g></g></svg>