<svg xmlns="http://www.w3.org/2000/svg" viewBox="0 0 202.48 151.5"><defs><style>.cls-1{fill:none;stroke:#1c2e3a;stroke-linecap:round;stroke-linejoin:round;stroke-width:5.42px;}</style></defs><g id="Capa_2" data-name="Capa 2"><g id="icons"><line class="cls-1" x1="2.71" y1="82.13" x2="30.64" y2="82.13"/><line class="cls-1" x1="102.05" y1="2.71" x2="199.77" y2="2.71"/><path class="cls-1" d="M96.26,119.55l-6.74,6.74c-4.77,4.76-5.68,12.53-1.41,17.74a12.87,12.87,0,0,0,19.09,1l54-54a30.32,30.32,0,0,1,21.45-8.88h17.11"/><path class="cls-1" d="M70.3,72.68,52.83,90.15a13.09,13.09,0,0,1-18.13.54,12.87,12.87,0,0,1-.31-18.51L68.47,38.1"/><path class="cls-1" d="M34.36,72.21,68.47,38.1a20.13,20.13,0,0,1,14.32-5.9l20.88.13L117,45.61a25.75,25.75,0,0,0,29.21,5.08A6.5,6.5,0,0,0,148,40.22L116.4,8.66a20.26,20.26,0,0,0-14.35-5.95H2.71"/><path class="cls-1" d="M89.51,89.89,70.8,108.59A12.87,12.87,0,0,1,52.6,90.38l18.7-18.7"/><path class="cls-1" d="M107.72,108.09,89,126.8a12.87,12.87,0,0,1-18.2-18.21L85.2,94.19"/><path class="cls-1" d="M138.45,126.29c4.76,4.76,5.68,12.53,1.41,17.74a12.88,12.88,0,0,1-19.1,1"/><path class="cls-1" d="M157.16,108.59a12.88,12.88,0,0,0,18.21-18.21"/><path class="cls-1" d="M139,126.8a12.87,12.87,0,0,0,18.2-18.21"/></g></g></svg>