<svg xmlns="http://www.w3.org/2000/svg" viewBox="0 0 206.54 190.37"><defs><style>.cls-1,.cls-3{fill:none;}.cls-1{stroke:#1c2e3a;stroke-width:5.42px;}.cls-1,.cls-2{stroke-linecap:round;}.cls-1,.cls-2,.cls-3{stroke-linejoin:round;}.cls-2{fill:#fff;}.cls-2,.cls-3{stroke:#fff;stroke-width:16.27px;}</style></defs><g id="Capa_2" data-name="Capa 2"><g id="icons"><path class="cls-1" d="M79.46,61.12c.05,0-62.35-.11-62.35-.11A15.05,15.05,0,0,0,2.71,76.17l3.06,40.47c.57,9,9.26,11.62,15.28,11.34l.11.07c.17,2.28,4.41,59.61,4.41,59.61H51.25L59.51,75.58l20.87-.06"/><line class="cls-1" x1="21.17" y1="128.08" x2="17.74" y2="81.72"/><path class="cls-1" d="M127.08,61.12S189.43,61,189.43,61a15.05,15.05,0,0,1,14.4,15.16l-3.06,40.47c-.57,9-9.26,11.62-15.28,11.34l-.11.07c-.17,2.28-4.41,59.61-4.41,59.61H155.3L147,75.58l-20.88-.06"/><line class="cls-1" x1="185.38" y1="128.08" x2="188.81" y2="81.72"/><path class="cls-2" d="M103.24,35.29A13.58,13.58,0,1,0,89.67,21.71,13.59,13.59,0,0,0,103.24,35.29Z"/><path class="cls-1" d="M103.24,35.29A13.58,13.58,0,1,0,89.67,21.71,13.59,13.59,0,0,0,103.24,35.29Z"/><path class="cls-1" d="M174.12,46.61l.11-.11H32.31l.11.11"/><path class="cls-2" d="M38.38,49.79A13.58,13.58,0,1,0,24.81,36.22,13.59,13.59,0,0,0,38.38,49.79Z"/><path class="cls-1" d="M38.38,49.79A13.58,13.58,0,1,0,24.81,36.22,13.59,13.59,0,0,0,38.38,49.79Z"/><path class="cls-2" d="M168.16,49.79a13.58,13.58,0,1,1,13.58-13.57A13.59,13.59,0,0,1,168.16,49.79Z"/><path class="cls-1" d="M168.16,49.79a13.58,13.58,0,1,1,13.58-13.57A13.59,13.59,0,0,1,168.16,49.79Z"/><line class="cls-3" x1="123.51" y1="69.54" x2="122.18" y2="87.65"/><line class="cls-3" x1="82.79" y1="69.54" x2="84.13" y2="87.65"/><polyline class="cls-1" points="44.86 61.01 82.17 61.08 90.44 173.15 90.44 173.15 116.11 173.15 124.37 61.08 161.68 61.01"/></g></g></svg>