<svg xmlns="http://www.w3.org/2000/svg" viewBox="0 0 238.44 233"><defs><style>.cls-1,.cls-2,.cls-4{fill:none;}.cls-2,.cls-5{stroke:#1c2e3a;stroke-width:5px;}.cls-2,.cls-3,.cls-4,.cls-5{stroke-linecap:round;stroke-linejoin:round;}.cls-3,.cls-5{fill:#fff;}.cls-3,.cls-4{stroke:#fff;stroke-width:21.7px;}</style></defs><g id="Capa_2" data-name="Capa 2"><g id="Capa_1-2" data-name="Capa 1"><rect class="cls-1" width="238.44" height="233"/><rect class="cls-2" x="29.51" y="28.85" width="135.38" height="175.29" rx="4.44"/><polyline class="cls-2" points="54.08 82.6 54.08 52.85 83.82 52.85"/><polyline class="cls-2" points="69.78 69.34 79.88 85.69 101.9 55.95"/><polyline class="cls-2" points="54.08 134.46 54.08 104.72 83.82 104.72"/><polyline class="cls-2" points="69.78 121.21 79.88 137.55 101.9 107.81"/><polyline class="cls-2" points="54.08 186.33 54.08 156.59 83.82 156.59"/><circle class="cls-3" cx="164.9" cy="126.69" r="44.03" transform="translate(18.25 274.13) rotate(-82.69)"/><polyline class="cls-2" points="181.98 116.91 164.9 133.99 141.7 110.78"/><line class="cls-4" x1="175.02" y1="69.03" x2="154.77" y2="69.03"/><line class="cls-5" x1="175.02" y1="69.03" x2="154.77" y2="69.03"/><circle class="cls-2" cx="164.9" cy="126.69" r="44.03" transform="translate(18.25 274.13) rotate(-82.69)"/></g></g></svg>