<svg xmlns="http://www.w3.org/2000/svg" viewBox="0 0 197.3 233"><defs><style>.cls-1,.cls-2,.cls-4{fill:none;}.cls-2,.cls-5{stroke:#1c2e3a;stroke-width:5px;}.cls-2,.cls-3,.cls-4,.cls-5{stroke-linecap:round;stroke-linejoin:round;}.cls-3,.cls-5{fill:#fff;}.cls-3,.cls-4{stroke:#fff;stroke-width:21.7px;}</style></defs><g id="Capa_2" data-name="Capa 2"><g id="Capa_1-2" data-name="Capa 1"><rect class="cls-1" width="197.3" height="233"/><rect class="cls-2" x="5.46" y="28.85" width="135.38" height="175.29" rx="4.44"/><polyline class="cls-2" points="30.03 82.6 30.03 52.85 59.77 52.85"/><polyline class="cls-2" points="45.73 69.34 55.83 85.69 77.85 55.95"/><polyline class="cls-2" points="30.03 134.46 30.03 104.72 59.77 104.72"/><polyline class="cls-2" points="45.73 121.21 55.83 137.55 77.85 107.81"/><polyline class="cls-2" points="30.03 186.33 30.03 156.59 59.77 156.59"/><circle class="cls-3" cx="140.85" cy="126.69" r="44.03" transform="translate(-2.73 250.28) rotate(-82.69)"/><polyline class="cls-2" points="157.93 116.91 140.85 133.99 117.65 110.78"/><line class="cls-4" x1="150.98" y1="69.03" x2="130.73" y2="69.03"/><line class="cls-5" x1="150.98" y1="69.03" x2="130.73" y2="69.03"/><circle class="cls-2" cx="140.85" cy="126.69" r="44.03" transform="translate(-2.73 250.28) rotate(-82.69)"/></g></g></svg>