<svg xmlns="http://www.w3.org/2000/svg" viewBox="0 0 192.98 180.72"><defs><style>.cls-1,.cls-3{fill:none;}.cls-1,.cls-4{stroke:#1c2e3a;stroke-width:5.42px;}.cls-1,.cls-2,.cls-3,.cls-4{stroke-linecap:round;stroke-linejoin:round;}.cls-2,.cls-4{fill:#fff;}.cls-2,.cls-3{stroke:#fff;stroke-width:21.7px;}</style></defs><g id="Capa_2" data-name="Capa 2"><g id="icons"><rect class="cls-1" x="2.71" y="2.71" width="135.38" height="175.29" rx="4.44"/><polyline class="cls-1" points="27.28 56.45 27.28 26.71 57.02 26.71"/><polyline class="cls-1" points="42.98 43.2 53.08 59.55 75.1 29.8"/><polyline class="cls-1" points="27.28 108.32 27.28 78.58 57.02 78.58"/><polyline class="cls-1" points="42.98 95.07 53.08 111.41 75.1 81.67"/><polyline class="cls-1" points="27.28 160.19 27.28 130.45 57.02 130.45"/><circle class="cls-2" cx="138.1" cy="100.55" r="44.03" transform="translate(20.79 224.73) rotate(-82.69)"/><polyline class="cls-1" points="155.18 90.77 138.1 107.84 114.9 84.64"/><line class="cls-3" x1="148.23" y1="42.89" x2="127.97" y2="42.89"/><line class="cls-4" x1="148.23" y1="42.89" x2="127.97" y2="42.89"/><circle class="cls-1" cx="138.1" cy="100.55" r="44.03" transform="translate(20.79 224.73) rotate(-82.69)"/></g></g></svg>