<svg xmlns="http://www.w3.org/2000/svg" viewBox="0 0 183.95 233"><defs><style>.cls-1,.cls-2{fill:none;}.cls-2{stroke:#1c2e3a;stroke-linecap:round;stroke-linejoin:round;stroke-width:5px;}</style></defs><g id="Capa_2" data-name="Capa 2"><g id="Capa_1-2" data-name="Capa 1"><rect class="cls-1" width="183.95" height="233"/><path class="cls-2" d="M152.08,165.85V42.12a13.27,13.27,0,0,0-13.27-13.27H16.59"/><path class="cls-2" d="M3.32,58.71V42.12a13.27,13.27,0,0,1,26.54,0V174.29"/><line class="cls-2" x1="3.32" y1="58.71" x2="21.43" y2="58.71"/><path class="cls-2" d="M56.39,174.29v16.59a13.27,13.27,0,1,1-26.53,0V174.29"/><path class="cls-2" d="M178.61,174.29v16.59a13.27,13.27,0,0,1-13.27,13.27H43.13"/><line class="cls-2" x1="56.39" y1="174.29" x2="178.61" y2="174.29"/><path class="cls-2" d="M98.93,60.29a2,2,0,0,0-1.84-1.51H84.81A2,2,0,0,0,83,60.3L81,71.81a3.35,3.35,0,0,1-1.66,2.11l-6.58,3.8a3.38,3.38,0,0,1-2.67.39L59.18,74.05a2,2,0,0,0-2.23.84l-6.11,10.6a2,2,0,0,0,.39,2.35l9,7.44a3.31,3.31,0,0,1,1,2.5v7.61a3.38,3.38,0,0,1-1,2.49l-9,7.45a2,2,0,0,0-.39,2.34L57,128.29a2,2,0,0,0,2.23.83l10.94-4.07a3.4,3.4,0,0,1,2.66.38l6.59,3.79a3.31,3.31,0,0,1,1.66,2.12l2,11.51a2,2,0,0,0,1.83,1.51H97.13A2,2,0,0,0,99,142.84l1.94-11.51a3.31,3.31,0,0,1,1.65-2.11l6.59-3.8a3.32,3.32,0,0,1,2.66-.38l11,4a2,2,0,0,0,2.23-.84l6.11-10.6a2,2,0,0,0-.39-2.34l-9-7.45a3.31,3.31,0,0,1-1-2.5v-7.6a3.39,3.39,0,0,1,1-2.5l9-7.44a2,2,0,0,0,.39-2.35L125,74.85a1.94,1.94,0,0,0-2.22-.83l-11,4.07a3.32,3.32,0,0,1-2.66-.38l-6.59-3.79a3.37,3.37,0,0,1-1.66-2.12Z"/><path class="cls-2" d="M104.68,101.57A13.72,13.72,0,1,1,91,87.86"/></g></g></svg>