<svg xmlns="http://www.w3.org/2000/svg" viewBox="0 0 238.44 233"><defs><style>.cls-1,.cls-2{fill:none;}.cls-2{stroke:#1c2e3a;stroke-linecap:round;stroke-linejoin:round;stroke-width:5px;}</style></defs><g id="Capa_2" data-name="Capa 2"><g id="Capa_1-2" data-name="Capa 1"><rect class="cls-1" width="238.44" height="233"/><path class="cls-2" d="M180.33,165.85V42.12a13.27,13.27,0,0,0-13.27-13.27H44.84"/><path class="cls-2" d="M31.57,58.71V42.12a13.27,13.27,0,0,1,26.54,0V174.29"/><line class="cls-2" x1="31.57" y1="58.71" x2="49.68" y2="58.71"/><path class="cls-2" d="M84.65,174.29v16.59a13.27,13.27,0,0,1-26.54,0V174.29"/><path class="cls-2" d="M206.87,174.29v16.59a13.27,13.27,0,0,1-13.27,13.27H71.38"/><line class="cls-2" x1="84.65" y1="174.29" x2="206.87" y2="174.29"/><path class="cls-2" d="M127.18,60.29a2,2,0,0,0-1.84-1.51H113.06a2,2,0,0,0-1.83,1.52l-1.94,11.51a3.34,3.34,0,0,1-1.65,2.11l-6.59,3.8a3.37,3.37,0,0,1-2.66.39l-11-4.06a2,2,0,0,0-2.22.84L79.1,85.49a2,2,0,0,0,.39,2.35l9,7.44a3.39,3.39,0,0,1,1,2.5v7.61a3.3,3.3,0,0,1-1,2.49l-9,7.45a2,2,0,0,0-.38,2.34l6.13,10.62a1.94,1.94,0,0,0,2.22.83l11-4.07a3.4,3.4,0,0,1,2.66.38l6.59,3.79a3.35,3.35,0,0,1,1.66,2.12l1.94,11.51a2,2,0,0,0,1.84,1.51h12.28a1.94,1.94,0,0,0,1.83-1.51l1.94-11.51a3.32,3.32,0,0,1,1.66-2.11l6.58-3.8a3.32,3.32,0,0,1,2.66-.38l11,4a1.94,1.94,0,0,0,2.22-.84l6.11-10.6a1.93,1.93,0,0,0-.39-2.34l-9-7.45a3.39,3.39,0,0,1-1-2.5v-7.6a3.31,3.31,0,0,1,1-2.5l9-7.44a2,2,0,0,0,.39-2.35l-6.13-10.62A2,2,0,0,0,151,74L140,78.09a3.34,3.34,0,0,1-2.67-.38l-6.58-3.79a3.34,3.34,0,0,1-1.66-2.12Z"/><path class="cls-2" d="M132.93,101.57a13.71,13.71,0,1,1-13.71-13.71"/></g></g></svg>