<svg xmlns="http://www.w3.org/2000/svg" viewBox="0 0 180.72 180.72"><defs><style>.cls-1{fill:none;stroke:#1c2e3a;stroke-linecap:round;stroke-linejoin:round;stroke-width:5.42px;}</style></defs><g id="Capa_2" data-name="Capa 2"><g id="icons"><path class="cls-1" d="M151.47,139.71V16A13.27,13.27,0,0,0,138.2,2.71H16"/><path class="cls-1" d="M2.71,32.57V16a13.27,13.27,0,0,1,26.54,0V148.14"/><line class="cls-1" x1="2.71" y1="32.57" x2="20.82" y2="32.57"/><path class="cls-1" d="M55.79,148.14v16.6a13.27,13.27,0,0,1-26.54,0v-16.6"/><path class="cls-1" d="M178,148.14v16.6A13.26,13.26,0,0,1,164.74,178H42.52"/><line class="cls-1" x1="55.79" y1="148.14" x2="178" y2="148.14"/><path class="cls-1" d="M98.32,34.15a2,2,0,0,0-1.84-1.51H84.2a2,2,0,0,0-1.84,1.51L80.43,45.67a3.35,3.35,0,0,1-1.66,2.11l-6.58,3.8a3.34,3.34,0,0,1-2.67.38L58.57,47.91a1.94,1.94,0,0,0-2.22.84l-6.12,10.6a2,2,0,0,0,.39,2.35l9,7.44a3.39,3.39,0,0,1,1,2.5v7.6a3.35,3.35,0,0,1-1,2.5l-9,7.45a2,2,0,0,0-.39,2.34l6.13,10.61a2,2,0,0,0,2.23.84l10.94-4.07a3.31,3.31,0,0,1,2.66.38l6.59,3.79a3.31,3.31,0,0,1,1.66,2.12l2,11.51a2,2,0,0,0,1.83,1.51H96.52a2,2,0,0,0,1.83-1.51l1.94-11.51a3.34,3.34,0,0,1,1.65-2.11l6.59-3.8a3.32,3.32,0,0,1,2.66-.38l11,4a2,2,0,0,0,2.22-.84l6.11-10.6a2,2,0,0,0-.39-2.35l-9-7.44a3.35,3.35,0,0,1-1-2.5v-7.6a3.39,3.39,0,0,1,1-2.5l9-7.45a1.94,1.94,0,0,0,.38-2.34l-6.13-10.62a1.94,1.94,0,0,0-2.22-.83l-11,4.07a3.32,3.32,0,0,1-2.66-.38l-6.59-3.8a3.38,3.38,0,0,1-1.66-2.11Z"/><path class="cls-1" d="M104.07,75.43A13.72,13.72,0,1,1,90.36,61.71"/></g></g></svg>