<svg xmlns="http://www.w3.org/2000/svg" viewBox="0 0 181.73 183.31"><defs><style>.cls-1,.cls-3{fill:none;stroke-linecap:round;stroke-linejoin:round;}.cls-1,.cls-2,.cls-3{stroke:#1c2e3a;}.cls-1{stroke-width:5.42px;}.cls-2{fill:#fff;stroke-miterlimit:10;}.cls-3{stroke-width:6px;}</style></defs><g id="Capa_2" data-name="Capa 2"><g id="icons"><path class="cls-1" d="M149.62,76.17A73.46,73.46,0,1,1,76.16,2.71,73.46,73.46,0,0,1,149.62,76.17Z"/><path class="cls-1" d="M103.52,76.17c0,40.57-12.24,73.46-27.36,73.46S48.8,116.74,48.8,76.17,61.05,2.71,76.16,2.71,103.52,35.6,103.52,76.17Z"/><line class="cls-1" x1="7.11" y1="100.66" x2="145.21" y2="100.66"/><line class="cls-1" x1="7.11" y1="51.68" x2="145.21" y2="51.68"/><path class="cls-2" d="M175.72,162.84l-22.24-22.25a40.08,40.08,0,0,0-3.6-45.43c-.23-.29-.48-.57-.72-.86-.66-.76-1.22-1.58-1.95-2.31a40.09,40.09,0,0,0-28.45-11.76h-.05c-.61,0-1.19.07-1.79.09s-1.35,0-2,.1c-1.23.12-2.44.3-3.63.53l-.14,0A40.08,40.08,0,0,0,79.38,112.7a2,2,0,0,1,0,.24c-.21,1.17-.39,2.34-.51,3.54-.07.71-.07,1.43-.1,2.14,0,.56-.09,1.11-.09,1.68v0A40.06,40.06,0,0,0,90.41,148.8c.67.66,1.42,1.17,2.12,1.78.38.33.76.66,1.16,1a40.07,40.07,0,0,0,45.32,3.5l22.24,22.25a10.23,10.23,0,0,0,14.47-14.47Z"/><path class="cls-3" d="M175.72,162.84l-22.24-22.25A40.17,40.17,0,1,0,139,155.06l22.24,22.25a10.23,10.23,0,0,0,14.47-14.47Z"/><path class="cls-1" d="M140,120.3A21.3,21.3,0,1,1,118.71,99"/></g></g></svg>