<svg xmlns="http://www.w3.org/2000/svg" viewBox="0 0 178.86 180.72"><defs><style>.cls-1{fill:#fff;}.cls-1,.cls-2{stroke:#1c2e3a;stroke-linecap:round;stroke-linejoin:round;stroke-width:5.42px;}.cls-2{fill:none;}</style></defs><g id="Capa_2" data-name="Capa 2"><g id="icons"><path class="cls-1" d="M133.63,113.42l38.26,39.2a15.11,15.11,0,0,1,0,21,14.24,14.24,0,0,1-20.52,0L113.62,135"/><path class="cls-2" d="M144.23,75.23c0,40.05-31.68,72.51-70.76,72.51S2.71,115.28,2.71,75.23,34.39,2.71,73.47,2.71,144.23,35.18,144.23,75.23Z"/><path class="cls-2" d="M18.84,75.32a57.11,57.11,0,0,1,4.3-21.83A56.23,56.23,0,0,1,34.87,35.67a54.48,54.48,0,0,1,17.39-12"/><line class="cls-1" x1="38.22" y1="95.62" x2="38.22" y2="110.21"/><line class="cls-1" x1="55.84" y1="82.75" x2="55.84" y2="110.21"/><line class="cls-1" x1="73.47" y1="60.96" x2="73.47" y2="110.21"/><line class="cls-1" x1="91.1" y1="68.55" x2="91.1" y2="110.21"/><line class="cls-1" x1="108.72" y1="44.16" x2="108.72" y2="110.21"/></g></g></svg>