<svg xmlns="http://www.w3.org/2000/svg" viewBox="0 0 170.6 178.22"><defs><style>.cls-1{fill:none;stroke:#1c2e3a;stroke-linecap:round;stroke-linejoin:round;stroke-width:6px;}</style></defs><g id="Capa_2" data-name="Capa 2"><g id="icons"><line class="cls-1" x1="38.42" y1="76.14" x2="21.74" y2="76.14"/><line class="cls-1" x1="130.18" y1="76.18" x2="113.79" y2="76.18"/><line class="cls-1" x1="49.34" y1="102.91" x2="37.66" y2="114.59"/><line class="cls-1" x1="114.57" y1="37.68" x2="102.75" y2="49.5"/><line class="cls-1" x1="76.12" y1="21.76" x2="76.12" y2="38.46"/><line class="cls-1" x1="102.89" y1="102.91" x2="114.57" y2="114.59"/><line class="cls-1" x1="37.67" y1="37.68" x2="49.48" y2="49.5"/><line class="cls-1" x1="87.34" y1="123.81" x2="64.89" y2="123.81"/><path class="cls-1" d="M64.89,113.69v-3.16c0-13.6-15.11-17.13-15.11-34.39a26.34,26.34,0,1,1,52.67,0c0,17.26-15.11,20.79-15.11,34.39v3.16"/><line class="cls-1" x1="81.86" y1="133.94" x2="70.36" y2="133.94"/><path class="cls-1" d="M27.63,175.22V140.43a24.32,24.32,0,0,0-6.35-16.05,72.75,72.75,0,0,1-17.88-56C6.9,34.62,34.13,7.16,67.84,3.46a73.14,73.14,0,0,1,81.41,72.66c0,1.54-.06,3.06-.16,4.57a12.46,12.46,0,0,0,1.2,6.34L167,120.86a5.77,5.77,0,0,1-3.93,8.19l-10.46,2.3a5.94,5.94,0,0,0-4.64,5.23l-2.41,24.55A15.61,15.61,0,0,1,130,175.22H98.81a22.69,22.69,0,0,1-22.69-22.69v-3.28"/></g></g></svg>