<svg xmlns="http://www.w3.org/2000/svg" viewBox="0 0 204.95 180.81"><defs><style>.cls-1{fill:#fff;stroke:#1c2e3a;stroke-linecap:round;stroke-linejoin:round;stroke-width:5.42px;}</style></defs><g id="Capa_2" data-name="Capa 2"><g id="icons"><polyline class="cls-1" points="69.94 94.19 69.94 52.8 90.93 52.8"/><polyline class="cls-1" points="99.07 94.19 99.07 27.76 120.06 27.76"/><polyline class="cls-1" points="128.19 94.19 128.19 2.71 157.32 2.71 157.32 94.19"/><path class="cls-1" d="M136.4,110.91S157,94.69,169.82,84.82c13.5-10.38,24-6,32.42,2.67l-64.32,62.07H54.54"/><path class="cls-1" d="M23.45,121.24c15.8-20.31,28.33-28.06,43.94-28.06,13,0,20,1.58,31.15,9.24h23.89c3.84,0,16.52,1.75,16.52,20.89H88.64"/><path class="cls-1" d="M136.4,110.91S157,94.69,169.82,84.82c13.5-10.38,24-6,32.42,2.67l-64.32,62.07H54.54"/><path class="cls-1" d="M23.45,121.24c15.8-20.31,28.33-28.06,43.94-28.06,13,0,20,1.58,31.15,9.24h23.89c3.84,0,16.52,1.75,16.52,20.89H88.64"/><polyline class="cls-1" points="2.71 129.09 15.71 115.63 63.39 164.64 50.39 178.1"/><polyline class="cls-1" points="2.71 129.09 15.71 115.63 63.39 164.64 50.39 178.1"/></g></g></svg>