<svg xmlns="http://www.w3.org/2000/svg" viewBox="0 0 170.28 170.28"><defs><style>.cls-1,.cls-2{fill:none;stroke:#1c2e3a;stroke-linejoin:round;stroke-width:5.42px;}.cls-1{stroke-linecap:round;}</style></defs><g id="Capa_2" data-name="Capa 2"><g id="icons"><polyline class="cls-1" points="21.68 85.73 67.49 38.61 104.09 70.42 152.8 10.69"/><polyline class="cls-1" points="21.68 106.71 41.87 106.71 41.87 150.12"/><polyline class="cls-1" points="96.71 91.37 116.9 91.37 116.9 150.12"/><polyline class="cls-1" points="59.2 75.84 79.39 75.84 79.39 150.12"/><polyline class="cls-1" points="134.23 59.25 154.41 59.25 154.41 152.83"/><polyline class="cls-1" points="2.71 2.71 2.71 167.57 167.57 167.57"/><polyline class="cls-1" points="131.21 10.69 154.42 10.69 154.42 33.9"/><line class="cls-2" x1="41.87" y1="150.12" x2="41.87" y2="156.72"/><line class="cls-2" x1="79.39" y1="150.12" x2="79.39" y2="156.72"/><line class="cls-2" x1="116.9" y1="150.12" x2="116.9" y2="156.72"/><line class="cls-2" x1="154.41" y1="150.12" x2="154.41" y2="156.72"/></g></g></svg>