<svg xmlns="http://www.w3.org/2000/svg" viewBox="0 0 186.73 186.73"><defs><style>.cls-1,.cls-2{fill:none;stroke-linecap:round;stroke-linejoin:round;}.cls-1{stroke:#1c2e3a;stroke-width:5.42px;}.cls-2{stroke:#fff;stroke-width:17.45px;}.cls-3{fill:#fff;}</style></defs><g id="Capa_2" data-name="Capa 2"><g id="icons"><circle class="cls-1" cx="79.68" cy="107.05" r="76.97"/><circle class="cls-1" cx="79.68" cy="107.05" r="50.16"/><path class="cls-1" d="M96.19,123.56a23.35,23.35,0,1,1,0-33A23.35,23.35,0,0,1,96.19,123.56Z"/><line class="cls-2" x1="131.72" y1="55.01" x2="79.68" y2="107.05"/><path class="cls-3" d="M125.49,65.6a4.36,4.36,0,0,1-4.36-4.36v-24a4.37,4.37,0,0,1,1.28-3.09L150.88,5.64A4.38,4.38,0,0,1,154,4.36a4.22,4.22,0,0,1,1.66.34,4.35,4.35,0,0,1,2.7,4V28.4H178a4.37,4.37,0,0,1,3.09,7.45L152.62,64.32a4.37,4.37,0,0,1-3.09,1.28Z"/><path class="cls-3" d="M154,8.72v24h24L149.53,61.24h-24v-24L154,8.72m24,24h0M154,0a8.71,8.71,0,0,0-6.17,2.56L119.32,31a8.73,8.73,0,0,0-2.55,6.17v24A8.72,8.72,0,0,0,125.49,70h24a8.73,8.73,0,0,0,6.17-2.56L184,39.07a8.72,8.72,0,0,0-6-15H162.69V8.72A8.74,8.74,0,0,0,157.3.66,8.82,8.82,0,0,0,154,0Z"/><polygon class="cls-1" points="153.96 8.72 153.96 32.76 178 32.76 149.53 61.24 125.49 61.24 125.49 37.2 153.96 8.72"/><line class="cls-1" x1="125.49" y1="61.24" x2="79.68" y2="107.05"/></g></g></svg>