<svg xmlns="http://www.w3.org/2000/svg" viewBox="0 0 209.36 233"><defs><style>.cls-1,.cls-2{fill:none;}.cls-2{stroke:#1c2e3a;stroke-linecap:round;stroke-linejoin:round;stroke-width:5px;}</style></defs><g id="Capa_2" data-name="Capa 2"><g id="Capa_1-2" data-name="Capa 1"><rect class="cls-1" width="209.36" height="233"/><line class="cls-2" x1="5.51" y1="122.88" x2="33.43" y2="122.88"/><line class="cls-2" x1="104.85" y1="43.46" x2="202.57" y2="43.46"/><path class="cls-2" d="M99.05,160.3,92.31,167c-4.76,4.76-5.67,12.53-1.41,17.74a12.88,12.88,0,0,0,19.1,1l54-54a30.3,30.3,0,0,1,21.44-8.88h17.12"/><path class="cls-2" d="M73.09,113.43,55.63,130.9a13.09,13.09,0,0,1-18.13.54,12.87,12.87,0,0,1-.32-18.51L71.27,78.85"/><path class="cls-2" d="M37.15,113,71.27,78.85A20.11,20.11,0,0,1,85.58,73l20.88.13,13.28,13.28A25.76,25.76,0,0,0,149,91.44,6.5,6.5,0,0,0,150.76,81L119.2,49.41a20.29,20.29,0,0,0-14.35-5.95H5.51"/><path class="cls-2" d="M92.3,130.64l-18.7,18.7a12.88,12.88,0,1,1-18.21-18.21l18.71-18.7"/><path class="cls-2" d="M110.51,148.84l-18.7,18.71A12.88,12.88,0,0,1,73.6,149.34L88,134.94"/><path class="cls-2" d="M141.25,167c4.76,4.76,5.67,12.53,1.41,17.74a12.88,12.88,0,0,1-19.1,1"/><path class="cls-2" d="M160,149.34a12.87,12.87,0,1,0,18.2-18.21"/><path class="cls-2" d="M141.75,167.55A12.88,12.88,0,0,0,160,149.34"/></g></g></svg>