<svg id="Layer_1" data-name="Layer 1" xmlns="http://www.w3.org/2000/svg" viewBox="0 0 128 128"><defs><style>.cls-1{fill:#1d75b8;}.cls-2{fill:#2d3e50;}</style></defs><title>b</title><path class="cls-1" d="M77.49995,84.69388,66.86026,78.28078V65.85771a2.86034,2.86034,0,1,0-5.72069,0V78.28065L50.49988,84.69388a2.8604,2.8604,0,1,0,2.95345,4.89945L64,83.23616,74.547,89.59334a2.86028,2.86028,0,1,0,2.953-4.89945Z" id="id_101" style="fill: rgb(192, 214, 232);"></path><path class="cls-2" d="M55.11278,24.11589a9.05379,9.05379,0,0,0,17.77443,0l1.3821-7.124A9.537,9.537,0,0,0,64.82085,6.16974H63.17915a9.537,9.537,0,0,0-9.44847,10.82215Z" id="id_102" style="fill: rgb(28, 46, 58);"></path><path class="cls-2" d="M84.63882,39.60844a2.68958,2.68958,0,0,0-1.7308-1.97555L73.25875,34.206,64,43.46474,54.74127,34.206,45.092,37.63289a2.68964,2.68964,0,0,0-1.7308,1.97555L40.06459,55.1229H87.93544Z" id="id_103" style="fill: rgb(28, 46, 58);"></path><path class="cls-2" d="M16.75328,90.82325a9.05377,9.05377,0,0,0,17.7744,0l1.3821-7.124a9.537,9.537,0,0,0-9.44844-10.82215H24.81961a9.537,9.537,0,0,0-9.44844,10.82215Z" id="id_104" style="fill: rgb(28, 46, 58);"></path><path class="cls-2" d="M44.54851,104.34025l-9.64929-3.42689-9.25875,9.25874-9.25875-9.25874-9.64926,3.42689a2.68972,2.68972,0,0,0-1.7308,1.97555L1.70505,121.83026H49.57587L46.27931,106.3158A2.68978,2.68978,0,0,0,44.54851,104.34025Z" id="id_105" style="fill: rgb(28, 46, 58);"></path><path class="cls-2" d="M93.47235,90.82325a9.05377,9.05377,0,0,0,17.7744,0l1.3821-7.124a9.537,9.537,0,0,0-9.44844-10.82215h-1.64174a9.537,9.537,0,0,0-9.44844,10.82215Z" id="id_106" style="fill: rgb(28, 46, 58);"></path><path class="cls-2" d="M122.99838,106.3158a2.68972,2.68972,0,0,0-1.7308-1.97555l-9.64929-3.42689-9.25875,9.25874-9.25875-9.25874-9.64926,3.42689a2.68972,2.68972,0,0,0-1.7308,1.97555l-3.29659,15.51446h47.87082Z" id="id_107" style="fill: rgb(28, 46, 58);"></path></svg>