<svg id="Layer_1" data-name="Layer 1" xmlns="http://www.w3.org/2000/svg" viewBox="0 0 128 128"><defs><style>.cls-1{fill:#2d3e50;}.cls-2{fill:#1d75b8;}</style></defs><title>b</title><path class="cls-1" d="M61.54069,73.05566,45.98567,69.289,36.54513,58.60886a11.55246,11.55246,0,0,0-10.183-6.09094h0A11.55546,11.55546,0,0,0,14.80663,64.07337V90.15679a11.55546,11.55546,0,0,0,11.55545,11.55545h0A11.55545,11.55545,0,0,0,37.91754,90.15679V77.36286l1.2066.99188.54218.44669A4.77254,4.77254,0,0,0,41.91756,79.815l17.7372,2.74487a4.84738,4.84738,0,0,0,1.88593-9.5042Z" id="id_108" style="fill: rgb(28, 46, 58);"></path><path class="cls-1" d="M3.82949,67.19174a4.07712,4.07712,0,0,0-1.15935,2.76548L2.32736,86.51161a3.94744,3.94744,0,0,0,7.87661.45064l1.13624-12.06337v-10.827a14.904,14.904,0,0,1,1.13624-5.72355l-8.25409,8.439Z" id="id_109" style="fill: rgb(28, 46, 58);"></path><path class="cls-1" d="M19.65335,42.69412a8.07884,8.07884,0,0,0,15.86112,0l1.23239-6.36207a8.511,8.511,0,0,0-8.43473-9.65917H26.85568A8.511,8.511,0,0,0,18.421,36.33206Z" id="id_110" style="fill: rgb(28, 46, 58);"></path><path class="cls-2" d="M125.64449,85.42636l-2.0377-16.43149a4.0703,4.0703,0,0,0-1.4345-2.63172l-.43505-.36182L109.5019,55.8254a5.82294,5.82294,0,0,0-1.26592-.79607,11.50285,11.50285,0,0,0-7.18832-2.5114h0A11.55545,11.55545,0,0,0,89.49219,64.07337V90.15679a11.55545,11.55545,0,0,0,11.55545,11.55545h0a11.55546,11.55546,0,0,0,11.55545-11.55545V71.13515l2.44466,1.44841,2.80973,14.09978a3.94655,3.94655,0,0,0,7.787-1.257Z" id="id_111" style="fill: rgb(192, 214, 232);"></path><path class="cls-2" d="M67.49892,72.65942c.05381.08038.11334.15556.16468.23807a8.47644,8.47644,0,0,1-.51829,9.71736,4.83772,4.83772,0,0,0,.61-.055l17.73685-2.74623a4.89793,4.89793,0,0,0,.53539-.1194V64.08346l-4.60273,5.20742Z" id="id_112" style="fill: rgb(192, 214, 232);"></path><path class="cls-2" d="M90.804,42.309a8.07884,8.07884,0,0,0,15.86112,0l1.23239-6.36207a8.511,8.511,0,0,0-8.43473-9.65917H98.00638a8.511,8.511,0,0,0-8.43475,9.65917Z" id="id_113" style="fill: rgb(192, 214, 232);"></path></svg>