<svg xmlns="http://www.w3.org/2000/svg" xml:space="preserve" width="11.1111in" height="11.1111in" version="1.1" style="shape-rendering:geometricPrecision; text-rendering:geometricPrecision; image-rendering:optimizeQuality; fill-rule:evenodd; clip-rule:evenodd" viewBox="0 0 11111 11111" xmlns:xlink="http://www.w3.org/1999/xlink">
 <defs>
  <style type="text/css">
   
    .fil1 {fill:#D2A638}
    .fil0 {fill:#EEDDB3}
   
  </style>
 </defs>
 <rect class="fil0" width="11111" height="11111" rx="5556" ry="5556" id="id_109" style="fill: rgb(192, 214, 232);"></rect>
 <g id="Layer_x0020_1">
  <metadata id="CorelCorpID_0Corel-Layer"></metadata>
  <path class="fil1" d="M3440 4442c-71,0 -139,-11 -203,-33l-73 127 274 362 273 -362 -72 -125c-63,20 -130,31 -199,31zm680 1991l0 -283 -1997 0c-67,0 -121,-54 -121,-121l0 -742c0,-476 387,-863 863,-863l85 0 77 -133c-139,-118 -228,-293 -228,-489l0 -157c-127,-202 -167,-386 -119,-550 46,-155 161,-244 226,-283 86,-170 253,-273 465,-286 301,-19 621,148 762,397 125,219 106,475 -52,724l0 155c0,197 -90,374 -231,492l75 130 85 0c358,0 671,217 801,542 87,-18 169,-18 257,-18l77 -132c-139,-118 -228,-294 -228,-490l0 -157c-127,-201 -167,-386 -119,-549 46,-156 161,-245 225,-284 87,-169 254,-272 466,-286 300,-19 621,148 762,397 125,220 106,476 -52,724l0 155c0,198 -90,375 -231,492l75 130c88,0 170,0 257,18 130,-325 444,-542 801,-542l85 0 77 -133c-139,-118 -228,-293 -228,-489l0 -157c-127,-201 -167,-386 -119,-550 46,-155 161,-244 225,-283 87,-170 254,-273 466,-286 300,-19 621,148 762,397 124,219 106,475 -52,724l0 155c0,197 -90,374 -231,492l75 130 85 0c476,0 863,387 863,863l0 742c0,67 -54,121 -121,121l-1997 0 0 283 155 0c66,0 120,54 120,121l0 457c0,66 -54,120 -120,120l-437 0 0 1335c0,67 -54,121 -121,121l-2065 0c-67,0 -121,-54 -121,-121l0 -1335 -437 0c-66,0 -120,-54 -120,-120l0 -457c0,-67 54,-121 120,-121l155 0zm1 -660c14,-313 198,-587 462,-726 -96,-226 -323,-382 -573,-382l-95 0 -381 506c-48,63 -145,63 -193,0l-381 -506 -95 0c-343,0 -621,279 -621,622l0 621 270 0 0 -562c0,-67 54,-121 120,-121 67,0 121,54 121,121l0 562 1365 0 1 -135zm1161 -713l274 362 273 -362 -72 -125c-127,42 -275,41 -402,-1l-73 126zm1246 -13c276,145 463,437 463,764l0 97 1365 0 0 -562c0,-67 54,-121 121,-121 66,0 120,54 120,121l0 562 270 0 0 -621c0,-343 -278,-622 -621,-622l-95 0 -381 506c-48,63 -145,63 -193,0l-381 -506 -95 0c-250,0 -477,156 -573,382zm222 1386l0 -625c-3,-341 -284,-618 -622,-618l-95 0 -381 505c-48,63 -145,63 -193,0l-381 -505c-113,0 -196,-3 -305,37 -246,89 -411,327 -411,584l0 622 270 0 0 -563c0,-67 54,-121 120,-121 67,0 121,54 121,121l0 563 1365 0 0 -563c0,-67 54,-121 121,-121 66,0 120,54 120,121l0 563 271 0zm-1007 -1753l13 -7c120,-69 201,-199 201,-347l0 -187c-12,-178 -56,-296 -118,-323 -76,-32 -211,48 -261,90 -38,31 -91,37 -134,14 -49,-26 -141,-66 -193,-35 -67,40 -92,187 -92,250l0 191c0,303 322,492 584,354zm-1657 2210l2939 0 0 -216 -2939 0 0 216zm557 1455l1825 0 0 -1214 -1825 0 0 1214zm2757 -3809l273 362 274 -362 -72 -125c-127,41 -275,41 -402,-2l-73 127zm461 -381l13 -7c120,-69 201,-198 201,-346l0 -187c-13,-179 -56,-296 -118,-323 -76,-33 -211,48 -261,89 -38,32 -91,37 -134,14 -50,-26 -141,-65 -193,-35 -66,39 -93,185 -93,249l0 193c0,302 323,491 585,353zm-4236 0l13 -7c120,-69 201,-198 201,-346l0 -187c-12,-179 -55,-296 -118,-323 -76,-33 -211,48 -261,89 -38,32 -91,37 -134,14 -49,-26 -141,-65 -193,-34 -67,39 -91,185 -92,247l0 194c0,302 322,491 584,353zm-722 -901c106,-151 278,-183 467,-105 95,-62 276,-152 446,-79 63,27 115,72 156,136 -3,-58 -19,-113 -49,-164 -96,-170 -327,-288 -537,-275 -95,6 -220,41 -276,177 -12,30 -34,53 -64,65 0,0 -104,49 -135,157 -7,27 -10,56 -8,88zm4236 0c106,-151 278,-183 467,-105 95,-62 276,-152 446,-79 63,27 115,72 156,136 -3,-58 -20,-113 -49,-164 -96,-170 -327,-288 -537,-275 -95,6 -220,41 -276,177 -13,30 -34,53 -64,65 0,0 -104,49 -135,157 -8,27 -10,56 -8,88zm-2118 524c106,-150 278,-182 467,-104 95,-62 276,-152 446,-80 63,27 115,73 156,136 -3,-57 -20,-112 -49,-164 -96,-170 -327,-288 -537,-275 -95,6 -220,42 -276,178 -13,30 -34,53 -64,65 0,0 -104,49 -135,157 -8,27 -10,56 -8,87z" id="id_110" style="fill: rgb(28, 46, 58);"></path>
 </g>
</svg>