<svg xmlns="http://www.w3.org/2000/svg" xml:space="preserve" width="11.1111in" height="11.1111in" version="1.1" style="shape-rendering:geometricPrecision; text-rendering:geometricPrecision; image-rendering:optimizeQuality; fill-rule:evenodd; clip-rule:evenodd" viewBox="0 0 11111 11111" xmlns:xlink="http://www.w3.org/1999/xlink">
 <defs>
  <style type="text/css">
   
    .fil1 {fill:#D2A638}
    .fil0 {fill:#EEDDB3}
   
  </style>
 </defs>
 <rect class="fil0" width="11111" height="11111" rx="5556" ry="5556" id="id_103" style="fill: rgb(192, 214, 232);"></rect>
 <g id="Layer_x0020_1">
  <metadata id="CorelCorpID_0Corel-Layer"></metadata>
  <path class="fil1" d="M5558 3753c-62,0 -121,-10 -177,-27l-57 98 232 306 231 -306 -56 -97c-55,17 -113,26 -173,26zm-448 -41l60 -105c-123,-108 -201,-267 -201,-443l0 -138c-115,-183 -151,-351 -107,-501 43,-143 145,-224 206,-261 80,-154 233,-248 427,-260 275,-18 568,135 697,363 67,118 147,357 -46,661l0 136c0,178 -79,337 -204,446l59 102 70 0c435,0 789,354 789,789l0 547 1345 0c67,0 121,54 121,121l0 1746c0,66 -54,120 -121,120l-428 0c-14,157 -89,297 -202,394l59 102 70 0c435,0 789,354 789,789l0 668c0,67 -54,121 -121,121l-2367 0c-66,0 -120,-54 -120,-121l0 -668c0,-435 354,-789 788,-789l70 0 61 -105c-112,-97 -186,-235 -200,-391l-2093 0c-14,157 -89,297 -202,394l59 102 70 0c435,0 788,354 788,789l0 668c0,67 -54,121 -120,121l-2367 0c-67,0 -121,-54 -121,-121l0 -668c0,-435 354,-789 789,-789l70 0 60 -105c-111,-97 -185,-235 -199,-391l-432 0c-67,0 -121,-54 -121,-120l0 -1746c0,-67 54,-121 121,-121l1346 0 0 -547c0,-435 353,-789 788,-789l70 0zm1508 1336l0 -547c0,-302 -245,-548 -547,-548l-79 0 -340 451c-48,63 -145,63 -193,0l-340 -451 -79 0c-301,0 -547,246 -547,548l0 547 304 0 0 -494c0,-67 54,-121 121,-121 66,0 120,54 120,121l0 494 1035 0 0 -494c0,-67 54,-121 120,-121 67,0 121,54 121,121l0 494 304 0zm-900 -1576l13 -7c104,-60 174,-172 174,-301l0 -168c-11,-153 -48,-258 -99,-280 -56,-24 -166,33 -223,79 -38,31 -90,37 -133,14 -43,-23 -120,-57 -162,-32 -53,32 -77,156 -78,215l0 172c0,263 281,427 508,308zm1934 2930c-43,-209 -295,-352 -509,-338 -82,5 -190,36 -238,152 -12,30 -34,53 -63,65 -32,14 -115,74 -123,174 101,-116 247,-137 407,-72 146,-93 374,-162 526,19zm-1080 392c-91,-163 -116,-314 -76,-450 42,-143 145,-224 205,-261 80,-154 234,-248 427,-260 275,-17 568,136 697,363 63,111 137,329 -14,608l273 0 0 -1505 -5057 0 0 1505 278 0c-90,-163 -116,-314 -76,-450 43,-143 145,-224 206,-261 80,-154 233,-248 427,-260 275,-17 568,136 697,363 63,111 137,329 -14,608l2027 0zm619 778c-62,0 -121,-9 -177,-27l-57 98 232 307 231 -307 -56 -97c-55,17 -113,26 -173,26zm-348 -762l0 173c0,195 160,348 348,348 188,0 347,-153 347,-348 0,-55 2,-112 0,-168 -11,-153 -48,-257 -99,-279 -56,-25 -166,32 -223,79 -38,31 -90,36 -133,13 -43,-22 -120,-56 -162,-31 -54,32 -75,153 -78,213zm-717 2057l353 0 0 -494c0,-67 54,-121 121,-121 66,0 120,54 120,121l0 494 937 0 0 -494c0,-67 54,-121 121,-121 66,0 120,54 120,121l0 494 353 0 0 -547c0,-302 -245,-547 -547,-547l-79 0 -340 450c-48,63 -145,63 -193,0l-339 -450 -80 0c-301,0 -547,245 -547,547l0 547zm-1741 -2465c-42,-209 -295,-352 -508,-338 -82,5 -190,36 -238,152 -13,30 -34,53 -64,65 -31,14 -115,74 -122,174 101,-116 247,-137 407,-72 146,-93 374,-162 525,19zm-808 409l0 172c0,195 160,348 348,348 187,0 347,-153 347,-348 0,-55 2,-112 0,-168 -11,-153 -48,-257 -99,-279 -60,-26 -175,38 -223,79 -38,31 -90,36 -133,13 -43,-22 -120,-56 -162,-31 -51,29 -76,144 -78,214zm348 761c-62,0 -121,-9 -177,-27l-57 98 231 307 232 -307 -56 -97c-55,17 -113,26 -173,26zm-1065 1295l353 0 0 -494c0,-67 54,-121 120,-121 67,0 121,54 121,121l0 494 937 0 0 -494c0,-67 54,-121 121,-121 66,0 120,54 120,121l0 494 353 0 0 -547c0,-302 -246,-547 -547,-547l-80 0 -339 450c-48,63 -145,63 -193,0l-340 -450 -79 0c-302,0 -547,245 -547,547l0 547zm2226 -6231c101,-117 247,-137 407,-73 146,-93 374,-161 526,20 -43,-210 -294,-352 -509,-339 -82,6 -190,36 -238,153 -13,30 -34,53 -63,65 -32,14 -116,74 -123,174z" id="id_104" style="fill: rgb(28, 46, 58);"></path>
 </g>
</svg>