<svg xmlns="http://www.w3.org/2000/svg" xml:space="preserve" width="11.1111in" height="11.1111in" version="1.1" style="shape-rendering:geometricPrecision; text-rendering:geometricPrecision; image-rendering:optimizeQuality; fill-rule:evenodd; clip-rule:evenodd" viewBox="0 0 11111 11111" xmlns:xlink="http://www.w3.org/1999/xlink">
 <defs>
  <style type="text/css">
   
    .fil1 {fill:#D2A638}
    .fil0 {fill:#EEDDB3}
   
  </style>
 </defs>
 <rect class="fil0" width="11111" height="11111" rx="5556" ry="5556" id="id_105" style="fill: rgb(192, 214, 232);"></rect>
 <g id="Layer_x0020_1">
  <metadata id="CorelCorpID_0Corel-Layer"></metadata>
  <path class="fil1" d="M3595 7187c-81,0 -160,-14 -233,-40l-92 160 323 427 322 -427 -91 -158c-72,24 -149,38 -229,38zm1961 -1083c-66,0 -121,-55 -121,-121l0 -171 -520 0c-67,0 -121,-54 -121,-121l0 -582c0,-67 54,-121 121,-121l520 0 0 -171c0,-104 125,-159 202,-89l640 583c52,47 52,131 0,178l-640 583c-23,21 -52,32 -81,32zm-521 -533l521 0c66,0 120,54 120,120l0 19 341 -310 -341 -310 0 19c0,66 -54,120 -120,120l-521 0 0 342 0 0zm521 2049c-30,0 -59,-11 -82,-31l-640 -583c-52,-47 -52,-131 0,-179l640 -582c77,-70 202,-15 202,89l0 171 520 0c67,0 121,54 121,120l0 583c0,67 -54,121 -121,121l-520 0 0 171c0,65 -55,120 -120,120zm-462 -703l341 310 0 -19c0,-66 54,-121 121,-121l520 0 0 -341 -520 0c-67,0 -121,-54 -121,-121l0 -18 -341 310zm1885 -2343l-2847 0c-67,0 -121,-54 -121,-120l0 -670 -11 0c-67,0 -121,-54 -121,-120l0 -905c0,-67 54,-121 121,-121l907 0 0 -502c0,-67 54,-121 120,-121l1057 0c66,0 120,54 120,121l0 502 907 0c67,0 121,54 121,121l0 905c0,66 -54,120 -121,120l-11 0 0 670c0,66 -54,120 -121,120zm-2849 -1031l2 0 2847 0 12 0 0 -663 -2871 0 0 663 10 0zm122 790l2607 0 0 -549 -1183 0 0 96c0,67 -54,121 -120,121 -67,0 -121,-54 -121,-121l0 -96 -1183 0 0 549zm896 -1695l815 0 0 -381 -815 0 0 381zm3840 6458l-2939 0c-67,0 -121,-54 -121,-121l0 -830c0,-524 427,-950 951,-950l103 0 96 -166c-158,-129 -259,-325 -259,-544l0 -179c-141,-223 -186,-427 -133,-606 51,-173 179,-270 249,-312 94,-186 277,-300 510,-315 331,-21 683,163 839,436 137,242 115,524 -61,798l0 178c0,221 -102,418 -262,547l94 163 103 0c524,0 951,426 951,950l0 830c0,67 -54,121 -121,121zm-1792 -1789l323 427 322 -427 -91 -158c-147,50 -316,50 -462,-2l-92 160zm-1026 1547l330 0 0 -643c0,-67 54,-121 121,-121 66,0 120,54 120,121l0 643 1555 0 0 -643c0,-67 54,-121 120,-121 67,0 121,54 121,121l0 643 330 0 0 -709c0,-391 -318,-709 -709,-709l-112 0 -431 571c-48,63 -145,63 -193,0l-431 -571 -112 0c-391,0 -709,318 -709,709l0 709 0 0zm1566 -1961l13 -8c139,-79 233,-229 233,-400l0 -209c-15,-206 -66,-342 -141,-374 -100,-43 -268,70 -307,102 -37,32 -90,37 -133,14 -71,-37 -169,-75 -230,-38 -81,48 -110,215 -111,290l0 215c0,350 373,567 676,408zm-4680 302l96 -166c-158,-129 -259,-325 -259,-544l0 -179c-141,-223 -186,-427 -133,-606 51,-173 180,-270 249,-312 94,-186 277,-300 510,-315 331,-21 683,163 839,436 137,242 115,524 -61,799l0 177c0,221 -102,418 -262,547l94 163 103 0c525,0 951,426 951,950l0 830c0,67 -54,121 -121,121l-2939 0c-67,0 -121,-54 -121,-121l0 -830c0,-524 427,-950 951,-950l103 0zm-812 1659l330 0 0 -643c0,-67 54,-121 121,-121 66,0 120,54 120,121l0 643 1555 0 0 -643c0,-67 54,-121 120,-121 67,0 121,54 121,121l0 643 331 0 0 -709c0,-391 -319,-709 -710,-709l-112 0 -431 571c-48,63 -145,63 -193,0l-430 -571 -113 0c-391,0 -709,318 -709,709l0 709 0 0zm1566 -1961l13 -8c139,-79 233,-229 233,-400l0 -209c-15,-206 -66,-342 -141,-374 -90,-39 -246,52 -307,103 -38,30 -90,36 -133,13 -71,-37 -169,-75 -230,-38 -80,48 -110,215 -110,290l0 215c0,349 372,567 675,408zm-824 -980c112,-190 308,-237 532,-141 102,-68 305,-172 492,-92 82,35 147,99 194,192 6,-86 -13,-168 -56,-243 -111,-195 -374,-330 -614,-315 -110,7 -255,48 -321,207 -12,30 -35,53 -64,65 0,0 -122,57 -159,184 -12,43 -13,91 -4,143zm3926 0c112,-190 307,-237 532,-141 102,-68 304,-172 492,-92 82,35 147,99 194,192 5,-86 -13,-168 -56,-243 -111,-195 -374,-330 -614,-315 -110,7 -256,48 -321,207 -12,30 -35,53 -64,65 0,0 -122,57 -159,184 -12,43 -13,91 -4,143z" id="id_106" style="fill: rgb(28, 46, 58);"></path>
 </g>
</svg>