<svg xmlns="http://www.w3.org/2000/svg" xml:space="preserve" width="11.1111in" height="11.1111in" version="1.1" style="shape-rendering:geometricPrecision; text-rendering:geometricPrecision; image-rendering:optimizeQuality; fill-rule:evenodd; clip-rule:evenodd" viewBox="0 0 11111 11111" xmlns:xlink="http://www.w3.org/1999/xlink">
 <defs>
  <style type="text/css">
   
    .fil1 {fill:#D2A638}
    .fil0 {fill:#EEDDB3}
   
  </style>
 </defs>
 <rect class="fil0" width="11111" height="11111" rx="5556" ry="5556" id="id_115" style="fill: rgb(192, 214, 232);"></rect>
 <g id="Layer_x0020_1">
  <metadata id="CorelCorpID_0Corel-Layer"></metadata>
  <path class="fil1" d="M7636 3474c-1,0 -2,0 -3,0l-549 -10 -135 134c893,986 823,2501 -155,3402l481 1959c18,77 -40,150 -118,150 -54,0 -103,-37 -117,-92l-452 -1846c-852,627 -2012,627 -2864,-1l-452 1847c-16,65 -82,104 -146,88 -65,-16 -105,-81 -89,-146l481 -1959c-480,-442 -782,-1076 -782,-1779 0,-1334 1086,-2420 2420,-2420 624,0 1193,238 1623,627l135 -135 -11 -549c-1,-33 12,-65 35,-88l618 -618c70,-70 189,-31 205,66l71 441 441 71c97,16 136,135 66,205l-618 618c-23,23 -53,35 -85,35zm-857 295l-310 310c267,306 428,705 428,1142 0,960 -781,1742 -1741,1742 -960,0 -1741,-782 -1741,-1742 0,-960 781,-1741 1741,-1741 437,0 837,161 1143,428l309 -309c-386,-346 -895,-556 -1452,-556 -1201,0 -2178,977 -2178,2178 0,1201 977,2178 2178,2178 1201,0 2178,-977 2178,-2178 0,-557 -210,-1066 -555,-1452zm-481 481l-309 309c145,181 232,412 232,662 0,587 -478,1065 -1065,1065 -587,0 -1065,-478 -1065,-1065 0,-587 478,-1065 1065,-1065 250,0 481,87 663,232l308 -309c-261,-223 -601,-358 -971,-358 -827,0 -1500,673 -1500,1500 0,827 673,1500 1500,1500 827,0 1500,-673 1500,-1500 0,-370 -135,-709 -358,-971zm-481 480l-317 317c129,254 -55,560 -344,560 -213,0 -386,-173 -386,-386 0,-288 306,-473 560,-344l317 -317c-138,-102 -307,-163 -491,-163 -454,0 -824,370 -824,824 0,454 370,824 824,824 454,0 824,-370 824,-824 0,-184 -61,-353 -163,-491zm-661 347c-80,0 -144,65 -144,144 0,80 64,144 144,144 80,0 144,-64 144,-144 0,-79 -64,-144 -144,-144zm1998 -1853l433 8 415 -415 -294 -48c-51,-8 -92,-49 -100,-100l-48 -294 -415 415 9 434z" id="id_116" style="fill: rgb(28, 46, 58);"></path>
 </g>
</svg>