<svg xmlns="http://www.w3.org/2000/svg" xml:space="preserve" width="11.1111in" height="11.1111in" version="1.1" style="shape-rendering:geometricPrecision; text-rendering:geometricPrecision; image-rendering:optimizeQuality; fill-rule:evenodd; clip-rule:evenodd" viewBox="0 0 11111 11111" xmlns:xlink="http://www.w3.org/1999/xlink">
 <defs>
  <style type="text/css">
   
    .fil1 {fill:#D2A638}
    .fil0 {fill:#EEDDB3}
   
  </style>
 </defs>
 <rect class="fil0" width="11111" height="11111" rx="5556" ry="5556" id="id_113" style="fill: rgb(192, 214, 232);"></rect>
 <g id="Layer_x0020_1">
  <metadata id="CorelCorpID_0Corel-Layer"></metadata>
  <path class="fil1" d="M6275 8644l-599 0 0 344c0,67 -54,121 -120,121 -67,0 -121,-54 -121,-121l0 -344 -598 0c-67,0 -121,-54 -121,-120l0 -797 -256 0c-66,0 -120,-54 -120,-121 0,-1004 -228,-1384 -430,-1719 -166,-276 -322,-537 -322,-1058 0,-1085 882,-1968 1968,-1968 1085,0 1968,883 1968,1968 0,1164 -753,966 -753,2777 0,67 -54,121 -120,121l-256 0 0 797c0,66 -54,120 -120,120zm-719 -5986c-67,0 -121,-54 -121,-121l0 -414c0,-67 54,-121 121,-121 66,0 120,54 120,121l0 414c0,67 -54,121 -120,121zm1378 369c-92,0 -151,-100 -104,-181l207 -359c33,-57 107,-77 164,-44 58,34 78,107 45,165l-207 359c-23,38 -63,60 -105,60zm1009 1009c-122,0 -167,-163 -60,-225l358 -207c58,-33 132,-14 165,44 34,58 14,132 -44,165l-358 207c-19,11 -40,16 -61,16zm784 1379l-414 0c-67,0 -121,-54 -121,-121 0,-67 54,-121 121,-121l414 0c66,0 120,54 120,121 0,67 -54,121 -120,121zm-4550 -2388c-42,0 -82,-22 -104,-60l-207 -359c-34,-58 -14,-131 44,-165 57,-33 131,-13 165,44l207 359c46,81 -13,181 -105,181zm-1009 1009c-21,0 -41,-5 -60,-16l-359 -207c-58,-33 -78,-107 -44,-165 33,-58 107,-77 165,-44l358 207c107,62 62,225 -60,225zm-370 1379l-414 0c-66,0 -120,-54 -120,-121 0,-67 54,-121 120,-121l414 0c67,0 121,54 121,121 0,67 -54,121 -121,121zm3785 390l-2055 0c-67,0 -121,-54 -121,-121 0,-66 54,-121 121,-121l152 0 0 -876c0,-66 54,-120 121,-120 66,0 120,54 120,120l0 876 262 0 0 -1284c0,-66 54,-121 121,-121 67,0 121,55 121,121l0 1284 261 0 0 -535c0,-66 54,-121 121,-121 67,0 121,55 121,121l0 535 262 0 0 -1666c0,-67 54,-121 120,-121 67,0 121,54 121,121l0 1666 152 0c67,0 121,55 121,121 0,67 -54,121 -121,121zm-1029 2598l600 0 0 -676 -1197 0 0 676 597 0zm-718 -918l1 0 1694 0c18,-982 254,-1374 463,-1722 161,-268 288,-480 288,-934 0,-952 -774,-1726 -1726,-1726 -953,0 -1727,774 -1727,1726 0,454 127,666 288,934 209,348 445,740 463,1722l256 0z" id="id_114" style="fill: rgb(28, 46, 58);"></path>
 </g>
</svg>