<svg xmlns="http://www.w3.org/2000/svg" xml:space="preserve" width="11.1111in" height="11.1111in" version="1.1" style="shape-rendering:geometricPrecision; text-rendering:geometricPrecision; image-rendering:optimizeQuality; fill-rule:evenodd; clip-rule:evenodd" viewBox="0 0 11111 11111" xmlns:xlink="http://www.w3.org/1999/xlink">
 <defs>
  <style type="text/css">
   
    .fil1 {fill:#D2A638}
    .fil0 {fill:#EEDDB3}
   
  </style>
 </defs>
 <rect class="fil0" width="11111" height="11111" rx="5556" ry="5556" id="id_107" style="fill: rgb(192, 214, 232);"></rect>
 <g id="Layer_x0020_1">
  <metadata id="CorelCorpID_0Corel-Layer"></metadata>
  <path class="fil1" d="M6132 5260c-221,0 -400,-179 -400,-400 0,-221 179,-400 400,-400 221,0 400,179 400,400 0,221 -179,400 -400,400zm-1463 -882c31,-143 11,-280 -59,-404 -139,-245 -470,-415 -771,-397 -116,8 -324,52 -414,269 -12,29 -35,53 -64,65 0,0 -159,73 -207,240 -22,77 -19,163 9,258 120,-269 362,-350 661,-219 115,-78 361,-213 585,-117 117,50 204,152 260,305zm-1341 388l0 263c0,216 118,406 293,508l16 8c83,45 177,71 278,71 317,0 586,-259 586,-587l0 -256c-18,-264 -85,-434 -187,-478 -132,-56 -338,77 -400,129 -38,31 -90,36 -134,14 -92,-49 -220,-97 -305,-47 -116,70 -146,298 -147,375zm-241 37c-172,-267 -227,-510 -164,-723 61,-208 219,-322 298,-367 109,-223 326,-359 603,-376 393,-25 812,193 996,517 163,288 135,624 -77,951l0 224c0,268 -129,507 -327,659l133 231 141 0c623,0 1131,507 1131,1130l0 1010c0,67 -54,121 -121,121l-3577 0c-67,0 -121,-54 -121,-121l0 -1010c0,-623 507,-1130 1131,-1130l141 0 135 -235c-196,-151 -322,-389 -322,-655l0 -226zm828 1054c-104,0 -204,-19 -296,-55l-131 228 423 562 424 -562 -130 -226c-91,34 -188,53 -290,53zm-1671 2081l454 0 0 -809c0,-67 54,-121 121,-121 66,0 120,54 120,121l0 809 1944 0 0 -809c0,-67 54,-121 121,-121 67,0 121,54 121,121l0 809 454 0 0 -889c0,-490 -399,-889 -889,-889l-150 0 -532 705c-48,63 -145,63 -193,0l-532 -705 -150 0c-491,0 -889,399 -889,889l0 889zm6639 242l-2627 0c-67,0 -121,-54 -121,-121l0 -1955c0,-67 54,-121 121,-121l2627 0c66,0 120,54 120,121l0 1955c0,67 -54,121 -120,121zm-2506 -242l2385 0 0 -1713 -2385 0 0 1713zm1943 -239l-1501 0c-67,0 -121,-54 -121,-121 0,-67 54,-121 121,-121l1501 0c66,0 120,54 120,121 0,67 -54,121 -120,121zm0 -497l-1129 0c-66,0 -120,-54 -120,-121 0,-66 54,-120 120,-120l1129 0c66,0 120,54 120,120 0,67 -54,121 -120,121zm0 -497l-822 0c-66,0 -120,-54 -120,-120 0,-67 54,-121 120,-121l822 0c66,0 120,54 120,121 0,66 -54,120 -120,120zm-718 -1934l67 -542 -743 0 -37 607c3,73 -6,147 -25,220 -109,405 -527,643 -928,536 -403,-108 -643,-525 -535,-928 9,-34 20,-66 34,-98l501 -1237c96,-237 355,-444 645,-363 239,61 386,283 385,573l789 0 11 -90c32,-254 228,-522 529,-517 261,-4 468,193 531,501l252 1229c20,68 31,140 31,215 0,418 -340,757 -757,757 -462,0 -814,-411 -750,-863zm97 -783l26 -207 -772 0 -13 207 759 0zm1044 241l-153 -747c-30,-145 -124,-312 -293,-309l-8 0c-154,0 -265,155 -284,306l-97 785c244,-177 576,-192 835,-35zm-902 573l-5 75c0,285 231,516 516,516 284,0 515,-231 515,-516 0,-284 -231,-516 -515,-516 -259,0 -474,192 -511,441zm-1193 43c0,-3 0,-5 0,-8 -4,-82 -27,-162 -69,-235 -215,-373 -768,-334 -929,74 -129,329 117,700 483,700 291,0 523,-243 515,-531zm30 -510l14 -234 32 -527c8,-147 -40,-333 -204,-374 -1,-1 -2,-1 -3,-1 -150,-43 -299,78 -357,221l-297 732c281,-107 606,-35 815,183zm1694 938c-220,0 -400,-180 -400,-400 0,-221 180,-401 400,-401 221,0 401,180 401,401 0,220 -180,400 -401,400zm0 -559c-87,0 -158,71 -158,159 0,87 71,159 158,159 88,0 159,-72 159,-159 0,-88 -71,-159 -159,-159zm-2240 -13c-87,0 -159,72 -159,159 0,88 72,159 159,159 88,0 159,-71 159,-159 0,-87 -71,-159 -159,-159z" id="id_108" style="fill: rgb(28, 46, 58);"></path>
 </g>
</svg>