<svg xmlns="http://www.w3.org/2000/svg" xml:space="preserve" width="11.1111in" height="11.1111in" version="1.1" style="shape-rendering:geometricPrecision; text-rendering:geometricPrecision; image-rendering:optimizeQuality; fill-rule:evenodd; clip-rule:evenodd" viewBox="0 0 11111 11111" xmlns:xlink="http://www.w3.org/1999/xlink">
 <defs>
  <style type="text/css">
   
    .fil1 {fill:#D2A638}
    .fil0 {fill:#EEDDB3}
   
  </style>
 </defs>
 <rect class="fil0" width="11111" height="11111" rx="5556" ry="5556" id="id_101" style="fill: rgb(192, 214, 232);"></rect>
 <g id="Layer_x0020_1">
  <metadata id="CorelCorpID_0Corel-Layer"></metadata>
  <path class="fil1" d="M3744 6315c-80,0 -158,-14 -230,-39l-90 156 318 421 317 -421 -89 -154c-71,24 -147,37 -226,37zm2061 -1469l-499 0c-57,0 -106,-40 -118,-95l-85 -398c-43,-21 -85,-46 -125,-73l-387 126c-55,17 -114,-5 -142,-55l-250 -432c-28,-49 -18,-112 24,-150l249 -224 -612 0 0 686c264,44 516,204 640,423 135,239 114,519 -60,790l0 175c0,219 -101,414 -259,542l92 159 102 0c519,0 941,423 941,942l0 700 479 0 0 -700c0,-519 422,-942 942,-942l101 0 94 -162c-156,-128 -256,-322 -256,-539l0 -177c-140,-220 -184,-422 -132,-600 51,-171 178,-267 247,-308 87,-173 251,-283 460,-308l0 -681 -612 0 249 224c42,38 52,101 24,150l-250 432c-28,50 -87,72 -141,55l-388 -126c-40,27 -82,52 -125,73l-85 398c-12,55 -61,95 -118,95zm-1333 -1542l-249 -225c-42,-38 -52,-100 -24,-150l250 -432c28,-49 87,-72 142,-54l387 125c40,-27 82,-51 125,-72l85 -398c12,-56 61,-96 118,-96l499 0c57,0 106,40 118,96l85 398c43,21 85,45 125,72l388 -125c54,-18 113,5 141,54l250 432c28,50 18,112 -24,150l-249 225 733 0c67,0 121,54 121,120l0 808c263,45 511,205 634,422 136,239 115,519 -59,790l0 175c0,219 -101,414 -259,542l92 159 101 0c520,0 942,423 942,942l0 700 17 0c67,0 121,54 121,121l0 483c0,67 -54,121 -121,121l-252 0 0 301c0,67 -54,121 -120,121l-487 0c-67,0 -121,-54 -121,-121l0 -301 -4851 0 0 301c0,67 -54,121 -121,121l-487 0c-66,0 -120,-54 -120,-121l0 -301 -252 0c-67,0 -121,-54 -121,-121l0 -483c0,-67 54,-121 121,-121l17 0 0 -700c0,-519 423,-942 942,-942l101 0 94 -162c-156,-128 -255,-322 -255,-539l0 -177c-141,-220 -185,-422 -132,-600 50,-171 177,-267 246,-308 86,-171 249,-281 455,-308l0 -802c0,-66 54,-120 121,-120l733 0zm932 1301l303 0 78 -362c8,-39 35,-71 72,-87 65,-26 126,-62 182,-105 31,-24 73,-31 111,-19l352 114 152 -263 -275 -248c-30,-27 -44,-66 -39,-106 9,-69 9,-140 0,-210 -5,-39 9,-79 39,-106l275 -248 -152 -263 -352 115c-38,12 -80,5 -111,-20 -56,-43 -117,-78 -182,-105 -37,-15 -64,-47 -72,-86l-78 -362 -303 0 -78 362c-8,39 -35,71 -72,86 -64,27 -126,62 -182,105 -31,25 -73,32 -111,20l-352 -115 -152 263 275 248c30,27 44,67 39,106 -9,70 -9,141 0,211 5,39 -9,78 -39,105l-275 248 152 263 353 -114c37,-12 79,-5 110,19 56,43 118,79 182,105 37,16 64,48 72,87l78 362zm152 -550c-348,0 -631,-283 -631,-631 0,-347 283,-630 631,-630 347,0 630,283 630,630 0,348 -283,631 -630,631zm0 -1020c-215,0 -390,175 -390,389 0,215 175,389 390,389 214,0 389,-174 389,-389 0,-214 -175,-389 -389,-389zm-3147 4927l324 0 0 -635c0,-67 54,-121 120,-121 67,0 121,54 121,121l0 635 1535 0 0 -635c0,-67 54,-121 121,-121 66,0 120,54 120,121l0 635 325 0 0 -700c0,-386 -314,-700 -700,-700l-111 0 -426 564c-48,63 -145,63 -193,0l-425 -564 -111 0c-386,0 -700,314 -700,700l0 700zm3627 0l325 0 0 -635c0,-67 54,-121 120,-121 67,0 121,54 121,121l0 635 1535 0 0 -635c0,-67 54,-121 121,-121 66,0 120,54 120,121l0 635 325 0 0 -700c0,-386 -315,-700 -701,-700l-111 0 -425 564c-48,63 -145,63 -193,0l-426 -564 -110 0c-387,0 -701,314 -701,700l0 700zm-3765 484l6569 0 0 -243 -6569 0 0 243zm5100 -3984l-59 0c-109,7 -252,48 -317,205 -12,29 -35,52 -64,65 0,0 -120,56 -156,181 -12,41 -13,87 -5,137 111,-186 305,-231 526,-137 101,-67 301,-170 487,-91 80,34 143,97 190,186 16,-309 -303,-535 -602,-546zm-3633 0c-134,-1 -298,29 -371,205 -12,29 -35,52 -63,65 -1,0 -121,56 -157,181 -11,41 -13,87 -5,137 112,-186 305,-231 526,-137 101,-67 301,-170 487,-91 80,34 144,97 191,186 15,-311 -307,-537 -608,-546zm-1095 4405l246 0 0 -180 -246 0 0 180zm5579 0l246 0 0 -180 -246 0 0 180zm-1170 -2435l317 421 318 -421 -89 -154c-145,49 -311,49 -456,-2l-90 156zm531 -410l14 -8c137,-78 229,-226 229,-395l0 -207c-14,-202 -64,-336 -138,-368 -89,-38 -242,52 -302,101 -38,31 -91,37 -134,14 -70,-37 -165,-74 -225,-38 -79,46 -109,213 -109,287l0 211c0,345 367,560 665,403zm-3628 0l14 -8c137,-78 230,-226 230,-395l0 -207c-15,-202 -65,-336 -139,-368 -99,-42 -263,69 -302,101 -38,31 -90,37 -134,14 -69,-37 -165,-74 -225,-38 -79,46 -109,214 -109,287l0 211c0,345 367,560 665,403z" id="id_102" style="fill: rgb(28, 46, 58);"></path>
 </g>
</svg>