<svg xmlns="http://www.w3.org/2000/svg" xml:space="preserve" width="11.1111in" height="11.1111in" version="1.1" style="shape-rendering:geometricPrecision; text-rendering:geometricPrecision; image-rendering:optimizeQuality; fill-rule:evenodd; clip-rule:evenodd" viewBox="0 0 11111 11111" xmlns:xlink="http://www.w3.org/1999/xlink">
 <defs>
  <style type="text/css">
   
    .fil1 {fill:#D2A638}
    .fil0 {fill:#EEDDB3}
   
  </style>
 </defs>
 <rect class="fil0" width="11111" height="11111" rx="5556" ry="5556" id="id_111" style="fill: rgb(192, 214, 232);"></rect>
 <g id="Layer_x0020_1">
  <metadata id="CorelCorpID_0Corel-Layer"></metadata>
  <path class="fil1" d="M8029 6355l-820 0c-66,0 -120,-54 -120,-121l0 -449 -302 0c31,102 48,209 48,321 0,534 -287,563 -374,1092l2130 0 0 -1413 -441 0 0 449c0,67 -54,121 -121,121zm-1592 1084c-2,46 -3,94 -3,145 0,67 -54,121 -120,121l-80 0 0 368c0,66 -54,121 -121,121l-262 0 0 126c0,67 -54,121 -121,121 -66,0 -120,-54 -120,-121l0 -126 -262 0c-67,0 -121,-55 -121,-121l0 -368 -80 0c-66,0 -120,-54 -120,-121 0,-51 -2,-99 -4,-145l-2274 0c-67,0 -121,-54 -121,-120l0 -1534 -155 0c-67,0 -121,-54 -121,-121l0 -1088c-215,-201 -350,-487 -350,-804 0,-608 494,-1102 1102,-1102 566,0 1033,429 1094,980l306 0 0 -859c0,-67 54,-121 120,-121l2213 0c66,0 120,54 120,121l0 859 2031 0c67,0 121,54 121,120l0 1894c0,67 -54,121 -121,121l-155 0 0 1534c0,66 -54,120 -121,120l-2275 0zm-1438 -241c-86,-529 -373,-558 -373,-1092 0,-112 17,-219 47,-321l-301 0 0 449c0,67 -54,121 -120,121l-820 0c-67,0 -121,-54 -121,-121l0 -449 -441 0 0 1413 2129 0zm1206 115c0,-4 0,-8 1,-11 37,-387 149,-573 242,-728 81,-136 146,-243 146,-468 0,-476 -388,-864 -864,-864 -475,0 -863,388 -863,864 0,225 65,332 146,468 93,155 205,341 242,728 5,43 9,112 11,162l929 0c2,-54 5,-104 10,-151zm-2074 -1528l-579 0 0 329 579 0 0 -329zm614 -2135l1971 0 0 -738 -1971 0 0 738zm2464 1894l1658 0 0 -1653 -4668 0c-60,551 -528,982 -1095,982 -184,0 -358,-45 -511,-126l0 797 2187 0c192,-325 546,-543 950,-543 404,0 758,218 951,543l528 0zm-3245 -1772l0 -2c-1,-474 -387,-858 -860,-858 -475,0 -860,385 -860,860 0,474 385,860 860,860 474,0 859,-386 860,-860zm1504 4180l525 0 0 -247 -525 0 0 247zm262 -3124c-66,0 -120,-54 -120,-120l0 -405c0,-66 54,-120 120,-120 67,0 121,54 121,120l0 405c0,66 -54,120 -121,120zm823 221c-92,0 -151,-100 -104,-181l202 -351c33,-57 107,-77 165,-44 57,34 77,107 44,165l-202 350c-23,39 -63,61 -105,61zm-1645 0c-42,0 -82,-22 -105,-61l-202 -350c-33,-58 -14,-131 44,-165 58,-33 132,-13 165,44l202 351c47,81 -12,181 -104,181zm-1981 -855c-32,0 -63,-13 -85,-36l-250 -249c-47,-47 -47,-124 0,-171 47,-47 123,-47 171,0l164 164 518 -517c47,-47 123,-47 170,0 48,47 48,123 0,170l-603 603c-22,23 -53,36 -85,36zm4403 1920l579 0 0 -329 -579 0 0 329z" id="id_112" style="fill: rgb(28, 46, 58);"></path>
 </g>
</svg>