<svg version="1.1" id="Capa_1" xmlns="http://www.w3.org/2000/svg" xmlns:xlink="http://www.w3.org/1999/xlink" x="0px" y="0px" viewBox="0 0 480 480" style="enable-background:new 0 0 480 480;" xml:space="preserve">
<style type="text/css">
	.st0{fill:#EB3738;}
</style>
<path class="st0" d="M248,264c-1.6,0-3.1-0.5-4.4-1.3L224,249.6l-19.6,13c-1.3,0.9-2.9,1.4-4.4,1.4h-23.4
	c4.4,35,36.4,59.9,71.4,55.5c29-3.6,51.9-26.5,55.5-55.5H248z M96,192c-32.2,0.1-59.4,24-63.4,56h20.1l13.7-13.7
	c2.4-2.4,6.2-3,9.2-1.5l30.3,15.2h53.6C155.4,216,128.2,192,96,192z M104,264c-1.2,0-2.5-0.3-3.6-0.8l-26.8-13.5l-11.9,11.9
	c-1.5,1.5-3.6,2.4-5.7,2.3H32.6c4.4,35,36.4,59.9,71.4,55.5c29-3.6,51.9-26.5,55.5-55.5H104V264z M376.1,192.5
	c-29,3.6-51.9,26.5-55.5,55.5h11.2l13.6-20.4c1.5-2.2,4-3.6,6.7-3.6h64c2.7,0,5.2,1.3,6.7,3.6l13.6,20.4h11.2
	C443.1,213,411.1,188.1,376.1,192.5z M240,192c-32.2,0.1-59.4,24-63.4,56h21l22-14.7c2.7-1.8,6.2-1.8,8.9,0l21.9,14.7h53
	C299.4,216,272.2,192.1,240,192z M432,264c-2.7,0-5.2-1.3-6.7-3.6L411.7,240h-55.4l-13.6,20.4c-1.5,2.2-4,3.6-6.7,3.6h-15.4
	c4.4,35,36.4,59.9,71.4,55.5c29-3.6,51.9-26.5,55.5-55.5H432z M241.4,376h-2.9l-13.9,69.4l15.3,15.3l15.3-15.3L241.4,376z M240,0
	c1.4,0,2.8,0.4,4,1.1l96,56c3.8,2.2,5.1,7.1,2.9,10.9c-1.4,2.5-4,4-6.9,4h-40v49.6l97.8,22.6l-3.6,15.6l-104-24
	c-3.6-0.8-6.2-4-6.2-7.8V64c0-4.4,3.6-8,8-8h18.4L240,17.3L173.6,56H192c4.4,0,8,3.6,8,8v64c0,3.7-2.6,7-6.2,7.8l-104,24l-3.6-15.6
	l97.8-22.6V72h-40c-4.4,0-8-3.6-8-8c0-2.8,1.5-5.5,4-6.9l96-56C237.2,0.4,238.6,0,240,0H64v176h352V0H240z M97.4,376h-2.9
	l-13.9,69.4L96,460.7l15.3-15.3L97.4,376z M385.4,376h-2.9l-13.9,69.4l15.3,15.3l15.3-15.3L385.4,376z M440,360
	c-17.7,0-32-14.3-32-32h-48c0,17.7-14.3,32-32,32c-5.6,0-11.2,1.6-16,4.4c-4.8-2.9-10.4-4.4-16-4.4c-17.7,0-32-14.3-32-32h-48
	c0,17.7-14.3,32-32,32c-5.6,0-11.2,1.6-16,4.4c-4.8-2.9-10.4-4.4-16-4.4c-17.7,0-32-14.3-32-32H72c0,17.7-14.3,32-32,32
	S8,374.3,8,392v88h88c-2.1,0-4.2-0.8-5.7-2.3l-24-24c-1.9-1.9-2.7-4.6-2.2-7.2l16-80c0.7-3.7,4-6.5,7.8-6.5h16
	c3.8,0,7.1,2.7,7.8,6.4l16,80c0.5,2.6-0.3,5.3-2.2,7.2l-24,24c-1.5,1.5-3.5,2.4-5.7,2.4h144c-2.1,0-4.2-0.8-5.7-2.3l-24-24
	c-1.9-1.9-2.7-4.6-2.2-7.2l16-80c0.7-3.7,4-6.5,7.8-6.5h16c3.8,0,7.1,2.7,7.8,6.4l16,80c0.5,2.6-0.3,5.3-2.2,7.2l-24,24
	c-1.5,1.5-3.5,2.4-5.7,2.4h144c-2.1,0-4.2-0.8-5.7-2.3l-24-24c-1.9-1.9-2.7-4.6-2.2-7.2l16-80c0.7-3.7,4-6.5,7.8-6.5h16
	c3.8,0,7.1,2.7,7.8,6.4l16,80c0.5,2.6-0.3,5.3-2.2,7.2l-24,24c-1.5,1.5-3.5,2.4-5.7,2.4h88v-88C472,374.3,457.7,360,440,360z" id="id_101" style="fill: rgb(28, 46, 58);"></path>
</svg>