<svg version="1.1" id="Capa_1" xmlns="http://www.w3.org/2000/svg" xmlns:xlink="http://www.w3.org/1999/xlink" x="0px" y="0px" viewBox="0 0 464 464" style="enable-background:new 0 0 464 464;" xml:space="preserve">
<style type="text/css">
	.st0{fill:#EB1E79;}
</style>
<path class="st0" d="M136.4,272.1l-39.3,6.6l14.8,96.2c0.4,2.5-0.4,5.1-2.2,6.9l-24,24c-3.1,3.1-8.2,3.1-11.3,0l-24-24
	c-1.8-1.8-2.6-4.4-2.2-6.9L63,278.7l-39.3-6.6C10.5,272.3,0,283,0,296v120h160V296C160,283,149.5,272.3,136.4,272.1z M136,328h-24
	v-16h24V328z M0,432h160v32H0V432z M81.2,280h-2.3l-14.3,93.2L80,388.7l15.5-15.5L81.2,280z M88,96H0.6c4,27.5,27.6,48,55.4,48h87.3
	C139.3,116.5,115.8,96.1,88,96z M101.3,220.3c25.6-9,42.6-33.2,42.5-60.3H56c-13.8,0-27.3-4-38.9-11.5c-0.7,3.8-1.1,7.6-1.1,11.5
	c0.1,27.1,17.1,51.2,42.7,60.3c3.2,1.1,5.3,4.2,5.3,7.5v4.2c0,10.8-4.4,21-12.1,28.5l20.7,3.5h14.7l20.7-3.5
	c-7.6-7.4-12-17.7-12-28.5v-4.2C96,224.5,98.2,221.4,101.3,220.3z M382,141.3l-24.4,24.4c-3.1,3.1-8.2,3.1-11.3,0l-16-16l11.3-11.3
	l10.3,10.3l20.8-20.8c-5.8-5.1-13.1-7.9-20.8-7.9c-17.9-0.2-32.6,14.1-32.9,32c-0.2,17.9,14.1,32.6,32,32.9s32.6-14.1,32.9-32
	C384.1,149,383.4,145,382,141.3z M406.9,80c-2.8,4.9-8.1,8-13.8,8H199c-5.7,0-10.9-3.1-13.8-8H176v352h256V80H406.9L406.9,80z
	 M202.4,181.7l11.3-11.3l18.3,18.3l18.3-18.3l11.3,11.3L243.3,200l18.3,18.3l-11.3,11.3L232,211.3l-18.3,18.3l-11.3-11.3l18.4-18.3
	L202.4,181.7z M349.7,378.4l-11.3,11.3L320,371.3l-18.3,18.3l-11.3-11.3l18.3-18.3l-18.3-18.3l11.3-11.3l18.3,18.3l18.3-18.3
	l11.3,11.3L331.3,360L349.7,378.4z M378.4,253.7L360,235.3V252c0,28.7-23.3,52-52,52c-19.9,0-36,16.1-36,36v8c0,28.7-23.3,52-52,52
	h-20v-16h20c19.9,0,36-16.1,36-36v-8c0-28.7,23.3-52,52-52c19.9,0,36-16.1,36-36v-16.7l-18.3,18.3l-11.3-11.3l32-32
	c3.1-3.1,8.2-3.1,11.3,0l32,32L378.4,253.7z M374.9,194.2c-23.3,12.6-52.4,4-65.1-19.3s-4-52.4,19.3-65.1c7-3.8,14.9-5.8,22.9-5.8
	c11.9,0,23.4,4.5,32.2,12.5l10.2-10.2l11.3,11.3l-11.5,11.5C406.8,152.5,398.2,181.6,374.9,194.2z M432,48h-55l-3-4.5
	c-1.5-2.2-3.9-3.5-6.5-3.5h-18c-10.7-0.1-20-7.3-23-17.5c-5.2-16.9-23.2-26.3-40.1-21.1c-10.1,3.1-17.9,11-21.1,21.1
	c-3,10.3-12.3,17.4-23,17.5h-18c-2.6,0-5.1,1.3-6.5,3.5l-3,4.5h-55c-17.7,0-32,14.3-32,32h16c0-8.8,7.2-16,16-16h44.3l-5.3,8h194.1
	l-5.3-8H432c8.8,0,16,7.2,16,16v352c0,8.8-7.2,16-16,16H176v16h256c17.7,0,32-14.3,32-32V80C464,62.4,449.7,48,432,48z M304,32h-16
	V16h16V32z" id="id_101" style="fill: rgb(28, 46, 58);"></path>
</svg>