<svg xmlns="http://www.w3.org/2000/svg" xml:space="preserve" width="2.66666in" height="2.66666in" version="1.1" style="shape-rendering:geometricPrecision; text-rendering:geometricPrecision; image-rendering:optimizeQuality; fill-rule:evenodd; clip-rule:evenodd" viewBox="0 0 2667 2667" xmlns:xlink="http://www.w3.org/1999/xlink">
 <defs>
  <style type="text/css">
   
    .fil1 {fill:#D2A638}
    .fil0 {fill:#EEDDB3}
   
  </style>
 </defs>
 <rect class="fil0" width="2667" height="2667" rx="1333" ry="1333" id="id_105" style="fill: rgb(192, 214, 232);"></rect>
 <g id="Layer_x0020_1">
  <metadata id="CorelCorpID_0Corel-Layer"></metadata>
  <path class="fil1" d="M754 1288c-46,0 -84,-38 -84,-84 0,-75 90,-112 143,-60l247 -143c-13,-53 27,-105 82,-105 45,0 83,37 83,83l230 61c23,-39 73,-52 113,-30l271 -271c-31,-56 9,-125 74,-125 46,0 84,37 84,84 -1,64 -70,104 -126,73l-271 271c31,55 -9,125 -73,125 -46,0 -83,-37 -84,-83l-229 -61c-28,46 -92,55 -131,17l-248 143c14,53 -26,105 -81,105zm1410 865l-1661 0c-13,0 -23,-11 -23,-23l0 -130c0,-12 10,-23 23,-23l120 0 0 -459c0,-13 10,-23 22,-23l204 0c12,0 22,10 22,23l0 459 143 0 0 -764c0,-12 10,-23 22,-23l204 0c12,0 22,11 22,23l0 764 142 0 0 -571c0,-13 11,-23 23,-23l203 0c13,0 23,10 23,23l0 571 142 0 0 -1030c0,-12 10,-22 23,-22l203 0c13,0 23,10 23,22l0 1030 120 0c12,0 23,11 23,23l0 130c-1,12 -11,23 -23,23zm-1638 -46l1615 0 0 -84 -1615 0 0 84zm142 -130l158 0 0 -436 -158 0 0 436zm391 0l158 0 0 -741 -158 0 0 741zm391 0l158 0 0 -548 -158 0 0 548zm391 0l157 0 0 -1007 -157 0 0 1007zm-1055 -951c-122,0 -221,-99 -221,-220 0,-122 99,-221 221,-221 12,0 23,10 23,22l0 176 175 0c12,0 23,10 23,23 0,124 -102,220 -221,220zm-23 -394c-86,11 -152,85 -152,174 0,105 93,187 198,173 -6,-22 -46,-164 -46,-174l0 -173zm90 336c57,-24 99,-77 107,-140l-145 0 38 140zm202 -211l-198 0c-13,0 -23,-10 -23,-22l0 -198c0,-13 10,-23 23,-23 122,0 221,100 221,221 0,12 -10,22 -23,22zm-176 -45l152 0c-11,-78 -73,-141 -152,-151l0 151zm1034 -53c-51,0 -51,77 0,77 50,0 50,-77 0,-77zm-386 386c-51,0 -51,77 0,77 51,0 51,-77 0,-77zm-385 -104c-51,0 -51,77 0,77 50,0 50,-77 0,-77zm-388 224c-51,0 -51,77 0,77 51,0 51,-77 0,-77z" id="id_106" style="fill: rgb(28, 46, 58);"></path>
 </g>
</svg>