<svg version="1.1" id="Capa_1" xmlns="http://www.w3.org/2000/svg" xmlns:xlink="http://www.w3.org/1999/xlink" x="0px" y="0px" viewBox="0 0 480 480" style="enable-background:new 0 0 480 480;" xml:space="preserve">
<style type="text/css">
	.st0{fill:#00A1A3;}
</style>
<path class="st0" d="M104,220v56h16c3.8,0,7.1,2.6,7.8,6.4l2,9.6h6.1v-72H104z M344,84v126.6l32,4.6V84H344z M264,124v114l17.6-13.2
	c3.5-2.7,8.5-1.9,11.2,1.6l0,0l3.2,4.3V124H264z M184,188h32v104h-32V188z M166.2,396.2c1.7-1.2,3.7-2.1,5.8-2.5l0,0l19.9-4.2v-19
	l-19.9-4.2c-8.6-1.8-14.2-10.3-12.3-19c0.4-2.1,1.3-4,2.5-5.7l11.4-16.7l-14.5-14.5l-16.6,11.5c-7.3,5-17.2,3.2-22.3-4.1
	c-1.2-1.7-2-3.7-2.5-5.8l-4.2-20h-19l-4.2,19.9c-1.8,8.6-10.3,14.2-19,12.3c-2.1-0.4-4-1.3-5.7-2.5l-16.7-11.4l-14.5,14.5l11.4,16.7
	c5,7.3,3.2,17.2-4.1,22.3c-1.7,1.2-3.7,2.1-5.8,2.5L16,370.5v19l19.9,4.2c8.6,1.8,14.2,10.3,12.4,18.9c-0.4,2.1-1.3,4-2.5,5.8
	L34.4,435l14.5,14.5l16.7-11.4c7.3-5,17.2-3.2,22.3,4.1c1.2,1.7,2,3.7,2.5,5.8l4.2,19.9h19l4.2-19.9c1.8-8.6,10.3-14.2,19-12.4
	c2.1,0.4,4,1.3,5.8,2.5l16.6,11.4l14.5-14.5l-11.5-16.6C157.1,411.2,159,401.2,166.2,396.2z M104,412c-17.7,0-32-14.3-32-32
	s14.3-32,32-32s32,14.3,32,32S121.7,412,104,412z M441.9,345.8c-13.1-1.9-22.2-14-20.4-27.2c0.9-6.3,4.3-12,9.4-15.8l18.7-14.1
	l-19.2-25.6l-18.8,14.1c-10.6,7.9-25.6,5.8-33.6-4.8c-3.8-5.1-5.5-11.5-4.6-17.8l3.3-23.2l-31.7-4.5l-3.3,23.2
	c-1.9,13.1-14,22.2-27.1,20.4c-6.3-0.9-12-4.3-15.8-9.4l-14.1-18.7l-25.6,19.2l14.1,18.7c8,10.6,5.8,25.6-4.8,33.6
	c-5.1,3.8-11.5,5.5-17.8,4.6l-23.2-3.3l-4.5,31.7l23.2,3.3c13.1,1.9,22.2,14,20.4,27.2c-0.9,6.3-4.3,12-9.4,15.8l-18.7,14.1
	l19.2,25.6l18.8-14.1c10.6-7.9,25.6-5.8,33.6,4.8c3.8,5.1,5.5,11.5,4.6,17.8l-3.3,23.2l31.7,4.5l3.3-23.2
	c1.9-13.1,14-22.2,27.1-20.4c6.3,0.9,12,4.3,15.8,9.4l14.1,18.7l25.6-19.2l-14.1-18.7c-8-10.6-5.8-25.6,4.8-33.6
	c5.1-3.8,11.5-5.5,17.8-4.6l23.2,3.3l4.5-31.7L441.9,345.8z M344,396c-26.5,0-48-21.5-48-48s21.5-48,48-48s48,21.5,48,48
	S370.5,396,344,396z M184,460h16v16h-16V460z M216,460h16v16h-16V460z M248,460h16v16h-16V460z M0,4v288h78.1l2-9.6
	c0.8-3.7,4-6.4,7.8-6.4v-64c0-4.4,3.6-8,8-8h48c4.4,0,8,3.6,8,8v80h16V180c0-4.4,3.6-8,8-8h48c4.4,0,8,3.6,8,8v112h29.5
	c-0.2-0.7-0.6-1.4-1-2.1l-18.9-25.1c-2.7-3.5-1.9-8.5,1.6-11.2l4.8-3.6V116c0-4.4,3.6-8,8-8h48c4.4,0,8,3.6,8,8v135.9
	c2.8,3.4,7.8,3.8,11.2,1c1.5-1.3,2.5-3.1,2.8-5l2-14.1V76c0-4.4,3.6-8,8-8h48c4.4,0,8,3.6,8,8v143.6c1.4,1.7,2.1,4,1.8,6.2
	l-4.4,31.1c-0.6,4.4,2.4,8.4,6.8,9.1c2.1,0.3,4.2-0.2,5.9-1.5l25.1-18.9c3.5-2.7,8.5-1.9,11.2,1.6l25.6,34.1V292h16V4H0z M48,276H32
	v-56h16V276z M48,204H32v-16h16V204z M327.8,45.6L327.8,45.6l-8,40l-15.7-3.2l4.5-22.5L92,186.9l-8-13.8L297.8,47.7l-19.4-3.9
	l3.2-15.7l40,8C325.9,37,328.7,41.3,327.8,45.6z M448,228h-16V108h16V228z M448,92h-16V76h16V92z" id="id_101" style="fill: rgb(28, 46, 58);"></path>
</svg>