<svg version="1.1" id="Capa_1" xmlns="http://www.w3.org/2000/svg" xmlns:xlink="http://www.w3.org/1999/xlink" x="0px" y="0px" viewBox="0 0 480.2 480.2" style="enable-background:new 0 0 480.2 480.2;" xml:space="preserve">
<style type="text/css">
	.st0{fill:#EB3738;}
</style>
<path class="st0" d="M406,188.5c-21.4-11.9-45.5-18.1-70-18.1c-79.5,0-144,64.4-144,143.9c0,24.4,6.2,48.5,18.1,69.8l7.4-10.4
	c1.8-2.6,5-3.8,8.1-3.2l35.8,7.2l47.2-47.2c-2.9-4.9-4.5-10.4-4.6-16.1c0-17.7,14.3-32,32-32s32,14.3,32,32s-14.3,32-32,32
	c-5.7,0-11.3-1.6-16.2-4.5L272.6,389l7.2,35.7c0.6,3.1-0.6,6.2-3.2,8.1l-10.4,7.4c69.5,38.6,157.2,13.5,195.8-56
	S475.5,227.1,406,188.5z M308,362.9c26.8,15.5,61,6.3,76.5-20.5s6.3-61-20.5-76.5s-61-6.3-76.5,20.5c-10,17.3-10,38.7,0,56l-13.8,8
	c-19.9-34.4-8-78.5,26.4-98.3c34.4-19.9,78.5-8,98.3,26.4s8,78.5-26.4,98.3c-22.3,12.8-49.7,12.8-71.9,0L308,362.9z M379.1,417.7
	c-13.7,5.7-28.3,8.6-43.1,8.6c-14.8,0-29.4-2.9-43.1-8.6l6.2-14.8c48.9,20.4,105.1-2.8,125.4-51.7s-2.8-105.1-51.7-125.4
	s-105.1,2.8-125.4,51.7c-9.8,23.6-9.8,50.2,0,73.8l-14.8,6.2c-23.8-57.1,3.1-122.7,60.2-146.5s122.7,3.1,146.5,60.2
	S436.2,393.9,379.1,417.7z M336,298.4c-8.8,0-16,7.2-16,16c0,1.4,0.2,2.8,0.6,4.1l9.7-9.7l11.3,11.3l-9.7,9.7
	c1.3,0.4,2.7,0.6,4.1,0.6c8.8,0,16-7.2,16-16S344.8,298.4,336,298.4z M227.5,387.2l-30.7,43l9,3l41.9-41.9L227.5,387.2z
	 M259.1,402.6l-41.9,41.9l3,9l43-30.7L259.1,402.6z M114.7,162.4l4.7,56c0.2,0,0.4,0,0.6,0s0.4,0,0.6,0l4.7-56H114.7z M160,114.4
	c-8.8,0-16,7.2-16,16l-1.3,16H160c8.8,0,16-7.2,16-16S168.8,114.4,160,114.4z M222.6,97.4c-9.3-56.7-62.8-95.1-119.4-85.8
	C46.5,20.9,8.1,74.4,17.4,131c7.2,44.1,41.8,78.6,85.8,85.8l-4.6-54.5H80c-17.7,0-32-14.3-32-32s14.3-32,32-32s32,14.3,32,32l1.3,16
	h13.3l1.4-16.7c0.4-17.7,15-31.7,32.7-31.3s31.7,15,31.3,32.7c-0.4,17.4-14.6,31.3-32,31.3h-18.7l-4.5,54.5
	C193.5,207.6,231.9,154.1,222.6,97.4z M96,131c0.3-8.9-6.8-16.4-15.7-16.7c-0.1,0-0.2,0-0.3,0c-8.8,0-16,7.2-16,16s7.2,16,16,16
	h17.3L96,131z M88,229.9v12.5h64v-12.5C131.1,235.9,108.9,235.9,88,229.9z M88,250.4h64v24H88V250.4z M273.5,118.5
	c0.3-4.3,0.5-8.2,0.5-12.1c0.1-36-10.9-71.1-31.6-100.6L229.3,15c23.1,32.8,32.8,73.2,27.1,112.9c-0.4,2.6,0.6,5.3,2.6,7.1
	s4.8,2.4,7.4,1.7c47.1-12.4,97.3-5.8,139.6,18.4l8-13.9C371.5,116.8,321.5,108.7,273.5,118.5z M446.3,164.4l-10.6,12
	c5.8,5.1,11.2,10.5,16.3,16.3l12-10.6C458.5,175.8,452.5,169.9,446.3,164.4z M188.6,443.6c-21.1,9.7-44.1,14.8-67.3,14.8H24
	c-4.4,0-8-3.6-8-8s3.6-8,8-8h112c13.3,0,24-10.7,24-24s-10.7-24-24-24H24c-4.4,0-8-3.6-8-8s3.6-8,8-8h56c26.5,0,48-21.5,48-48v-26.2
	c4.9-2.8,8-8.1,8-13.8h8c4.4,0,8-3.6,8-8H88c0,4.4,3.6,8,8,8h8c0,5.7,3.1,10.9,8,13.8v26.2c0,17.7-14.3,32-32,32H24
	c-13.3,0-24,10.7-24,24s10.7,24,24,24h112c4.4,0,8,3.6,8,8s-3.6,8-8,8H24c-13.3,0-24,10.7-24,24s10.7,24,24,24h97.4
	c25.5,0,50.8-5.6,74-16.3L188.6,443.6z" id="id_102" style="fill: rgb(28, 46, 58);"></path>
</svg>