<svg enable-background="new 0 0 270.6 270.6" viewBox="0 0 270.6 270.6" xmlns="http://www.w3.org/2000/svg"><path d="m0 0h270.6v270.6h-270.6z" fill="#5eb4e7"/><path d="m205.2 92.1c-17.6-17.6-46.1-17.6-63.6 0-17.6 17.6-17.5 46.1 0 63.6 17.6 17.6 46.1 17.6 63.6 0 17.6-17.5 17.6-46 0-63.6zm-10 53.7c-12.1 12.1-31.6 12-43.7 0-12-12-12-31.6 0-43.6 12.1-12 31.6-12 43.7 0s12.1 31.5 0 43.6z" fill="#2e95d1"/><path d="m183.3 114c-5.5-5.5-14.4-5.5-19.8 0-5.5 5.5-5.5 14.4 0 19.8 5.5 5.5 14.4 5.5 19.9 0 5.4-5.4 5.4-14.3-.1-19.8z" fill="#fff"/><path d="m199.1 96.8-2.6-7.7 14.6-14.6 2.6 7.7z" fill="none"/><path d="m199.1 96.8 7.7 2.6 14.6-14.6-7.7-2.6z" fill="none"/><g fill="#282d33"><path d="m198.2 100.5-4-12 17.8-17.7 4 12zm.6-10.9 1.2 3.5 11.5-11.5-1.2-3.5z"/><path d="m207.4 101.7-12-4 17.8-17.8 12 4zm-4.6-5.7 3.5 1.2 11.5-11.5-3.5-1.2z"/><path d="m172.7 125.3c-.5 0-1-.2-1.4-.6-.8-.8-.8-2 0-2.8l43.3-43.3c.8-.8 2-.8 2.8 0s.8 2 0 2.8l-43.3 43.3c-.4.4-.9.6-1.4.6z"/><path d="m94.2 177.8c-1.1 0-2-.9-2-2 0-10.7 5.3-20.8 13.8-26.3.9-.6 2.2-.3 2.8.6s.3 2.2-.6 2.8c-7.4 4.8-12 13.6-12 23 0 1-.8 1.9-2 1.9z"/><path d="m162.7 177.8c-1.1 0-2-.9-2-2 0-9.4-4.6-18.2-12-23-.9-.6-1.2-1.8-.6-2.8.6-.9 1.8-1.2 2.8-.6 8.5 5.5 13.8 15.6 13.8 26.4 0 1.1-.9 2-2 2z"/><path d="m148.4 144.9c-.3 0-.7-.1-1-.3-1-.5-1.3-1.8-.8-2.7 4-7.2 6.2-15.6 6.4-24.2.4-24.1-14.6-44-33.6-44.3-1.3 0-2.7.1-4.1.3.1.6.2 1.3.3 2 .3 1.8.6 3.6.8 4.7l.3 1.1-22 22.6.3 5.7 6.2 5.5c2.6-2.9 8.9-8.5 19.6-9.9l3.8-.5-1.8 3.4c-7.2 13.8-11.2 24.8-12.6 34.6-.2 1.1-1.2 1.9-2.3 1.7s-1.9-1.2-1.7-2.3c1.3-9.4 4.9-19.7 11.2-32.2-9.7 2.5-14 8.9-14.2 9.2l-1.3 1.9-10.8-9.5-.4-9.1 21.6-22.3c-.2-1.2-.4-2.6-.7-3.9-.2-1.5-.5-2.9-.7-3.8l-.4-2 2-.4c2.5-.5 4.7-.7 6.9-.7 21.2.4 38.1 22.1 37.6 48.4-.2 9.3-2.6 18.3-6.9 26.1-.3.5-1 .9-1.7.9z"/><path d="m145.3 106.8c-5.1-14.2-16.7-23.2-30.9-23.9l.2-4c15.8.9 28.7 10.8 34.4 26.6z"/><path d="m123 107.8-3.6-1.8c1.4-2.8 3-5.7 4.7-8.8l3.5 1.9c-1.7 3-3.2 5.9-4.6 8.7z"/><path d="m150.9 153h-43.9c-2.4 0-4.3-1.9-4.3-4.3v-3.4c0-2.4 1.9-4.3 4.3-4.3h6.6v4h-6.6c-.2 0-.3.1-.3.3v3.4c0 .1.1.3.3.3h43.8c.1 0 .3-.1.3-.3v-3.4c0-.1-.1-.3-.3-.3h-14.6v-4h14.6c2.4 0 4.3 1.9 4.3 4.3v3.4c0 2.4-1.9 4.3-4.2 4.3z"/><path d="m163.3 186.5h-68.8c-2.4 0-4.3-1.9-4.3-4.3v-3.4c0-2.4 1.9-4.3 4.3-4.3h7.7v4h-7.7c-.1 0-.3.1-.3.3v3.4c0 .1.1.3.3.3h68.8c.1 0 .3-.1.3-.3v-3.4c0-.1-.1-.3-.3-.3h-21.8v-4h21.8c2.4 0 4.3 1.9 4.3 4.3v3.4c0 2.4-1.9 4.3-4.3 4.3z"/><path d="m126.8 174.5h10.2v4h-10.2z"/><path d="m128.2 141.1h4.5v4h-4.5z"/></g><path d="m65.6 149.4h4v28.9h-4z" fill="#fff" transform="matrix(.6147 .7888 -.7888 .6147 155.2486 9.7853)"/><path d="m88.6 160.9h22.4v4h-22.4z" fill="#fff" transform="matrix(.7812 .6243 -.6243 .7812 123.5695 -26.6736)"/><path d="m51 188.2c-5.8 0-10.5-4.7-10.5-10.5s4.7-10.5 10.5-10.5 10.5 4.7 10.5 10.5-4.7 10.5-10.5 10.5zm0-17c-3.6 0-6.5 2.9-6.5 6.5s2.9 6.5 6.5 6.5 6.5-2.9 6.5-6.5-2.9-6.5-6.5-6.5z" fill="#fff"/><path d="m85.1 160.4c-5.8 0-10.5-4.7-10.5-10.5s4.7-10.5 10.5-10.5 10.5 4.7 10.5 10.5-4.7 10.5-10.5 10.5zm0-17c-3.6 0-6.5 2.9-6.5 6.5s2.9 6.5 6.5 6.5 6.5-2.9 6.5-6.5-2.9-6.5-6.5-6.5z" fill="#fff"/><path d="m139.7 120.9h4v58.3h-4z" fill="#fff" transform="matrix(.6772 .7358 -.7358 .6772 156.124 -55.8143)"/><path d="m114.3 186.2c-5.8 0-10.5-4.7-10.5-10.5s4.7-10.5 10.5-10.5 10.5 4.7 10.5 10.5-4.7 10.5-10.5 10.5zm0-17c-3.6 0-6.5 2.9-6.5 6.5s2.9 6.5 6.5 6.5 6.5-2.9 6.5-6.5-2.9-6.5-6.5-6.5z" fill="#fff"/><path d="m202 178c-13.1 0-23.7-10.6-23.7-23.7s10.6-23.7 23.7-23.7 23.7 10.6 23.7 23.7-10.6 23.7-23.7 23.7zm0-43.4c-10.9 0-19.7 8.8-19.7 19.7s8.9 19.7 19.7 19.7c10.9 0 19.7-8.8 19.7-19.7s-8.8-19.7-19.7-19.7z" fill="#282d33"/><path d="m197.2 163-7.2-7.1 2.9-2.8 4.3 4.3 13.8-13.9 2.9 2.8z" fill="#282d33"/><path d="m169 74.2-.1-4 14.2-.3-.3-14.2 4-.1.4 18.2z" fill="#282d33"/><path d="m182 71.7c-1.6-1.9-3.4-3.7-5.2-5.5-29.4-28-76.4-26.6-104.8 3.2l-2.9-2.8c29.9-31.4 79.5-32.8 110.4-3.3 1.9 1.8 3.8 3.8 5.5 5.8z" fill="#282d33"/><path d="m47.4 162.4c-.5-1.3-.9-2.6-1.4-3.9l3.8-1.2c.4 1.2.8 2.5 1.3 3.7zm-2.5-7.8c-.4-1.3-.7-2.7-1-4l3.9-.9c.3 1.3.6 2.5 1 3.8zm-1.8-7.9c-.2-1.3-.5-2.7-.6-4l4-.5c.2 1.3.4 2.6.6 3.9zm-1.1-8.1c-.1-1.4-.2-2.7-.3-4.1l4-.2c.1 1.3.1 2.6.2 3.9zm3.7-8.2h-4c0-1.4 0-2.7.1-4.1l4 .2c-.1 1.3-.1 2.6-.1 3.9zm.4-7.8-4-.4c.1-1.3.3-2.7.5-4.1l4 .6c-.3 1.3-.4 2.6-.5 3.9zm1.1-7.7-3.9-.7c.3-1.3.5-2.7.9-4l3.8.8c-.3 1.3-.6 2.6-.8 3.9zm1.8-7.6-3.8-1.1c.4-1.3.8-2.6 1.2-3.9l3.8 1.3c-.5 1.2-.9 2.4-1.2 3.7z" fill="#282d33"/><path d="m75.4 91.8c0 10.7-8.6 19.3-19.3 19.3s-19.3-8.6-19.3-19.3 8.6-19.3 19.3-19.3c10.6 0 19.3 8.6 19.3 19.3z" fill="#2e95d1"/><path d="m63.8 84.1-15.4 15.4z" fill="#fff"/><path d="m54.1 80.9h4v21.8h-4z" fill="#282d33" transform="matrix(.7071 .7071 -.7071 .7071 81.3128 -12.7786)"/><path d="m48.4 84.1 15.4 15.4z" fill="#fff"/><path d="m45.2 89.8h21.8v4h-21.8z" fill="#282d33" transform="matrix(.7071 .7071 -.7071 .7071 81.3078 -12.7798)"/></svg>