<svg enable-background="new 0 0 32 32" viewBox="0 0 32 32" xmlns="http://www.w3.org/2000/svg"><path d="m30.272 14.668c-.634-6.828-6.113-12.308-12.939-12.942-.128-.619-.677-1.086-1.333-1.086-.662 0-1.213.475-1.334 1.103-4.1.38-7.791 2.464-10.224 5.773-.139-.048-.286-.08-.442-.08-.75 0-1.36.61-1.36 1.36 0 .394.171.746.439.995-.945 1.959-1.439 4.044-1.439 6.209 0 2.787.804 5.473 2.314 7.8-.193.235-.314.531-.314.858 0 .75.61 1.36 1.36 1.36.22 0 .424-.057.608-.15 2.71 2.852 6.474 4.492 10.392 4.492.199 0 .36-.161.36-.36v-8.694c.575-.159 1-.681 1-1.306s-.426-1.147-1-1.306v-15.389c.389-.107.707-.379.873-.74 3.674 1.077 6.407 6.742 6.407 13.435h.721c0-5.886-2.084-11.036-5.109-13.226 5.532 1.368 9.758 6.146 10.302 11.948-.53.186-.914.686-.914 1.279 0 .75.61 1.36 1.36 1.36s1.36-.61 1.36-1.36c0-.658-.468-1.207-1.088-1.333zm-15.632 5.332c0 .625.425 1.147 1 1.306v8.302c-3.763-.32-6.872-5.584-7.23-12.318.549-.175.95-.684.95-1.29 0-.607-.402-1.115-.951-1.29.327-6.155 2.951-11.144 6.358-12.145.166.36.485.633.873.74v15.389c-.575.159-1 .681-1 1.306zm-6.64-4.64c.353 0 .64.287.64.64s-.287.64-.64.64-.64-.287-.64-.64.287-.64.64-.64zm-4-7.204c.353 0 .64.287.64.64s-.287.64-.64.64-.64-.287-.64-.64.287-.64.64-.64zm.36 16.502c0-.353.287-.64.64-.64s.64.287.64.64-.287.64-.64.64-.64-.287-.64-.64zm1.784.729c.135-.211.216-.46.216-.729 0-.75-.61-1.36-1.36-1.36-.162 0-.315.033-.458.085-1.424-2.204-2.182-4.747-2.182-7.383 0-2.048.466-4.02 1.357-5.875.091.019.186.03.283.03.75 0 1.36-.61 1.36-1.36 0-.333-.125-.634-.324-.871 1.903-2.58 4.614-4.366 7.685-5.121-2.766 2.03-4.748 6.546-5.031 11.876-.601.141-1.05.678-1.05 1.321s.45 1.181 1.05 1.322c.288 5.408 2.325 9.924 5.105 11.926-2.516-.616-4.831-1.951-6.651-3.861zm10.496-5.387c0 .353-.287.64-.64.64s-.64-.287-.64-.64.287-.64.64-.64.64.287.64.64zm-.64-17.36c-.353 0-.64-.287-.64-.64s.287-.64.64-.64.64.287.64.64-.287.64-.64.64zm14 14c-.353 0-.64-.287-.64-.64s.287-.64.64-.64.64.287.64.64-.287.64-.64.64zm-11.36 11.72h2.721v-3.72h-2.721zm.72-3h1.279v2.279h-1.279zm3.28 3h2.721v-6.72h-2.721zm.72-6h1.279v5.279h-1.279zm3.28 6h2.721v-9.72h-2.721zm.72-9h1.279v8.279h-1.279z"/><path d="m0 0h32v32h-32z" fill="none"/></svg>