<svg enable-background="new 0 0 270.6 270.6" viewBox="0 0 270.6 270.6" xmlns="http://www.w3.org/2000/svg"><path d="m0 0h270.6v270.6h-270.6z" fill="#5eb4e7"/><path d="m80.7 85.8-12.6 12.5 10.2 12.1c-3.3 4.9-5.7 10.3-7 15.8l-16.3 1.4v17.8l15.8 1.3c1.1 5.6 3.2 11.1 6.2 16.1l-10.6 12.5 12.6 12.6 12.1-10.2c4.9 3.3 10.3 5.7 15.8 7l1.4 16.3h17.8l1.3-15.8c5.6-1.1 11.1-3.2 16.1-6.2l12.5 10.6 12.6-12.6-10.2-12.1c3.3-4.9 5.7-10.3 7-15.8l16.3-1.4v-17.8l-15.8-1.3c-1.1-5.6-3.2-11.1-6.2-16.1l10.6-12.5-12.6-12.6-12.1 10.2c-4.9-3.3-10.3-5.7-15.8-7l-1.4-16.3h-17.8l-1.3 15.8c-5.6 1.1-11.1 3.2-16.1 6.2zm51.6 37.8c7.7 7.7 7.7 20.2 0 27.9s-20.2 7.7-27.9 0-7.7-20.2 0-27.9c7.8-7.7 20.2-7.6 27.9 0z" fill="#2e95d1"/><g fill="#282d33"><path d="m184.7 175.7c-4.2 0-7.7-3.4-7.7-7.7 0-4.2 3.4-7.7 7.7-7.7s7.7 3.4 7.7 7.7-3.4 7.7-7.7 7.7zm0-11.3c-2 0-3.7 1.6-3.7 3.7 0 2 1.6 3.7 3.7 3.7s3.7-1.6 3.7-3.7-1.6-3.7-3.7-3.7z"/><path d="m182.7 155.8h4v5.4h-4z"/><path d="m182.7 174.9h4v5.4h-4z"/><path d="m173.7 161.2h5.4v4h-5.4z" transform="matrix(.866 .5 -.5 .866 105.2514 -66.3395)"/><path d="m190.3 170.8h5.4v4h-5.4z" transform="matrix(.866 .5 -.5 .866 112.2669 -73.355)"/><path d="m174.4 170.1h4v5.4h-4z" transform="matrix(.4999 .8661 -.8661 .4999 237.9075 -66.3684)"/><path d="m191 160.6h4v5.4h-4z" transform="matrix(.4999 .8661 -.8661 .4999 237.9082 -85.5376)"/></g><path d="m165.5 129.9-13.8-13.8-4.3 4.4-2.9-2.8 7.2-7.2 13.8 13.7 56.4-56.4 2.8 2.9z" fill="#fff"/><path d="m121.9 123h4v36.4h-4z" fill="#fff" transform="matrix(.7071 .7071 -.7071 .7071 136.1035 -46.2255)"/><path d="m225.3 86.9h-4v-15.7h-15.6v-4h19.6z" fill="#fff"/><path d="m209.9 128.7h-4v-15.6h-15.6v-4h19.6z" fill="#282d33"/><path d="m168.3 153.6-39.4-39.4-27.5 27.4-2.8-2.8 30.3-30.3 39.4 39.4 38.2-38.2 2.8 2.8z" fill="#282d33"/><path d="m74.8 82.4v-23.3c-12.7.8-22.8 10.6-23.9 23.3z" fill="#fff"/><path d="m54.4 109.3c-6.9-6.3-10.9-15.2-10.9-24.5 0-17.7 13.8-32.2 31.5-33l.2 4c-15.5.7-27.7 13.5-27.7 29 0 8.2 3.5 16 9.6 21.6z" fill="#282d33"/><path d="m76.4 117.8c-5.8 0-11.5-1.5-16.5-4.4l-2-1.1 20.8-27.2v-33.4l2.3.3c16.3 2.2 28.5 16.3 28.5 32.8 0 18.2-14.9 33-33.1 33zm-12.5-6.8c3.9 1.9 8.2 2.8 12.5 2.8 16 0 29.1-13 29.1-29.1 0-13.7-9.6-25.5-22.8-28.4v30.1z" fill="#282d33"/><path d="m72.2 86.3c-3.1 4-8.3 10.7-13.3 17.2-.2-.2-.4-.3-.6-.5-4.5-4.5-7.1-10.4-7.5-16.7z" fill="#2e95d1"/><path d="m118.4 159.3c-5.8 0-11.2-2.3-15.3-6.4s-6.4-9.6-6.4-15.4 2.3-11.3 6.4-15.4l2.8 2.8c-3.3 3.3-5.2 7.8-5.2 12.5s1.8 9.2 5.2 12.5c3.3 3.3 7.8 5.2 12.5 5.2 4.7 0 9.2-1.8 12.5-5.2l2.8 2.8c-4.1 4.3-9.5 6.6-15.3 6.6z" fill="#282d33"/><path d="m118.4 169.7c-8.6 0-16.6-3.3-22.7-9.4s-9.4-14.1-9.4-22.7h4c0 7.5 2.9 14.6 8.2 19.9s12.4 8.2 19.9 8.2z" fill="#fff"/></svg>