<svg enable-background="new 0 0 32 32" viewBox="0 0 32 32" xmlns="http://www.w3.org/2000/svg"><path d="m21 5.64v.72c3.11 0 5.64 3.24 5.64 7.223 0 1.929-.831 3.569-1.468 4.548l-.483-2.136-.703.159.742 3.277 3.269-.743-.16-.701-2.009.457c.68-1.067 1.534-2.81 1.534-4.861 0-2.69-1.079-5.067-2.721-6.505 3.515 1.44 6 4.894 6 8.922 0 5.315-4.324 9.64-9.64 9.64-1.543 0-2.997-.373-4.292-1.021 2.875-1.911 4.652-5.146 4.652-8.619 0-5.712-4.648-10.36-10.36-10.36s-10.361 4.648-10.361 10.36c0 5.713 4.647 10.36 10.36 10.36v-.72c-3.11 0-5.64-3.24-5.64-7.223 0-1.93.832-3.569 1.469-4.548l.483 2.136.702-.159-.742-3.278-3.268.743.159.702 2.009-.456c-.68 1.066-1.532 2.809-1.532 4.86 0 2.689 1.078 5.066 2.72 6.504-3.515-1.44-6-4.893-6-8.921 0-5.315 4.325-9.64 9.64-9.64 1.543 0 2.997.373 4.292 1.021-2.876 1.91-4.652 5.145-4.652 8.619 0 5.713 4.647 10.36 10.36 10.36s10.36-4.647 10.36-10.36c0-5.712-4.647-10.36-10.36-10.36zm-9.64 10.36c0-3.357 1.776-6.483 4.637-8.228 2.778 1.694 4.643 4.743 4.643 8.228 0 3.357-1.776 6.482-4.637 8.228-2.778-1.694-4.643-4.743-4.643-8.228z"/><path d="m0 0h32v32h-32z" fill="none"/></svg>