<svg enable-background="new 0 0 270.6 270.6" viewBox="0 0 270.6 270.6" xmlns="http://www.w3.org/2000/svg"><path d="m0 0h270.6v270.6h-270.6z" fill="#5eb4e7"/><path d="m105.2 148.8c-10.1 0-19.7-3.6-27.2-10.3l28.6-28.6h39.8c-.6 10.1-4.8 19.5-12 26.8-7.8 7.8-18.1 12.1-29.2 12.1z" fill="#2e95d1"/><path d="m107.9 103.7v-37.4c20.4 1.3 36.6 17 38.4 37.4z" fill="#2e95d1"/><path d="m239.5 63.9h-4v-13.3h-13.2v-4h17.2z" fill="#282d33"/><path d="m105.1 159.5c-12.7 0-25-4.6-34.4-13.1l2.7-3c8.8 7.8 20.1 12.1 31.8 12.1 26.4 0 47.9-21.5 47.9-47.9 0-25.6-20-46.6-45.6-47.8l.2-4c27.7 1.3 49.4 24.1 49.4 51.8-.1 28.6-23.4 51.9-52 51.9z" fill="#282d33"/><path d="m97.4 59.7v44.7l-31.3 32c-6.1-8.3-9.5-18.4-9.5-28.8 0-23.9 17.6-44.2 40.8-47.9zm4-4.5c-27.3 1.9-48.8 24.6-48.8 52.3 0 13.3 5 25.5 13.2 34.8l35.6-36.3z" fill="#282d33"/><path d="m67 127.4c-3.2-6.1-4.9-12.9-4.9-19.9 0-18.9 12.4-35.2 29.7-40.8v35.4z" fill="#fff"/><path d="m162.9 153.4h23.4v48.9h-23.4z" fill="#2e95d1" transform="matrix(.7071 -.7071 .7071 .7071 -74.6596 175.5544)"/><path d="m161.3 172.2h32.8v4h-32.8z" fill="#fff" transform="matrix(.7071 .7071 -.7071 .7071 175.2089 -74.6216)"/><path d="m149.9 170.8-10.1-10.1 17.6-17.6 10.1 10.1zm-4.4-10 4.4 4.4 12-12-4.4-4.4z" fill="#282d33"/><path d="m187.2 208.1-5.5-5.6 4.4-4.4 11.8-11.8 1.4-1.4 1.4 1.4 3.6 3.6.6.6v.8c0 9.3-7.5 16.8-16.8 16.8zm.1-5.5 1.5 1.5c6.4-.4 11.6-5.6 12-12-.5-.5-1-1-1.5-1.5-3.5 3.5-7 7-10.4 10.4z" fill="#282d33"/><path d="m137.9 151.7h9.8v4h-9.8z" fill="#282d33" transform="matrix(.7071 .7071 -.7071 .7071 150.5084 -55.9101)"/><path d="m142.1 142.3h13.1v4h-13.1z" fill="#282d33" transform="matrix(.707 .7072 -.7072 .707 145.5787 -62.8373)"/><path d="m73 148-2.9-2.8 89.6-89.9 34.2 34.2 41.9-42 2.8 2.9-44.7 44.7-34.2-34.1z" fill="#282d33"/><path d="m72.8 171.7h4v23h-4z" fill="#fff"/><path d="m62.1 180.1h4v14.4h-4z" fill="#282d33"/><path d="m51.5 186.9h4v7.7h-4z" fill="#282d33"/><path d="m72.8 198.6h4v4.3h-4z" fill="#282d33"/><path d="m62.1 198.6h4v4.3h-4z" fill="#282d33"/><path d="m51.5 198.6h4v4.3h-4z" fill="#282d33"/><path d="m104.8 165.4h4v29.2h-4z" fill="#fff"/><path d="m94.2 187.1h4v7.6h-4z" fill="#282d33"/><path d="m83.5 180.3h4v14.4h-4z" fill="#282d33"/><path d="m104.8 198.6h4v4.3h-4z" fill="#282d33"/><path d="m94.2 198.6h4v4.3h-4z" fill="#282d33"/><path d="m83.5 198.6h4v4.3h-4z" fill="#282d33"/><path d="m136.8 171.7h4v23h-4z" fill="#fff"/><g fill="#282d33"><path d="m126.2 178.4h4v15.9h-4z"/><path d="m115.5 170.9h4v23.7h-4z"/><path d="m136.8 198.6h4v4.3h-4z"/><path d="m126.2 198.6h4v4.3h-4z"/><path d="m115.5 198.6h4v4.3h-4z"/><path d="m51.3 163.3h14.7v4h-14.7z"/></g></svg>