<svg enable-background="new 0 0 270.6 270.6" viewBox="0 0 270.6 270.6" xmlns="http://www.w3.org/2000/svg"><path d="m0 0h270.6v270.6h-270.6z" fill="#5eb4e7"/><path d="m210.4 59.3v8h8.2l-50.6 49.8-14.1-12.1-20.9 22.9 5.9 5.5 15.5-17.4 13.9 11.9 55.1-54.1v6.5h8v-21z" fill="#fff"/><path d="m200.8 191.4c0 .6-.5 1.1-1.1 1.1h-67.8c-.6 0-1.1-.5-1.1-1.1v-92c0-.6.5-1.1 1.1-1.1h67.8c.6 0 1.1.5 1.1 1.1z" fill="#2e95d1"/><path d="m193.1 184.2h-54.7v-54.7h54.7zm-50.6-4h46.7v-46.7h-46.7z" fill="#282d33"/><path d="m140.4 108.6h50.8v14.1h-50.8z" fill="#fff"/><path d="m193.1 184.2h-54.7v-54.7h54.7zm-50.6-4h46.7v-46.7h-46.7z" fill="#282d33"/><path d="m163.9 131.6h4v50.4h-4z" fill="#282d33"/><path d="m140.7 154.8h50.4v4h-50.4z" fill="#282d33"/><path d="m146.3 142.3h13.1v4h-13.1z" fill="#282d33"/><path d="m150.8 137.8h4v13.1h-4z" fill="#282d33"/><path d="m172.1 142.3h13.1v4h-13.1z" fill="#282d33"/><path d="m146.3 167.9h13.1v4h-13.1z" fill="#282d33" transform="matrix(.7072 .707 -.707 .7072 164.8671 -58.3073)"/><path d="m150.8 163.3h4v13.1h-4z" fill="#282d33" transform="matrix(.7071 .7071 -.7071 .7071 164.8901 -58.3073)"/><path d="m172.1 170.8h13.1v4h-13.1z" fill="#fff"/><path d="m172.1 164.9h13.1v4h-13.1z" fill="#fff"/><path d="m103.9 154.1v7h8.4l-23.2 23.4-26.2-21.2-11.7 12.9 5.2 4.7 7.2-8 26 21 27.8-28v8.7h7v-20.5z" fill="#fff"/><g fill="#282d33"><path d="m115.3 206.1h4v5.9h-4z"/><path d="m128.7 206.1h4v5.9h-4z"/><path d="m142.2 206.1h4v5.9h-4z"/><path d="m155.6 206.1h4v5.9h-4z"/><path d="m169 206.1h4v5.9h-4z"/><path d="m182.4 206.1h4v5.9h-4z"/><path d="m195.8 206.1h4v5.9h-4z"/><path d="m119.3 94.2-2.8-2.9 13.5-13.6 6.4 4.2 36.2-37.5 2.9 2.8-38.5 39.9-6.5-4.2z"/><path d="m53.1 88.5h4v24.7h-4z" transform="matrix(.5438 .8392 -.8392 .5438 109.7374 -.2866)"/><path d="m91.2 120.2c-7.7 0-14.9-3-20.4-8.4-5.4-5.4-8.4-12.7-8.4-20.4s3-14.9 8.4-20.4c5.4-5.4 12.6-8.4 20.3-8.4h.1c7.7 0 14.9 3 20.3 8.4s8.4 12.7 8.4 20.4c0 7.7-3 14.9-8.4 20.4-5.4 5.4-12.6 8.4-20.3 8.4zm0-53.6c-.1 0-.1 0 0 0-6.7 0-12.9 2.6-17.5 7.3-4.7 4.7-7.2 10.9-7.2 17.5s2.6 12.9 7.3 17.5c4.7 4.7 10.9 7.3 17.6 7.3 6.6 0 12.8-2.6 17.5-7.3s7.3-10.9 7.3-17.5c0-6.6-2.6-12.9-7.3-17.5-4.9-4.7-11.1-7.3-17.7-7.3z"/><path d="m98.3 155.7h-14.3v-26.4h14.4v26.4zm-10.3-4h6.4v-18.4h-6.4z"/><path d="m87.9 129.3h-4v-7.1h14.5v7.1h-4v-3.1h-6.5z"/><path d="m89.6 117.2h4v5.7h-4z"/><path d="m84.7 103.6-13.5-5 1.4-3.7 11 4 16-17 12.3 7.8-2.1 3.4-9.6-6.1z"/><path d="m40.4 65.5h5.9v4h-5.9z"/><path d="m40.4 78.9h5.9v4h-5.9z"/><path d="m40.4 92.3h5.9v4h-5.9z"/><path d="m40.4 105.8h5.9v4h-5.9z"/><path d="m40.4 119.2h5.9v4h-5.9z"/><path d="m40.4 132.6h5.9v4h-5.9z"/><path d="m40.4 146h5.9v4h-5.9z"/><path d="m177.4 57.2h-4v-11h-11v-4h15z"/></g></svg>