<svg enable-background="new 0 0 32 32" viewBox="0 0 32 32" xmlns="http://www.w3.org/2000/svg"><path d="m27 18.64c-1.302 0-2.36 1.059-2.36 2.36s1.059 2.36 2.36 2.36 2.36-1.059 2.36-2.36-1.058-2.36-2.36-2.36zm0 4c-.904 0-1.64-.735-1.64-1.64s.735-1.64 1.64-1.64 1.64.735 1.64 1.64-.736 1.64-1.64 1.64zm-7-4c-1.302 0-2.36 1.059-2.36 2.36s1.059 2.36 2.36 2.36 2.36-1.059 2.36-2.36-1.058-2.36-2.36-2.36zm0 4c-.904 0-1.64-.735-1.64-1.64s.735-1.64 1.64-1.64 1.64.735 1.64 1.64-.736 1.64-1.64 1.64zm0 3c-1.302 0-2.36 1.059-2.36 2.36s1.059 2.36 2.36 2.36 2.36-1.059 2.36-2.36-1.058-2.36-2.36-2.36zm0 4c-.904 0-1.64-.735-1.64-1.64s.735-1.64 1.64-1.64 1.64.735 1.64 1.64-.736 1.64-1.64 1.64zm-7-6.28c1.301 0 2.36-1.059 2.36-2.36s-1.059-2.36-2.36-2.36-2.36 1.059-2.36 2.36 1.059 2.36 2.36 2.36zm0-4c.904 0 1.64.735 1.64 1.64s-.736 1.64-1.64 1.64-1.64-.735-1.64-1.64.736-1.64 1.64-1.64zm-2.254-13.614 1.745-1.746-1.746-1.746.509-.509 1.746 1.746 1.746-1.746.509.509-1.746 1.746 1.746 1.746-.509.509-1.746-1.746-1.746 1.746zm6.999 10 1.746-1.746-1.746-1.746.51-.509 1.745 1.746 1.745-1.745.51.509-1.746 1.745 1.746 1.746-.51.509-1.745-1.746-1.745 1.745zm9.255-5.255 1.745-1.745.51.509-1.746 1.745 1.746 1.746-.51.509-1.745-1.746-1.745 1.745-.51-.509 1.746-1.745-1.746-1.746.51-.509zm-17 17.149h6v.721h-6c-.054 0-5.36-.062-5.36-5.36v-17.133l-1.385 1.386-.51-.509 2.252-2.255 2.257 2.254-.509.51-1.385-1.384v17.13c0 4.587 4.451 4.64 4.64 4.64zm14.35-24.781.01 2.139c0 2.66-2.198 3.362-3.36 3.362h-4c-3.584 0-3.64 3.492-3.64 3.641v5h-.72v-5c0-.043.05-4.36 4.36-4.36h4c.106 0 2.64-.044 2.64-2.64l-.01-2.12-1.374 1.374-.51-.509 2.254-2.255 2.255 2.255-.51.509z"/><path d="m0 0h32v32h-32z" fill="none"/></svg>