<svg enable-background="new 0 0 270.6 270.6" viewBox="0 0 270.6 270.6" xmlns="http://www.w3.org/2000/svg"><path d="m0 0h270.6v270.6h-270.6z" fill="#5eb4e7"/><path d="m104.7 164.1c-11.7-11.7-18.2-27.4-18.2-44 0-15.2 5.4-29.5 15.3-40.9l12.7 12.7c-14.3 17.4-13.3 43.3 2.9 59.5s42.1 17.2 59.5 2.9l12.7 12.7c-11.3 9.9-25.7 15.3-40.9 15.3-16.6 0-32.2-6.5-44-18.2z" fill="#2e95d1"/><path d="m107.2 73.8c10.3-9.3 23.3-14.8 37.1-15.7v18c-9.1.9-17.6 4.5-24.5 10.4z" fill="#fff"/><path d="m195.1 164.5-15.5-15.5 1.2-1.4c14.3-16.7 13.3-41.9-2.2-57.4-7.3-7.3-16.5-11.5-26.8-12.3l-1.9-.1v-21.9l2.1.1c15.8.8 30.7 7.5 42 18.7 24.1 24.1 25.2 62.9 2.4 88.2zm-10.1-15.7 9.9 9.9c19.9-23.8 18.5-59-3.7-81.1-10-10-23.2-16.2-37.3-17.4v14c10.3 1.2 20 5.8 27.4 13.3 16.7 16.4 18.2 43.1 3.7 61.3z" fill="#282d33"/><path d="m79.8 120.1-5.6 11.3h-31.9l5.6-11.3z" fill="none"/><path d="m79.8 120.1-5.6-11.2h-31.9l5.6 11.2z" fill="none"/><g fill="#282d33"><path d="m39 133.4 7.6-15.3h36.4l-7.6 15.3zm10.1-11.3-3.6 7.3h27.4l3.6-7.3z"/><path d="m83 122.1h-36.4l-7.6-15.2h36.4zm-33.9-4h27.4l-3.6-7.3h-27.4z"/><path d="m151.2 122.1h-108c-1.1 0-2-.9-2-2s.9-2 2-2h108c1.1 0 2 .9 2 2s-.9 2-2 2z"/><path d="m97.6 161.7h15.4v4h-15.4z"/><path d="m97.6 170.3h15.4v4h-15.4z"/><path d="m99.7 178.9h13.3v4h-13.3z"/><path d="m108.1 187.5h4.8v4h-4.8z"/><path d="m117.1 153.1h15.4v4h-15.4z"/><path d="m117.1 161.7h15.4v4h-15.4z"/><path d="m117.1 170.3h15.4v4h-15.4z"/><path d="m117.1 178.9h15.4v4h-15.4z"/><path d="m117.1 187.5h15.4v4h-15.4z"/><path d="m117.1 144.6h15.4v4h-15.4z"/><path d="m137.1 153.1h15.4v4h-15.4z"/><path d="m137.1 161.7h15.4v4h-15.4z"/><path d="m137.1 170.3h15.4v4h-15.4z"/><path d="m137.1 178.9h15.4v4h-15.4z"/><path d="m137.1 187.5h15.4v4h-15.4z"/><path d="m137.1 127.4h15.4v4h-15.4z"/><path d="m137.1 136h15.4v4h-15.4z"/><path d="m137.1 144.6h15.4v4h-15.4z"/><path d="m77.7 178.9h14.4v4h-14.4z"/><path d="m77.7 187.5h7.4v4h-7.4z"/><path d="m95.7 205.7c-7.5 0-13.7-6.1-13.7-13.7 0-7.5 6.1-13.7 13.7-13.7 7.5 0 13.7 6.1 13.7 13.7s-6.2 13.7-13.7 13.7zm0-23.3c-5.3 0-9.7 4.3-9.7 9.7 0 5.3 4.3 9.7 9.7 9.7 5.3 0 9.7-4.3 9.7-9.7 0-5.3-4.4-9.7-9.7-9.7z"/><path d="m93.7 186.7h4v10.8h-4z"/></g></svg>