<svg enable-background="new 0 0 128 128" height="128" viewBox="0 0 128 128" width="128" xmlns="http://www.w3.org/2000/svg"><g fill="#282d33"><path d="m46.776 72.1c-.001 0 0 0 0 0h-.016c-16.033 0-29.079-13.241-29.092-29.517.012-16.269 13.06-29.501 29.086-29.501 16.039.016 29.088 13.256 29.09 29.515-.002 16.267-13.043 29.503-29.068 29.503zm-.024-55.019c-13.82 0-25.074 11.44-25.084 25.501.011 14.069 11.263 25.518 25.082 25.518h.025c13.821 0 25.066-11.44 25.068-25.504-.001-14.055-11.257-25.501-25.091-25.515z"/><path d="m46.764 57.097h-.001-.004c-7.885 0-14.307-6.508-14.314-14.506.005-7.996 6.425-14.499 14.312-14.499 4.706.005 9.11 2.352 11.784 6.279 1.651 2.421 2.525 5.265 2.527 8.225-.003 7.997-6.419 14.501-14.304 14.501zm-.009-25.005c-5.681 0-10.306 4.709-10.31 10.499.005 5.792 4.632 10.507 10.314 10.507h.004c5.68 0 10.303-4.71 10.305-10.5-.001-2.151-.635-4.218-1.833-5.974-1.93-2.835-5.1-4.529-8.48-4.532z"/><path d="m117.246 42.562-3.588-1.767 3.227-6.554-14.166.003-4.094 8.315-3.588-1.767 5.192-10.547 23.084-.005z"/><path d="m123.311 53.11h-23.081l-5.193-10.551 3.588-1.767 4.094 8.318h14.164l-3.225-6.548 3.588-1.768z"/><path d="m119.365 43.75h-71.714c-1.104 0-2-.896-2-2s.896-2 2-2h71.714c1.105 0 2 .896 2 2s-.894 2-2 2z"/><path d="m68.93 96.732h-44.568l-.124-1.868c-.232-3.511-.964-8.312-3.134-11.249-15.969-20.87-16.416-40.799-16.416-40.994 0-23.501 18.84-42.621 41.997-42.621 11.228 0 21.78 4.436 29.711 12.491 7.926 8.047 12.289 18.747 12.289 30.129 0 .195-.447 20.102-16.445 41.021-2.158 2.915-2.92 7.722-3.176 11.237zm-40.862-4h37.178c.555-4.978 1.83-8.839 3.799-11.497 15.215-19.897 15.641-38.433 15.641-38.615 0-10.325-3.955-20.028-11.139-27.322-7.174-7.286-16.714-11.298-26.862-11.298-20.952 0-37.997 17.325-37.997 38.621 0 .182.425 18.74 15.613 38.59 2.361 3.195 3.359 7.743 3.767 11.521z"/><path d="m20.68 93.213h52.015v4h-52.015z"/><path d="m20.68 103.477h52.015v4h-52.015z"/><path d="m20.68 113.736h52.015v4h-52.015z"/><path d="m27.751 124h37.87v4h-37.87z"/><path d="m24.716 95.758h4v19.501h-4z"/></g></svg>