<svg xmlns="http://www.w3.org/2000/svg" xml:space="preserve" width="1.70666in" height="1.70666in" version="1.1" style="shape-rendering:geometricPrecision; text-rendering:geometricPrecision; image-rendering:optimizeQuality; fill-rule:evenodd; clip-rule:evenodd" viewBox="0 0 1706.66 1706.66" xmlns:xlink="http://www.w3.org/1999/xlink" xmlns:xodm="http://www.corel.com/coreldraw/odm/2003">
 <defs>
  <style type="text/css">
   
    .fil0 {fill:black}
   
  </style>
 </defs>
 <g id="Layer_x0020_1">
  <metadata id="CorelCorpID_0Corel-Layer"></metadata>
  <path class="fil0" d="M980.53 835.78l-254.41 0c-34.91,0 -63.31,-28.4 -63.31,-63.3 0,-258.83 -119.09,-209.75 -119.09,-403.28 0,-170.72 138.89,-309.61 309.61,-309.61 170.72,0 309.61,138.89 309.61,309.61 0,193.46 -119.06,144.42 -119.08,403.28 -0.01,34.9 -28.41,63.3 -63.33,63.3zm-127.2 -736.19c-148.67,0 -269.61,120.94 -269.61,269.61 0,175.29 119.1,132.2 119.1,403.28 0,12.85 10.44,23.31 23.31,23.31l254.41 -0.01c12.86,0 23.31,-10.45 23.31,-23.3 0,-271.07 119.08,-227.97 119.08,-403.28 0,-148.66 -120.94,-269.6 -269.59,-269.6z" id="id_113" style="fill: rgb(40, 64, 82);"></path>
  <path class="fil0" d="M1000.81 896.67l-297.66 0c-26.33,0 -26.33,-40 0,-40l297.68 0c26.33,0 26.33,40 -0.02,40z" id="id_114" style="fill: rgb(28, 46, 58);"></path>
  <path class="fil0" d="M917.26 835.78c-10.64,0 -19.49,-8.37 -19.98,-19.11l-10.82 -243.59c-0.26,-5.79 2.02,-11.4 6.2,-15.39l108.26 -102.85c19.11,-18.15 46.63,10.87 27.56,29l-101.65 96.57 10.41 234.48c0.5,11.34 -8.59,20.89 -19.98,20.89z" id="id_115" style="fill: rgb(28, 46, 58);"></path>
  <path class="fil0" d="M789.39 835.78c-11.38,0 -20.5,-9.5 -20,-20.87l10.41 -234.49 -101.65 -96.56c-19.09,-18.13 8.45,-47.15 27.56,-29l108.26 102.84c4.19,3.98 6.46,9.6 6.21,15.39l-10.83 243.59c-0.46,10.72 -9.31,19.1 -19.95,19.1z" id="id_116" style="fill: rgb(28, 46, 58);"></path>
  <path class="fil0" d="M966.35 953.83l-228.75 0c-26.33,0 -26.33,-40 0,-40l228.75 0c26.33,0 26.33,40 0,40z" id="id_117" style="fill: rgb(28, 46, 58);"></path>
  <path class="fil0" d="M935.89 1011.02l-167.84 0c-26.32,0 -26.32,-40 0,-40l167.84 0c26.32,0 26.33,40 0,40z" id="id_118" style="fill: rgb(28, 46, 58);"></path>
  <path class="fil0" d="M242.7 1647.07c-133.83,0 -242.71,-108.87 -242.71,-242.7 0,-133.83 108.88,-242.72 242.71,-242.72 133.83,0 242.7,108.89 242.7,242.72 0,133.83 -108.87,242.7 -242.7,242.7zm0 -445.4c-111.76,0 -202.71,90.93 -202.71,202.71 0,111.76 90.93,202.69 202.71,202.69 111.78,0 202.7,-90.93 202.7,-202.69 0,-111.78 -90.93,-202.71 -202.7,-202.71z" id="id_119" style="fill: rgb(28, 46, 58);"></path>
  <path class="fil0" d="M242.7 1647.07c-71.43,0 -138.93,-31.29 -185.18,-85.85 -6.33,-7.47 -6.33,-18.4 0,-25.87 97.03,-114.41 273.34,-114.4 370.36,0 6.34,7.47 6.34,18.41 0,25.87 -46.24,54.56 -113.74,85.85 -185.18,85.85zm-142.72 -98.78c78.99,78.31 206.48,78.33 285.44,0 -78.98,-78.33 -206.46,-78.35 -285.44,0z" id="id_120" style="fill: rgb(28, 46, 58);"></path>
  <path class="fil0" d="M242.7 1394.64c-99.99,0 -99.99,-151.95 0,-151.95 99.99,0 99.99,151.95 0,151.95zm0 -111.93c-47.34,0 -47.35,71.92 0,71.92 47.35,0 47.34,-71.92 0,-71.92z" id="id_121" style="fill: rgb(28, 46, 58);"></path>
  <path class="fil0" d="M853.32 1647.07c-133.83,0 -242.7,-108.87 -242.7,-242.7 0,-133.83 108.87,-242.7 242.7,-242.7 133.83,0 242.72,108.89 242.72,242.72 0,133.83 -108.89,242.69 -242.72,242.69zm0 -445.4c-111.76,0 -202.71,90.93 -202.71,202.71 0,111.76 90.93,202.69 202.71,202.69 111.78,0 202.71,-90.93 202.71,-202.69 0,-111.78 -90.93,-202.71 -202.71,-202.71z" id="id_122" style="fill: rgb(28, 46, 58);"></path>
  <path class="fil0" d="M853.32 1647.07c-71.43,0 -138.93,-31.29 -185.18,-85.85 -6.33,-7.47 -6.33,-18.4 0,-25.87 97.12,-114.51 273.53,-114.32 370.38,0 6.32,7.47 6.32,18.41 0,25.87 -46.27,54.56 -113.76,85.85 -185.2,85.85zm-142.72 -98.78c78.99,78.32 206.46,78.33 285.43,0 -78.99,-78.34 -206.45,-78.35 -285.43,0z" id="id_123" style="fill: rgb(28, 46, 58);"></path>
  <path class="fil0" d="M853.32 1394.64c-99.98,0 -99.96,-151.95 0,-151.95 100,0 100,151.95 0,151.95zm0 -111.93c-47.33,0 -47.32,71.92 0,71.92 47.35,0 47.35,-71.92 0,-71.92z" id="id_124" style="fill: rgb(28, 46, 58);"></path>
  <path class="fil0" d="M1463.94 1647.07c-133.83,0 -242.7,-108.87 -242.7,-242.7 0,-133.83 108.87,-242.72 242.7,-242.72 133.83,0 242.72,108.89 242.72,242.72 0,133.83 -108.89,242.7 -242.72,242.7zm0 -445.4c-111.76,0 -202.69,90.93 -202.69,202.71 0,111.76 90.93,202.69 202.69,202.69 111.78,0 202.71,-90.93 202.71,-202.69 0,-111.78 -90.93,-202.71 -202.71,-202.71z" id="id_125" style="fill: rgb(28, 46, 58);"></path>
  <path class="fil0" d="M1463.94 1647.07c-71.43,0 -138.93,-31.29 -185.19,-85.85 -6.32,-7.47 -6.32,-18.4 0,-25.87 96.91,-114.4 273.49,-114.39 370.4,0 6.32,7.47 6.32,18.41 0,25.87 -46.26,54.56 -113.77,85.85 -185.2,85.85zm-142.72 -98.78c78.97,78.3 206.46,78.33 285.43,0 -78.98,-78.33 -206.44,-78.35 -285.43,0z" id="id_126" style="fill: rgb(28, 46, 58);"></path>
  <path class="fil0" d="M1463.94 1394.64c-99.99,0 -99.99,-151.95 0,-151.95 100.01,0 100,151.95 0,151.95zm0 -111.93c-47.33,0 -47.33,71.92 0,71.92 47.35,0 47.35,-71.92 0,-71.92z" id="id_127" style="fill: rgb(28, 46, 58);"></path>
  <path class="fil0" d="M1463.94 1201.67c-11.04,0 -20,-8.97 -20,-20l0 -440.85 -268.02 0c-26.33,0 -26.32,-40 0,-40l288.02 0c11.04,0 20,8.96 20,20l0 460.85c0,11.04 -8.96,20 -20,20zm-1221.24 0c-11.04,0 -20,-8.97 -20,-20l0 -460.85c0,-11.04 8.96,-20 20,-20l288.04 0c26.33,0 26.33,40 0,40l-268.04 0 0 440.85c0,11.04 -8.94,20 -20,20z" id="id_128" style="fill: rgb(28, 46, 58);"></path>
  <path class="fil0" d="M853.32 1201.67c-11.04,0 -20,-8.97 -20,-20l0 -190.66c0,-26.33 40,-26.32 40,0l0 190.66c0,11.04 -8.96,20 -20,20z" id="id_129" style="fill: rgb(28, 46, 58);"></path>
 </g>
</svg>