<svg xmlns="http://www.w3.org/2000/svg" xml:space="preserve" width="1.70666in" height="1.70666in" version="1.1" style="shape-rendering:geometricPrecision; text-rendering:geometricPrecision; image-rendering:optimizeQuality; fill-rule:evenodd; clip-rule:evenodd" viewBox="0 0 1706.66 1706.66" xmlns:xlink="http://www.w3.org/1999/xlink" xmlns:xodm="http://www.corel.com/coreldraw/odm/2003">
 <defs>
  <style type="text/css">
   
    .fil0 {fill:black}
   
  </style>
 </defs>
 <g id="Layer_x0020_1">
  <metadata id="CorelCorpID_0Corel-Layer"></metadata>
  <path class="fil0" d="M853.32 1336.88c-5.12,0 -10.24,-1.96 -14.14,-5.86l-184.07 -184.07 -260.31 0.01c-11.04,0 -20,-8.97 -20,-20l0 -260.31 -184.06 -184.07c-7.82,-7.81 -7.82,-20.47 0,-28.28l184.06 -184.07 0 -260.3c0,-11.04 8.96,-20 20,-20l260.3 0 184.07 -184.07c7.82,-7.82 20.47,-7.82 28.3,0l184.07 184.07 260.31 0c11.04,0 20,8.96 20,20l0 260.3 184.06 184.07c7.82,7.81 7.82,20.47 0,28.28l-184.06 184.07 0 260.3c0,11.04 -8.97,20 -20,20l-260.32 0.01 -184.07 184.06c-3.91,3.92 -9.02,5.86 -14.14,5.86zm-438.51 -229.92l248.58 0c5.31,0 10.39,2.11 14.13,5.86l175.8 175.78 175.78 -175.79c3.76,-3.75 8.84,-5.87 14.15,-5.87l248.58 0.01 0 -248.59c0,-5.31 2.11,-10.39 5.86,-14.14l175.79 -175.79 -175.79 -175.79c-3.75,-3.75 -5.86,-8.83 -5.86,-14.14l0 -248.58 -248.58 0c-5.31,0 -10.39,-2.11 -14.15,-5.87l-175.78 -175.77 -175.79 175.77c-3.75,3.75 -8.83,5.87 -14.14,5.87l-248.59 0 0 248.58c0,5.31 -2.11,10.39 -5.86,14.14l-175.77 175.79 175.78 175.79c3.75,3.75 5.87,8.83 5.87,14.14l-0.01 248.59z" id="id_101" style="fill: rgb(28, 46, 58);"></path>
  <path class="fil0" d="M853.32 1071.11c-222.01,0 -402.65,-180.64 -402.65,-402.66 0,-222.01 180.62,-402.65 402.65,-402.65 222.02,0 402.65,180.62 402.65,402.65 0,222.02 -180.63,402.66 -402.65,402.66zm0 -765.31c-199.96,0 -362.65,162.68 -362.65,362.65 0,199.97 162.68,362.65 362.65,362.65 199.97,0 362.64,-162.68 362.64,-362.65 0,-199.95 -162.68,-362.65 -362.64,-362.65z" id="id_102" style="fill: rgb(28, 46, 58);"></path>
  <path class="fil0" d="M979.78 883.04c-9.81,0 -109.52,-49.17 -126.46,-57.09l-117.97 55.2c-14.17,6.61 -30.25,-5.09 -28.33,-20.59l16.04 -129.25 -88.96 -95.15c-10.72,-11.47 -4.59,-30.33 10.81,-33.29l127.9 -24.67 63 -114.01c7.59,-13.76 27.41,-13.75 35.02,0l62.98 114.01 127.89 24.67c15.4,2.98 21.55,21.83 10.83,33.29l-88.96 95.15 16.06 129.25c1.48,12 -7.95,22.48 -19.85,22.48zm-291.73 -247.74l70.64 75.54c4.06,4.33 5.97,10.24 5.23,16.13l-12.73 102.62 93.67 -43.83c5.38,-2.52 11.59,-2.52 16.96,0l93.68 43.83 -12.75 -102.61c-0.74,-5.89 1.18,-11.79 5.23,-16.13l70.63 -75.54 -101.54 -19.59c-5.83,-1.13 -10.84,-4.78 -13.72,-9.98l-50.02 -90.53 -50.02 90.53c-2.88,5.2 -7.89,8.85 -13.7,9.98l-101.56 19.58z" id="id_103" style="fill: rgb(28, 46, 58);"></path>
  <path class="fil0" d="M1077.19 1706.66c-4.82,0 -9.55,-1.74 -13.29,-5.07l-210.58 -187.41 -210.58 187.41c-12.84,11.44 -33.3,2.27 -33.3,-14.93l0 -559.7c0,-26.33 40,-26.32 40,0l0 515.13 190.58 -169.63c7.59,-6.75 19.03,-6.75 26.6,0l190.58 169.63 0 -515.13c0,-26.33 40,-26.32 40,0l0 559.7c0,11.13 -9.07,20 -20,20z" id="id_104" style="fill: rgb(28, 46, 58);"></path>
 </g>
</svg>