<svg id="Capa_1" data-name="Capa 1" xmlns="http://www.w3.org/2000/svg" viewBox="0 0 173.81 149.8"><defs><style>.cls-1{fill:#f8eedb;}.cls-2,.cls-3{fill:#1c2e3a;}.cls-2{opacity:0.28;}.cls-4{fill:none;}</style></defs><path class="cls-1" d="M104.7,164.1a62.3,62.3,0,0,1-2.9-84.9l12.7,12.7a44.33,44.33,0,0,0,62.4,62.4L189.6,167a62.3,62.3,0,0,1-84.9-2.9Z" transform="translate(-39 -55.9)"/><path class="cls-2" d="M107.2,73.8a61.15,61.15,0,0,1,37.1-15.7v18a44.26,44.26,0,0,0-24.5,10.4Z" transform="translate(-39 -55.9)"/><path class="cls-3" d="M195.1,164.5,179.6,149l1.2-1.4a42.47,42.47,0,0,0-2.2-57.4,41.83,41.83,0,0,0-26.8-12.3l-1.9-.1V55.9l2.1.1a64.16,64.16,0,0,1,44.4,106.9ZM185,148.8l9.9,9.9a60.21,60.21,0,0,0-41-98.5v14A46.36,46.36,0,0,1,185,148.8Z" transform="translate(-39 -55.9)"/><path class="cls-4" d="M79.8,120.1l-5.6,11.3H42.3l5.6-11.3Z" transform="translate(-39 -55.9)"/><path class="cls-4" d="M79.8,120.1l-5.6-11.2H42.3l5.6,11.2Z" transform="translate(-39 -55.9)"/><path class="cls-3" d="M39,133.4l7.6-15.3H83l-7.6,15.3Zm10.1-11.3-3.6,7.3H72.9l3.6-7.3Z" transform="translate(-39 -55.9)"/><path class="cls-3" d="M83,122.1H46.6L39,106.9H75.4Zm-33.9-4H76.5l-3.6-7.3H45.5Z" transform="translate(-39 -55.9)"/><path class="cls-3" d="M151.2,122.1H43.2a2,2,0,0,1,0-4h108a2,2,0,0,1,0,4Z" transform="translate(-39 -55.9)"/><path class="cls-3" d="M97.6,161.7H113v4H97.6Z" transform="translate(-39 -55.9)"/><path class="cls-3" d="M97.6,170.3H113v4H97.6Z" transform="translate(-39 -55.9)"/><path class="cls-3" d="M99.7,178.9H113v4H99.7Z" transform="translate(-39 -55.9)"/><path class="cls-3" d="M108.1,187.5h4.8v4h-4.8Z" transform="translate(-39 -55.9)"/><path class="cls-3" d="M117.1,153.1h15.4v4H117.1Z" transform="translate(-39 -55.9)"/><path class="cls-3" d="M117.1,161.7h15.4v4H117.1Z" transform="translate(-39 -55.9)"/><path class="cls-3" d="M117.1,170.3h15.4v4H117.1Z" transform="translate(-39 -55.9)"/><path class="cls-3" d="M117.1,178.9h15.4v4H117.1Z" transform="translate(-39 -55.9)"/><path class="cls-3" d="M117.1,187.5h15.4v4H117.1Z" transform="translate(-39 -55.9)"/><path class="cls-3" d="M117.1,144.6h15.4v4H117.1Z" transform="translate(-39 -55.9)"/><path class="cls-3" d="M137.1,153.1h15.4v4H137.1Z" transform="translate(-39 -55.9)"/><path class="cls-3" d="M137.1,161.7h15.4v4H137.1Z" transform="translate(-39 -55.9)"/><path class="cls-3" d="M137.1,170.3h15.4v4H137.1Z" transform="translate(-39 -55.9)"/><path class="cls-3" d="M137.1,178.9h15.4v4H137.1Z" transform="translate(-39 -55.9)"/><path class="cls-3" d="M137.1,187.5h15.4v4H137.1Z" transform="translate(-39 -55.9)"/><path class="cls-3" d="M137.1,127.4h15.4v4H137.1Z" transform="translate(-39 -55.9)"/><path class="cls-3" d="M137.1,136h15.4v4H137.1Z" transform="translate(-39 -55.9)"/><path class="cls-3" d="M137.1,144.6h15.4v4H137.1Z" transform="translate(-39 -55.9)"/><path class="cls-3" d="M77.7,178.9H92.1v4H77.7Z" transform="translate(-39 -55.9)"/><path class="cls-3" d="M77.7,187.5h7.4v4H77.7Z" transform="translate(-39 -55.9)"/><path class="cls-3" d="M95.7,205.7A13.7,13.7,0,1,1,109.4,192,13.72,13.72,0,0,1,95.7,205.7Zm0-23.3a9.7,9.7,0,1,0,9.7,9.7A9.71,9.71,0,0,0,95.7,182.4Z" transform="translate(-39 -55.9)"/><path class="cls-3" d="M93.7,186.7h4v10.8h-4Z" transform="translate(-39 -55.9)"/></svg>