<svg xmlns="http://www.w3.org/2000/svg" viewBox="0 0 238.44 233"><defs><style>.cls-1,.cls-2{fill:none;}.cls-2{stroke:#1c2e3a;stroke-linecap:round;stroke-linejoin:round;stroke-width:5px;}</style></defs><g id="Capa_2" data-name="Capa 2"><g id="Capa_1-2" data-name="Capa 1"><rect class="cls-1" width="238.44" height="233"/><line class="cls-2" x1="20.69" y1="122.88" x2="48.62" y2="122.88"/><line class="cls-2" x1="120.03" y1="43.46" x2="217.75" y2="43.46"/><path class="cls-2" d="M114.24,160.3,107.49,167c-4.76,4.76-5.67,12.53-1.41,17.74a12.88,12.88,0,0,0,19.1,1l54-54a30.32,30.32,0,0,1,21.45-8.88h17.11"/><path class="cls-2" d="M88.28,113.43,70.81,130.9a13.09,13.09,0,0,1-18.13.54,12.87,12.87,0,0,1-.32-18.51L86.45,78.85"/><path class="cls-2" d="M52.34,113,86.45,78.85A20.13,20.13,0,0,1,100.77,73l20.87.13,13.28,13.28a25.77,25.77,0,0,0,29.22,5.08A6.5,6.5,0,0,0,165.94,81L134.38,49.41A20.28,20.28,0,0,0,120,43.46H20.69"/><path class="cls-2" d="M107.49,130.64l-18.71,18.7a12.87,12.87,0,1,1-18.2-18.21l18.7-18.7"/><path class="cls-2" d="M125.69,148.84,107,167.55a12.88,12.88,0,0,1-18.21-18.21l14.4-14.4"/><path class="cls-2" d="M156.43,167c4.76,4.76,5.68,12.53,1.41,17.74a12.88,12.88,0,0,1-19.1,1"/><path class="cls-2" d="M175.14,149.34a12.88,12.88,0,1,0,18.21-18.21"/><path class="cls-2" d="M156.94,167.55a12.87,12.87,0,0,0,18.2-18.21"/></g></g></svg>