<svg xmlns="http://www.w3.org/2000/svg" viewBox="0 0 167.78 17.07"><defs><style>.cls-1{fill:#1c2e3a;}</style></defs><g id="Capa_2" data-name="Capa 2"><g id="Capa_1-2" data-name="Capa 1"><path class="cls-1" d="M27.66,2.07a.83.83,0,0,1,.59.22.86.86,0,0,1,.24.68.88.88,0,0,1-.24.68.87.87,0,0,1-1.18,0A.88.88,0,0,1,26.83,3a.86.86,0,0,1,.24-.68A.83.83,0,0,1,27.66,2.07Zm.68,3.4v9.1H27V5.47Z" transform="translate(0 -1.56)"/><path class="cls-1" d="M35.56,5.3A3.42,3.42,0,0,1,38,6.1a3.39,3.39,0,0,1,.83,2.54v5.93H37.48V8.73A2.47,2.47,0,0,0,37,7a2.05,2.05,0,0,0-1.59-.56,2.45,2.45,0,0,0-2.13.85,4.22,4.22,0,0,0-.61,2.48v4.77H31.25V5.47h1.11l.21,1.31h.07A2.87,2.87,0,0,1,33.38,6a3.53,3.53,0,0,1,1-.5A4.09,4.09,0,0,1,35.56,5.3Z" transform="translate(0 -1.56)"/><path class="cls-1" d="M45.73,6.55H43.46v8H42.08v-8H40.47V5.89l1.61-.46V4.82A4.48,4.48,0,0,1,42.42,3a2.27,2.27,0,0,1,1-1.06A3.32,3.32,0,0,1,45,1.56a4.75,4.75,0,0,1,1,.09,5.45,5.45,0,0,1,.76.21L46.36,3a6.48,6.48,0,0,0-.64-.17A2.84,2.84,0,0,0,45,2.7a1.35,1.35,0,0,0-1.16.51,2.71,2.71,0,0,0-.38,1.6v.66h2.27Z" transform="translate(0 -1.56)"/><path class="cls-1" d="M55.24,10A6.43,6.43,0,0,1,55,12a4.16,4.16,0,0,1-.84,1.49,3.7,3.7,0,0,1-1.32.92,4.49,4.49,0,0,1-1.76.32,4.11,4.11,0,0,1-1.67-.32,3.58,3.58,0,0,1-1.31-.92A4.2,4.2,0,0,1,47.19,12a6.14,6.14,0,0,1-.3-2,5.78,5.78,0,0,1,.51-2.54,3.57,3.57,0,0,1,1.44-1.6,4.37,4.37,0,0,1,2.25-.56,4.18,4.18,0,0,1,2.18.56,3.79,3.79,0,0,1,1.45,1.61A5.6,5.6,0,0,1,55.24,10Zm-6.92,0a5.42,5.42,0,0,0,.29,1.9,2.58,2.58,0,0,0,.89,1.25,3,3,0,0,0,3.12,0,2.54,2.54,0,0,0,.9-1.25,5.67,5.67,0,0,0,.29-1.9,5.58,5.58,0,0,0-.29-1.88,2.46,2.46,0,0,0-.9-1.22,2.59,2.59,0,0,0-1.56-.43A2.37,2.37,0,0,0,49,7.4,4.49,4.49,0,0,0,48.32,10Z" transform="translate(0 -1.56)"/><path class="cls-1" d="M70.44,8.51a6.62,6.62,0,0,1-.18,1.54,4.77,4.77,0,0,1-.54,1.35,3.11,3.11,0,0,1-.91,1,2.29,2.29,0,0,1-1.29.36,1.65,1.65,0,0,1-1.22-.45,1.79,1.79,0,0,1-.55-1.06h-.08a2.89,2.89,0,0,1-.92,1.08,2.6,2.6,0,0,1-1.5.43,2.45,2.45,0,0,1-2-.86,3.57,3.57,0,0,1-.7-2.29,4.18,4.18,0,0,1,.45-2,3.32,3.32,0,0,1,1.25-1.35,3.6,3.6,0,0,1,1.91-.5,7.64,7.64,0,0,1,1.44.13,6.94,6.94,0,0,1,1.11.27L66.54,9.5c0,.2,0,.36,0,.47a2.45,2.45,0,0,0,0,.25,1.72,1.72,0,0,0,.32,1.21,1.1,1.1,0,0,0,.78.31,1.18,1.18,0,0,0,.93-.44,3.05,3.05,0,0,0,.58-1.17,6.33,6.33,0,0,0,.2-1.63,5.46,5.46,0,0,0-.64-2.71,4.41,4.41,0,0,0-1.77-1.71,5.51,5.51,0,0,0-2.58-.59A6.9,6.9,0,0,0,61.76,4a5.42,5.42,0,0,0-1.9,1.29,5.64,5.64,0,0,0-1.18,2,7.85,7.85,0,0,0-.39,2.53,6.32,6.32,0,0,0,.6,2.88,4.06,4.06,0,0,0,1.76,1.81,6.06,6.06,0,0,0,2.85.62,8.39,8.39,0,0,0,2-.23,14.1,14.1,0,0,0,1.68-.5v1.08a9.9,9.9,0,0,1-1.64.5,9.47,9.47,0,0,1-2,.19,7.23,7.23,0,0,1-3.42-.75,5.16,5.16,0,0,1-2.18-2.16,7.13,7.13,0,0,1-.75-3.39,8.44,8.44,0,0,1,.49-2.94,6.8,6.8,0,0,1,1.43-2.34A6.45,6.45,0,0,1,61.34,3a7.87,7.87,0,0,1,3-.54,6.54,6.54,0,0,1,3.15.73,5.36,5.36,0,0,1,2.16,2.09A6.32,6.32,0,0,1,70.44,8.51ZM61.79,9.6a2.47,2.47,0,0,0,.44,1.62,1.5,1.5,0,0,0,1.22.52A1.54,1.54,0,0,0,64.86,11a3.89,3.89,0,0,0,.52-1.91l.1-2.17a4.67,4.67,0,0,0-.58-.13,4.21,4.21,0,0,0-.72,0,2.2,2.2,0,0,0-1.38.4A2.36,2.36,0,0,0,62,8.22,3.93,3.93,0,0,0,61.79,9.6Z" transform="translate(0 -1.56)"/><path class="cls-1" d="M73.57,2.07a.82.82,0,0,1,.58.22A.83.83,0,0,1,74.4,3a.85.85,0,0,1-.25.68.83.83,0,0,1-.58.23.85.85,0,0,1-.6-.23A.92.92,0,0,1,72.74,3,.9.9,0,0,1,73,2.29.84.84,0,0,1,73.57,2.07Zm.67,3.4v9.1H72.86V5.47Z" transform="translate(0 -1.56)"/><path class="cls-1" d="M78.53,1.65V4.88q0,.56,0,1.08c0,.35,0,.62,0,.81h.07a3.06,3.06,0,0,1,1.08-1,3.38,3.38,0,0,1,1.8-.43A3.42,3.42,0,0,1,84.14,6.5a5.23,5.23,0,0,1,1,3.51,6.42,6.42,0,0,1-.46,2.59,3.53,3.53,0,0,1-1.31,1.59,3.65,3.65,0,0,1-2,.54,3.46,3.46,0,0,1-1.77-.4,3.09,3.09,0,0,1-1.07-1h-.11l-.28,1.22h-1V1.65Zm2.66,4.82a2.87,2.87,0,0,0-1.57.38A2.16,2.16,0,0,0,78.78,8a6.8,6.8,0,0,0-.25,2v.07a5,5,0,0,0,.57,2.63,2.28,2.28,0,0,0,2.09.91,2.15,2.15,0,0,0,1.9-.93A4.65,4.65,0,0,0,83.73,10a4.61,4.61,0,0,0-.63-2.65A2.18,2.18,0,0,0,81.19,6.47Z" transform="translate(0 -1.56)"/><path class="cls-1" d="M91.06,5.3a3.73,3.73,0,0,1,2,.52,3.3,3.3,0,0,1,1.27,1.44,5,5,0,0,1,.44,2.16v.86H88.48a3.57,3.57,0,0,0,.79,2.44,2.82,2.82,0,0,0,2.18.84A6.89,6.89,0,0,0,93,13.4a8,8,0,0,0,1.38-.47v1.21a6.19,6.19,0,0,1-1.36.45,7.56,7.56,0,0,1-1.6.14,4.64,4.64,0,0,1-2.29-.53,3.69,3.69,0,0,1-1.51-1.57,5.48,5.48,0,0,1-.54-2.54,6.08,6.08,0,0,1,.49-2.55,3.74,3.74,0,0,1,1.4-1.65A3.79,3.79,0,0,1,91.06,5.3Zm0,1.13a2.24,2.24,0,0,0-1.76.73,3.35,3.35,0,0,0-.78,2h4.82a3.92,3.92,0,0,0-.26-1.43,2,2,0,0,0-.74-1A2.2,2.2,0,0,0,91,6.43Z" transform="translate(0 -1.56)"/><path class="cls-1" d="M101.23,5.3l.58,0c.2,0,.37,0,.53.08l-.18,1.28a3.3,3.3,0,0,0-.49-.09l-.52,0a2.41,2.41,0,0,0-1,.22,2.28,2.28,0,0,0-.85.63,2.9,2.9,0,0,0-.58,1,4.06,4.06,0,0,0-.2,1.29v4.88H97.1V5.47h1.15l.15,1.68h0a4.83,4.83,0,0,1,.68-.93,3.25,3.25,0,0,1,.93-.67A2.79,2.79,0,0,1,101.23,5.3Z" transform="translate(0 -1.56)"/><path class="cls-1" d="M107.69,14.73a4.53,4.53,0,0,1-2.16-.5,3.46,3.46,0,0,1-1.47-1.55,5.89,5.89,0,0,1-.52-2.61,5.89,5.89,0,0,1,.55-2.7,3.6,3.6,0,0,1,1.53-1.56,4.64,4.64,0,0,1,2.2-.51,6.28,6.28,0,0,1,1.32.14,4.2,4.2,0,0,1,1,.35l-.41,1.15a7.84,7.84,0,0,0-1-.3,4.19,4.19,0,0,0-1-.13,2.84,2.84,0,0,0-1.57.4,2.48,2.48,0,0,0-.94,1.2,5.26,5.26,0,0,0-.31,1.94,5.28,5.28,0,0,0,.3,1.89,2.51,2.51,0,0,0,.91,1.19,2.62,2.62,0,0,0,1.5.41,5.3,5.3,0,0,0,1.31-.15A8,8,0,0,0,110,13v1.23a3.84,3.84,0,0,1-1,.36A6.36,6.36,0,0,1,107.69,14.73Z" transform="translate(0 -1.56)"/><path class="cls-1" d="M115.59,5.32a3.45,3.45,0,0,1,2.42.73,3,3,0,0,1,.79,2.33v6.19h-1l-.26-1.35h-.07a4.61,4.61,0,0,1-.8.84,2.78,2.78,0,0,1-1,.5,4.37,4.37,0,0,1-1.34.17,3.45,3.45,0,0,1-1.47-.29,2.17,2.17,0,0,1-1-.88,2.72,2.72,0,0,1-.37-1.49A2.36,2.36,0,0,1,112.6,10a6.28,6.28,0,0,1,3.28-.8l1.57-.07V8.56a2.21,2.21,0,0,0-.5-1.65,2,2,0,0,0-1.43-.48,4.35,4.35,0,0,0-1.36.21,9.55,9.55,0,0,0-1.23.49l-.42-1a7.68,7.68,0,0,1,1.41-.54A6.53,6.53,0,0,1,115.59,5.32Zm1.85,4.77-1.39.05a4.73,4.73,0,0,0-2.4.56,1.62,1.62,0,0,0-.7,1.39,1.36,1.36,0,0,0,.48,1.15,1.94,1.94,0,0,0,1.25.37,2.88,2.88,0,0,0,2-.67,2.52,2.52,0,0,0,.78-2Z" transform="translate(0 -1.56)"/><path class="cls-1" d="M125.91,5.3a3.42,3.42,0,0,1,2.72,1.17,5.3,5.3,0,0,1,1,3.52,6.45,6.45,0,0,1-.47,2.61,3.51,3.51,0,0,1-1.3,1.59,3.62,3.62,0,0,1-2,.54,3.77,3.77,0,0,1-1.27-.19,2.92,2.92,0,0,1-.94-.51,3.61,3.61,0,0,1-.65-.71h-.1c0,.22,0,.48.07.78s0,.57,0,.8v3.74h-1.38V5.47h1.13L123,6.81H123a4.17,4.17,0,0,1,.65-.75,2.86,2.86,0,0,1,.93-.55A3.71,3.71,0,0,1,125.91,5.3Zm-.24,1.17a2.83,2.83,0,0,0-1.52.36,2.06,2.06,0,0,0-.84,1.09A5.52,5.52,0,0,0,123,9.75V10a6.44,6.44,0,0,0,.26,2,2.24,2.24,0,0,0,.83,1.21,2.67,2.67,0,0,0,1.58.42,2.15,2.15,0,0,0,1.41-.46,2.63,2.63,0,0,0,.84-1.27,5.72,5.72,0,0,0,.28-1.88,4.55,4.55,0,0,0-.63-2.56A2.12,2.12,0,0,0,125.67,6.47Z" transform="translate(0 -1.56)"/><path class="cls-1" d="M131.83,13.7a1,1,0,0,1,.28-.82,1,1,0,0,1,.69-.25,1.12,1.12,0,0,1,.72.25,1,1,0,0,1,.29.82,1.09,1.09,0,0,1-.29.84,1.08,1.08,0,0,1-.72.26,1,1,0,0,1-.69-.26A1.09,1.09,0,0,1,131.83,13.7Z" transform="translate(0 -1.56)"/><path class="cls-1" d="M140.15,14.73a4.6,4.6,0,0,1-2.17-.5,3.49,3.49,0,0,1-1.46-1.55,5.75,5.75,0,0,1-.52-2.61,5.76,5.76,0,0,1,.55-2.7,3.64,3.64,0,0,1,1.52-1.56,4.71,4.71,0,0,1,2.21-.51,6.43,6.43,0,0,1,1.32.14,4.2,4.2,0,0,1,1,.35l-.42,1.15a6.87,6.87,0,0,0-1-.3,4.18,4.18,0,0,0-1-.13,2.87,2.87,0,0,0-1.58.4,2.46,2.46,0,0,0-.93,1.2,5.26,5.26,0,0,0-.31,1.94,5.28,5.28,0,0,0,.3,1.89,2.49,2.49,0,0,0,.9,1.19,2.66,2.66,0,0,0,1.51.41,5.16,5.16,0,0,0,1.3-.15A8.17,8.17,0,0,0,142.5,13v1.23a4.1,4.1,0,0,1-1,.36A6.43,6.43,0,0,1,140.15,14.73Z" transform="translate(0 -1.56)"/><path class="cls-1" d="M152.49,10a6.43,6.43,0,0,1-.29,2,4,4,0,0,1-.84,1.49,3.53,3.53,0,0,1-1.32.92,4.45,4.45,0,0,1-1.76.32,4.14,4.14,0,0,1-1.67-.32,3.66,3.66,0,0,1-1.31-.92,4.35,4.35,0,0,1-.86-1.49,6.14,6.14,0,0,1-.3-2,5.78,5.78,0,0,1,.51-2.54,3.53,3.53,0,0,1,1.45-1.6,4.3,4.3,0,0,1,2.24-.56,4.18,4.18,0,0,1,2.18.56A3.73,3.73,0,0,1,152,7.47,5.6,5.6,0,0,1,152.49,10Zm-6.92,0a5.42,5.42,0,0,0,.29,1.9,2.54,2.54,0,0,0,.9,1.25,3,3,0,0,0,3.11,0,2.54,2.54,0,0,0,.9-1.25,5.42,5.42,0,0,0,.29-1.9,5.34,5.34,0,0,0-.29-1.88,2.5,2.5,0,0,0-.89-1.22,2.65,2.65,0,0,0-1.57-.43,2.37,2.37,0,0,0-2.08.93A4.49,4.49,0,0,0,145.57,10Z" transform="translate(0 -1.56)"/><path class="cls-1" d="M164.75,5.3a3.05,3.05,0,0,1,2.27.79,3.5,3.5,0,0,1,.76,2.52v6h-1.36V8.67A2.46,2.46,0,0,0,165.94,7a1.76,1.76,0,0,0-1.41-.55,2.29,2.29,0,0,0-1.92.76,3.59,3.59,0,0,0-.6,2.25v5.09h-1.37V8.67a3.07,3.07,0,0,0-.21-1.22,1.49,1.49,0,0,0-.63-.74,2.11,2.11,0,0,0-1.06-.24,2.51,2.51,0,0,0-1.45.37A2,2,0,0,0,156.5,8a5.54,5.54,0,0,0-.25,1.8v4.82h-1.38V5.47H156l.2,1.29h.08A2.66,2.66,0,0,1,157,6a2.76,2.76,0,0,1,.93-.49,3.87,3.87,0,0,1,2.83.22,2.26,2.26,0,0,1,1,1.17h.07A2.89,2.89,0,0,1,163,5.69,3.77,3.77,0,0,1,164.75,5.3Z" transform="translate(0 -1.56)"/><path class="cls-1" d="M0,5.24a2,2,0,0,1,2-2H14a2,2,0,0,1,2,2v8a2,2,0,0,1-2,2H2a2,2,0,0,1-2-2Zm2-1a1,1,0,0,0-1,1v.22l7,4.2,7-4.2V5.24a1,1,0,0,0-1-1ZM15,6.62,10.29,9.45,15,12.35Zm0,6.88L9.33,10,8,10.82,6.67,10,1,13.5a1,1,0,0,0,1,.74H14A1,1,0,0,0,15,13.5ZM1,12.35l4.71-2.9L1,6.62Z" transform="translate(0 -1.56)"/></g></g></svg>