<svg xmlns="http://www.w3.org/2000/svg" viewBox="0 0 233.09 229.81"><defs><style>.cls-1{fill:none;stroke:#1c2e3a;stroke-linecap:round;stroke-linejoin:round;stroke-width:5px;}</style></defs><g id="Capa_2" data-name="Capa 2"><g id="Ñëîé_2" data-name="Ñëîé 2"><path class="cls-1" d="M135.2,84.37a41,41,0,1,0-8.38-14.16L72.42,97.87"/><circle class="cls-1" cx="165.63" cy="39.99" r="10.71"/><path class="cls-1" d="M143.32,81.36a22.31,22.31,0,0,1,44.62,0"/><path class="cls-1" d="M4.51,126.91a37.06,37.06,0,1,1,7.56,12.77"/><circle class="cls-1" cx="39.52" cy="99.36" r="9.66"/><path class="cls-1" d="M19.4,137a20.12,20.12,0,1,1,40.24,0"/><path class="cls-1" d="M110.09,194.87a39,39,0,1,1,8,13.43"/><circle class="cls-1" cx="146.92" cy="166.04" r="10.16" transform="matrix(0.59, -0.8, 0.8, 0.59, -73.92, 185.58)"/><path class="cls-1" d="M125.75,205.45a21.17,21.17,0,0,1,42.34,0"/><line class="cls-1" x1="37.5" y1="77.29" x2="37.5" y2="40.43"/><circle class="cls-1" cx="37.5" cy="21.48" r="18.98"/><line class="cls-1" x1="109.04" y1="195.25" x2="73.2" y2="203.89"/><circle class="cls-1" cx="54.78" cy="208.33" r="18.98" transform="translate(-127.33 93.27) rotate(-42.98)"/><line class="cls-1" x1="178.27" y1="158.55" x2="201.61" y2="135.26"/><circle class="cls-1" cx="213.61" cy="123.28" r="16.98" transform="translate(-24.61 187.16) rotate(-45)"/><line class="cls-1" x1="157.08" y1="96.98" x2="152" y2="143.21"/><line class="cls-1" x1="108.74" y1="174.4" x2="63.29" y2="143.21"/></g></g></svg>