<svg xmlns="http://www.w3.org/2000/svg" viewBox="0 0 322.64 70.97"><defs><style>.cls-1{fill:#1c2e3a;}</style></defs><g id="Capa_2" data-name="Capa 2"><g id="Capa_1-2" data-name="Capa 1"><path class="cls-1" d="M1.48,30.67a1.25,1.25,0,0,1-.59-.13.39.39,0,0,1-.26-.35c0-.37.31-.61.92-.74a4.94,4.94,0,0,0,2-.81,2.08,2.08,0,0,0,.63-1.7V10.14A2.41,2.41,0,0,0,3.7,8.4a4,4,0,0,0-2-.82C1.12,7.46.81,7.2.81,6.81a.39.39,0,0,1,.26-.35,1.29,1.29,0,0,1,.6-.13c.59,0,1.17,0,1.73,0l1.65.08c.53,0,1.07,0,1.61,0s1,0,1.57,0l1.65-.08q.85,0,1.74,0a1.15,1.15,0,0,1,.59.13.4.4,0,0,1,.22.38.54.54,0,0,1-.24.47,2.09,2.09,0,0,1-.68.27,4.51,4.51,0,0,0-2,.89A2.34,2.34,0,0,0,9,10.17V26.9a2,2,0,0,0,.61,1.66,5.11,5.11,0,0,0,2,.89,2.63,2.63,0,0,1,.72.26.49.49,0,0,1,.24.44.37.37,0,0,1-.22.37,1.26,1.26,0,0,1-.59.12c-.6,0-1.19,0-1.78,0l-1.72-.08-1.61,0L5,30.52l-1.74.1C2.66,30.65,2.07,30.67,1.48,30.67Z" transform="translate(-0.63 -4.74)"/><path class="cls-1" d="M14.69,30.71a1.23,1.23,0,0,1-.65-.15.43.43,0,0,1-.24-.37c0-.32.32-.55,1-.7a5,5,0,0,0,1.91-.83,2.15,2.15,0,0,0,.61-1.72V10.17a2.7,2.7,0,0,0-.5-1.81A3.13,3.13,0,0,0,15,7.58a1.21,1.21,0,0,1-.74-.29A.64.64,0,0,1,14,6.84a.39.39,0,0,1,.24-.38,1.3,1.3,0,0,1,.64-.13c.74,0,1.35,0,1.82,0l1.33.1c.42,0,.91,0,1.48,0A12.87,12.87,0,0,0,21,6.44l1.42-.15c.52,0,1.19-.07,2-.07A14,14,0,0,1,31,7.46a4.47,4.47,0,0,1,2.24,4.27,4.82,4.82,0,0,1-.5,2.18,4.9,4.9,0,0,1-1.17,1.56,6,6,0,0,1-1.18.88,7.37,7.37,0,0,1-1.45.6.16.16,0,0,0-.14.18.18.18,0,0,0,.14.19,13.85,13.85,0,0,1,1.91.59,7.2,7.2,0,0,1,1.85,1,4.94,4.94,0,0,1,1.4,1.72,5.91,5.91,0,0,1,.54,2.69A6.83,6.83,0,0,1,34,26.62a5.16,5.16,0,0,1-1.55,1.83,16.19,16.19,0,0,1-1.68,1,10.86,10.86,0,0,1-2.72.89,20.48,20.48,0,0,1-3.68.29c-.67,0-1.39,0-2.15-.07s-1.57-.08-2.41-.08c-.56,0-1.12,0-1.68,0l-1.68.09Q15.58,30.71,14.69,30.71Zm8.92-13.84a7.35,7.35,0,0,0,1.81-.22,5.82,5.82,0,0,0,1.77-.81A4.3,4.3,0,0,0,28,14.76a4.58,4.58,0,0,0,.5-2.36A7.16,7.16,0,0,0,28.14,10a3.3,3.3,0,0,0-1.33-1.68,4.76,4.76,0,0,0-2.61-.61,2.56,2.56,0,0,0-1.69.41,1.55,1.55,0,0,0-.46,1.22v6.25a1.06,1.06,0,0,0,.56,1.05A2.21,2.21,0,0,0,23.61,16.87Zm.92,12a4.42,4.42,0,0,0,2.41-.7,5.33,5.33,0,0,0,2.44-4.51A5.88,5.88,0,0,0,29,21.37,5,5,0,0,0,28.14,20a4.92,4.92,0,0,0-.91-.79,5.26,5.26,0,0,0-1.2-.56,6.42,6.42,0,0,0-2.13-.3,2.21,2.21,0,0,0-1.33.38,1,1,0,0,0-.52.85v6.84a2.39,2.39,0,0,0,.65,1.87A2.67,2.67,0,0,0,24.53,28.82Z" transform="translate(-0.63 -4.74)"/><path class="cls-1" d="M37.67,30.71a1.2,1.2,0,0,1-.65-.15.43.43,0,0,1-.24-.37c0-.32.32-.55,1-.7a4.65,4.65,0,0,0,1.9-.83,2.18,2.18,0,0,0,.58-1.72V10.17a2.53,2.53,0,0,0-.5-1.77,3.71,3.71,0,0,0-1.87-.82,1.51,1.51,0,0,1-.74-.31.57.57,0,0,1-.22-.43.4.4,0,0,1,.24-.38,1.31,1.31,0,0,1,.65-.13c.71,0,1.4,0,2,0l1.9.08c.62,0,1.26,0,1.93,0,1.13,0,2.34,0,3.61,0s2.41,0,3.42,0c.81,0,1.48-.06,2-.11s.84-.07.94-.07a1.37,1.37,0,0,1,.54.11.48.48,0,0,1,.31.44c.1.81.22,1.62.37,2.41a11.24,11.24,0,0,1,.22,2.07.68.68,0,0,1-.16.5.51.51,0,0,1-.36.16.48.48,0,0,1-.33-.13A1.05,1.05,0,0,1,54,11.4c-.2-.57-.38-1.06-.55-1.48a3,3,0,0,0-.6-1,3.78,3.78,0,0,0-1.1-.81,3.52,3.52,0,0,0-1.52-.3H46.77a2.06,2.06,0,0,0-1.22.39A1.27,1.27,0,0,0,45,9.32v7.26a.82.82,0,0,0,.24.63.85.85,0,0,0,.58.22h3.4a1.67,1.67,0,0,0,1.42-.56,4.49,4.49,0,0,0,.72-1.52c.18-.49.41-.74.71-.74a.42.42,0,0,1,.33.21.86.86,0,0,1,.15.53c0,.25,0,.55-.08.89s0,.69-.05,1,0,.65,0,.92,0,.63,0,1,0,.74,0,1.09,0,.66,0,.91a1.34,1.34,0,0,1,0,.63.33.33,0,0,1-.32.22c-.39,0-.68-.34-.85-1a4.77,4.77,0,0,0-.7-1.56,1.35,1.35,0,0,0-1.11-.52H46a1.28,1.28,0,0,0-.74.19.82.82,0,0,0-.26.7v7a2.23,2.23,0,0,0,.52,1.7A2.26,2.26,0,0,0,47.1,29h3a7.36,7.36,0,0,0,1.69-.18,3.65,3.65,0,0,0,1.31-.59,4.5,4.5,0,0,0,1.13-1.2c.33-.51.66-1.07,1-1.69a1,1,0,0,1,.3-.39.68.68,0,0,1,.37-.09.4.4,0,0,1,.27.22,1,1,0,0,1,.1.41,6.48,6.48,0,0,1-.19,1.33c-.12.54-.28,1.11-.46,1.69s-.35,1.11-.5,1.6a.76.76,0,0,1-.3.39.72.72,0,0,1-.44.13c-.59,0-1.35,0-2.28,0l-3,0c-1.09,0-2.2,0-3.33-.06l-3.26,0c-.52,0-1,0-1.57,0l-1.61.09C38.79,30.69,38.23,30.71,37.67,30.71Z" transform="translate(-0.63 -4.74)"/><path class="cls-1" d="M80.73,31.3A9.93,9.93,0,0,1,78,31a5.92,5.92,0,0,1-2-1,9.47,9.47,0,0,1-1.55-1.55l-1.59-2.17c-.52-.7-1-1.48-1.57-2.33S70.09,22,69.45,20.83a3.16,3.16,0,0,0-1.22-1.26,4.18,4.18,0,0,0-1-.37,4.3,4.3,0,0,0-.84-.11.3.3,0,0,0-.33.19,1.25,1.25,0,0,0-.11.55v6.88a2.43,2.43,0,0,0,.61,1.78,4.16,4.16,0,0,0,2.09,1,1.57,1.57,0,0,1,.7.24.55.55,0,0,1,.23.46.38.38,0,0,1-.21.37,1.22,1.22,0,0,1-.61.12q-.86,0-1.74-.06l-1.72-.09c-.55,0-1.08,0-1.57,0s-1.1,0-1.68,0-1.17.06-1.76.11-1.19.07-1.78.07a1.25,1.25,0,0,1-.59-.13.39.39,0,0,1-.26-.35c0-.37.31-.61.93-.74a4.57,4.57,0,0,0,2-.81,2.21,2.21,0,0,0,.6-1.74V10.54A6.21,6.21,0,0,0,61,8.9,1.48,1.48,0,0,0,60.38,8a3.94,3.94,0,0,0-1.44-.45,1.21,1.21,0,0,1-.74-.29A.64.64,0,0,1,58,6.84a.4.4,0,0,1,.24-.38,1.31,1.31,0,0,1,.65-.13q1.11,0,1.77,0l1.28.1c.41,0,.89,0,1.46,0a12.39,12.39,0,0,0,1.44-.07l1.41-.15c.52,0,1.18-.07,2-.07A11.88,11.88,0,0,1,74.74,7.7,5,5,0,0,1,77,12.21,5.38,5.38,0,0,1,76.29,15,6.3,6.3,0,0,1,74.54,17a9.63,9.63,0,0,1-2.17,1.14.16.16,0,0,0-.13.19.46.46,0,0,0,.13.26c.74,1.13,1.46,2.21,2.17,3.23a32.76,32.76,0,0,0,2.22,2.91,29.73,29.73,0,0,0,2.53,2.63,4.57,4.57,0,0,0,2.35,1.27,14.46,14.46,0,0,0,2.5.21.48.48,0,0,1,.55.55,1.41,1.41,0,0,1-.55,1.17,3.7,3.7,0,0,1-1.46.61A10.09,10.09,0,0,1,80.73,31.3ZM67.56,18a4.24,4.24,0,0,0,4.09-2.52A5.88,5.88,0,0,0,72.19,13a8.68,8.68,0,0,0-.41-2.83,3.47,3.47,0,0,0-1.39-1.81,4.83,4.83,0,0,0-2.68-.65,1.34,1.34,0,0,0-1.31.68A7.13,7.13,0,0,0,66,11.1c0,.57,0,1.31,0,2.24v3.31a1.19,1.19,0,0,0,.43,1.09A2.05,2.05,0,0,0,67.56,18Z" transform="translate(-0.63 -4.74)"/><path class="cls-1" d="M86,30.67a1.22,1.22,0,0,1-.59-.13.37.37,0,0,1-.26-.35c0-.37.3-.61.92-.74a4.94,4.94,0,0,0,2-.81,2.08,2.08,0,0,0,.62-1.7V10.14a2.41,2.41,0,0,0-.51-1.74,4,4,0,0,0-2-.82c-.62-.12-.93-.38-.93-.77a.39.39,0,0,1,.26-.35,1.25,1.25,0,0,1,.59-.13q.89,0,1.74,0l1.65.08c.53,0,1.06,0,1.61,0s1,0,1.57,0l1.65-.08c.56,0,1.14,0,1.73,0a1.16,1.16,0,0,1,.6.13.42.42,0,0,1,.22.38.54.54,0,0,1-.24.47,2.06,2.06,0,0,1-.69.27,4.52,4.52,0,0,0-2,.89,2.34,2.34,0,0,0-.52,1.7V26.9a2,2,0,0,0,.61,1.66,5.13,5.13,0,0,0,2,.89,2.59,2.59,0,0,1,.73.26.49.49,0,0,1,.24.44.38.38,0,0,1-.23.37,1.21,1.21,0,0,1-.59.12c-.59,0-1.18,0-1.77,0l-1.72-.08-1.61,0-1.67,0-1.74.1C87.17,30.65,86.58,30.67,86,30.67Z" transform="translate(-0.63 -4.74)"/><path class="cls-1" d="M98.57,30.71a1.75,1.75,0,0,1-.74-.13.45.45,0,0,1-.3-.43.57.57,0,0,1,.28-.51,2.69,2.69,0,0,1,.72-.34,5.42,5.42,0,0,0,1.87-.9,4.27,4.27,0,0,0,1.27-1.69c.62-1.45,1.21-2.85,1.78-4.2s1.11-2.68,1.63-4,1-2.69,1.57-4.07,1.07-2.84,1.61-4.37c.27-.76.46-1.35.56-1.77a8,8,0,0,1,.25-.93c.37-.1.72-.19,1-.29s.68-.23,1.07-.37a3.16,3.16,0,0,0,.89-.67c.25-.27.43-.48.56-.63a.47.47,0,0,1,.22-.09c.07,0,.15,0,.22.17a3.43,3.43,0,0,1,.19.44c0,.15.09.31.14.48q.82,2.63,1.69,5.31T116.81,17q.84,2.61,1.64,5t1.47,4.38a4.56,4.56,0,0,0,.83,1.59,3.51,3.51,0,0,0,1.11.91,6.31,6.31,0,0,0,1.35.5,2.07,2.07,0,0,1,.74.29.62.62,0,0,1,.26.52.35.35,0,0,1-.24.33,1.38,1.38,0,0,1-.61.12c-.45,0-1,0-1.69,0l-2.09-.09q-1.06-.06-1.92-.06c-.5,0-1,0-1.65,0l-1.81.07c-.61,0-1.12,0-1.54,0a1.44,1.44,0,0,1-.64-.13.42.42,0,0,1-.28-.39.61.61,0,0,1,.29-.5,2,2,0,0,1,.71-.28,4.24,4.24,0,0,0,1.92-.68,1.3,1.3,0,0,0,.44-1.35q-.1-.63-.33-1.5c-.15-.58-.3-1.18-.46-1.81s-.33-1.21-.5-1.72a.83.83,0,0,0-.22-.43.94.94,0,0,0-.56-.13h-6.66a.5.5,0,0,0-.4.17,1.11,1.11,0,0,0-.23.5c-.09.32-.21.68-.35,1.09s-.27.83-.4,1.26-.26.83-.37,1.2a6.08,6.08,0,0,0-.24,1,1.69,1.69,0,0,0,.35,1.57,3.7,3.7,0,0,0,1.87.91q1,.26,1,.78a.39.39,0,0,1-.24.35,1.39,1.39,0,0,1-.68.13c-.57,0-1.16,0-1.78-.06s-1.29-.05-2-.05a19.34,19.34,0,0,0-2.17.11C100,30.67,99.28,30.71,98.57,30.71ZM107.37,20h5.15c.34,0,.51-.07.51-.22a.53.53,0,0,0,0-.19c0-.05,0-.12-.05-.22l-2.59-8.55c-.1-.34-.19-.51-.26-.51s-.14.16-.26.48l-3.11,8.58a.79.79,0,0,0-.07.3.27.27,0,0,0,.2.26A1.47,1.47,0,0,0,107.37,20Z" transform="translate(-0.63 -4.74)"/><path class="cls-1" d="M133.79,30.67a1.25,1.25,0,0,1-.59-.13.39.39,0,0,1-.26-.35c0-.37.31-.61.92-.74a4.94,4.94,0,0,0,2-.81,2.08,2.08,0,0,0,.63-1.7V10.14A2.41,2.41,0,0,0,136,8.4a4,4,0,0,0-2-.82c-.62-.12-.93-.38-.93-.77a.39.39,0,0,1,.26-.35,1.29,1.29,0,0,1,.6-.13c.59,0,1.17,0,1.73,0l1.65.08c.53,0,1.07,0,1.61,0s1,0,1.57,0l1.65-.08q.85,0,1.74,0a1.15,1.15,0,0,1,.59.13.4.4,0,0,1,.22.38.54.54,0,0,1-.24.47,2.09,2.09,0,0,1-.68.27,4.51,4.51,0,0,0-2,.89,2.34,2.34,0,0,0-.52,1.7V26.9a2,2,0,0,0,.61,1.66,5.11,5.11,0,0,0,2,.89,2.63,2.63,0,0,1,.72.26.49.49,0,0,1,.24.44.37.37,0,0,1-.22.37,1.26,1.26,0,0,1-.59.12c-.6,0-1.19,0-1.78,0l-1.72-.08-1.61,0-1.66,0-1.74.1C135,30.65,134.38,30.67,133.79,30.67Z" transform="translate(-0.63 -4.74)"/><path class="cls-1" d="M170.49,31.19a3.82,3.82,0,0,1-1.48-.55,7.21,7.21,0,0,1-2.11-1.93L165.37,27l-2-2.24c-.73-.81-1.49-1.66-2.27-2.55l-2.35-2.66c-.78-.89-1.54-1.74-2.28-2.56l-2-2.24c-.62-.67-1.14-1.26-1.56-1.75a1.89,1.89,0,0,0-.31-.32.56.56,0,0,0-.28-.13c-.1,0-.17.09-.22.26a1.72,1.72,0,0,0-.08.48c0,1.14,0,2.48,0,4s0,3.13,0,4.73v4.44a2.68,2.68,0,0,0,.67,1.89,3.93,3.93,0,0,0,2.11,1.07,2.54,2.54,0,0,1,.75.24.52.52,0,0,1,.32.46.38.38,0,0,1-.3.37,1.76,1.76,0,0,1-.66.12c-.67,0-1.2,0-1.59,0l-1.08-.08c-.32,0-.73,0-1.22,0s-1,0-1.39,0-.77.06-1.09.1-.63.05-.92.05a1.6,1.6,0,0,1-.67-.13c-.2-.08-.29-.2-.29-.35a.51.51,0,0,1,.27-.46,3.3,3.3,0,0,1,.76-.31,2.43,2.43,0,0,0,1.43-1.1,4.71,4.71,0,0,0,.57-1.9c.1-.94.2-2.17.3-3.68s.19-3.23.27-5.13.13-3.86.13-5.88a3.49,3.49,0,0,0-1-2.78A7.62,7.62,0,0,0,147,7.58a2.82,2.82,0,0,1-.66-.29.63.63,0,0,1-.41-.56.43.43,0,0,1,.29-.44,1.9,1.9,0,0,1,.63-.11c.52,0,1,0,1.56,0l1.57,0,1.66.06c.58,0,1.21,0,1.87,0a.83.83,0,0,1,.5.13,1.83,1.83,0,0,1,.32.35c.39.47.9,1.06,1.51,1.76l2,2.33,2.29,2.69c.81.93,1.61,1.87,2.41,2.81s1.57,1.83,2.31,2.68l2,2.33c.6.7,1.1,1.28,1.5,1.72l.35.37a.52.52,0,0,0,.35.22q.3,0,.33-.63V20.66c0-1,0-2.1,0-3.33s0-2.47,0-3.75,0-2.52-.05-3.7a1.84,1.84,0,0,0-.76-1.46,4.48,4.48,0,0,0-1.8-.76,6.73,6.73,0,0,1-.83-.28.54.54,0,0,1-.39-.5c0-.17.13-.29.39-.37a2.8,2.8,0,0,1,.72-.11h1.24l1,0,.92,0,1.33,0,1.13-.06c.41,0,.94,0,1.61,0a1.63,1.63,0,0,1,.72.13.38.38,0,0,1,.28.35c0,.37-.36.63-1.07.77a4.22,4.22,0,0,0-1.83.71,1.92,1.92,0,0,0-.58,1.48c0,.61,0,1.4,0,2.37s0,2-.05,3.14-.06,2.29-.1,3.48-.06,2.34-.07,3.48,0,2.16,0,3.07c0,.59,0,1.19.08,1.81s.1,1.17.16,1.65.1.82.1,1a1.78,1.78,0,0,1-.26,1.12A.93.93,0,0,1,170.49,31.19Z" transform="translate(-0.63 -4.74)"/><path class="cls-1" d="M189.25,30.78c-.66,0-1.47,0-2.4-.07L184,30.58c-1,0-1.74-.06-2.35-.06l-1.5,0c-.51,0-1,0-1.57.08s-1.13.05-1.74.05a1.22,1.22,0,0,1-.59-.13.4.4,0,0,1-.26-.39.52.52,0,0,1,.24-.48,2.2,2.2,0,0,1,.72-.22,3.94,3.94,0,0,0,1.92-.81,2.4,2.4,0,0,0,.52-1.74V10.17a2.53,2.53,0,0,0-.5-1.77A3.8,3.8,0,0,0,177,7.58a1.52,1.52,0,0,1-.72-.24.56.56,0,0,1-.24-.5.39.39,0,0,1,.26-.38,1.22,1.22,0,0,1,.59-.13c.59,0,1.16,0,1.7,0s1.08,0,1.61.07,1.07.06,1.61.06q.56,0,1.5-.06l2-.11,2.06-.11c.64,0,1.15-.06,1.55-.06a16.6,16.6,0,0,1,5.59.89,12.48,12.48,0,0,1,4.23,2.48,10.73,10.73,0,0,1,2.69,3.77,12.17,12.17,0,0,1,.92,4.74,13,13,0,0,1-.92,4.85,12.49,12.49,0,0,1-6.79,6.88A13.6,13.6,0,0,1,189.25,30.78Zm-.55-1.7a7.86,7.86,0,0,0,4.53-1.27,8,8,0,0,0,2.83-3.59,13.88,13.88,0,0,0,1-5.35,14.89,14.89,0,0,0-.65-4.57,10.25,10.25,0,0,0-1.81-3.48,8.16,8.16,0,0,0-2.77-2.2,7.94,7.94,0,0,0-3.5-.78c-.89,0-1.63,0-2.24.08a2.67,2.67,0,0,0-1.37.42,1.39,1.39,0,0,0-.46,1.17V25.79a3.21,3.21,0,0,0,.57,2,3,3,0,0,0,1.59,1A8.63,8.63,0,0,0,188.7,29.08Z" transform="translate(-0.63 -4.74)"/><path class="cls-1" d="M217.22,31a12,12,0,0,1-5.73-1.22,8,8,0,0,1-3.44-3.4,10.79,10.79,0,0,1-1.15-5.11V10.51a3.46,3.46,0,0,0-.5-1.89,2.23,2.23,0,0,0-1.31-1Q204,7.32,204,6.81c0-.15.1-.27.29-.35a1.82,1.82,0,0,1,.74-.13c.69,0,1.42,0,2.17.07s1.48.08,2.2.08,1.37,0,2.2-.06,1.54-.06,2.13-.06a1.83,1.83,0,0,1,.72.12.37.37,0,0,1,.28.36c0,.25-.16.43-.46.54s-.68.25-1.1.43a2.47,2.47,0,0,0-1,.9,3.3,3.3,0,0,0-.46,1.87v10a9.58,9.58,0,0,0,.89,4.39A5.78,5.78,0,0,0,215,27.45a6.68,6.68,0,0,0,3.33.82,6.14,6.14,0,0,0,5.21-2.22,10.26,10.26,0,0,0,1.71-6.37V17.5c0-.84,0-1.71,0-2.61s0-1.76-.06-2.57a11.54,11.54,0,0,0-.2-2.35,4.41,4.41,0,0,0-.57-1.44,2.39,2.39,0,0,0-1-.83l-.87-.34c-.33-.12-.5-.28-.5-.48a.39.39,0,0,1,.3-.4,2,2,0,0,1,.77-.12c.79,0,1.4,0,1.83,0s.93,0,1.5,0l1.13,0c.33,0,.66,0,1-.06s.69,0,1.11,0a2.27,2.27,0,0,1,.71.09.37.37,0,0,1,.25.39c0,.34-.35.6-1.07.77a2.44,2.44,0,0,0-1.59,1.08,4.58,4.58,0,0,0-.52,2c-.1,2-.16,3.74-.2,5.37s-.07,3.27-.09,4.92a10.64,10.64,0,0,1-1.35,5.23,9.53,9.53,0,0,1-3.54,3.56A9.77,9.77,0,0,1,217.22,31Z" transform="translate(-0.63 -4.74)"/><path class="cls-1" d="M238.79,31.08a10.94,10.94,0,0,1-3-.41,8.92,8.92,0,0,1-2.61-1.22,3.78,3.78,0,0,1-.41-.39,1.56,1.56,0,0,1-.29-.46,10,10,0,0,1-.41-2.27,23.11,23.11,0,0,1-.07-2.61.37.37,0,0,1,.2-.37,1,1,0,0,1,.5-.11,1,1,0,0,1,.46.09.55.55,0,0,1,.24.35A9.92,9.92,0,0,0,235.76,28a4.88,4.88,0,0,0,3.52,1.55,3.72,3.72,0,0,0,2.07-.55,3.61,3.61,0,0,0,1.29-1.45,4.18,4.18,0,0,0,.45-1.92,4.4,4.4,0,0,0-.47-2.14A4.85,4.85,0,0,0,241.24,22a22,22,0,0,0-2.33-1.46c-1-.59-2-1.22-3-1.87a8.63,8.63,0,0,1-2.37-2.33,5.77,5.77,0,0,1-.93-3.35,6.31,6.31,0,0,1,1.06-3.64,7.1,7.1,0,0,1,2.94-2.47A10.16,10.16,0,0,1,241,6a10.9,10.9,0,0,1,2.56.29,14.3,14.3,0,0,1,1.88.59,1.52,1.52,0,0,1,.61.37,1.62,1.62,0,0,1,.32.71,15.17,15.17,0,0,1,.55,4.1q0,.45-.66.45a1.26,1.26,0,0,1-.59-.15.65.65,0,0,1-.37-.41,7.48,7.48,0,0,0-1.84-3.25,4,4,0,0,0-2.86-1.11,4.48,4.48,0,0,0-2,.39,3,3,0,0,0-1.3,1.18,3.94,3.94,0,0,0-.48,2.05,2.79,2.79,0,0,0,.65,1.78,7.86,7.86,0,0,0,1.81,1.59c.78.52,1.65,1.09,2.61,1.7a19.47,19.47,0,0,1,3,2.09,7.66,7.66,0,0,1,1.83,2.33,6.79,6.79,0,0,1,.63,3,7.31,7.31,0,0,1-1.08,4.09,6.6,6.6,0,0,1-3,2.48A11.4,11.4,0,0,1,238.79,31.08Z" transform="translate(-0.63 -4.74)"/><path class="cls-1" d="M256.52,30.67a1.45,1.45,0,0,1-.65-.13.38.38,0,0,1-.28-.35.56.56,0,0,1,.26-.48,1.77,1.77,0,0,1,.74-.26,4.93,4.93,0,0,0,2.07-.83,2.11,2.11,0,0,0,.67-1.76v-15c0-1,0-1.78-.08-2.3a3.23,3.23,0,0,0-.2-1.05.5.5,0,0,0-.39-.32,3.12,3.12,0,0,0-.92-.18c-.37,0-.73,0-1.07,0h-1.15a4.58,4.58,0,0,0-2.07.5,3.82,3.82,0,0,0-1.56,1.35c-.1.15-.25.36-.46.63a6,6,0,0,1-.67.74,1,1,0,0,1-.72.33.36.36,0,0,1-.35-.18.91.91,0,0,1-.09-.41,2,2,0,0,1,.22-.89,16.56,16.56,0,0,0,.94-2.2,9.48,9.48,0,0,0,.43-2.24,1,1,0,0,1,.31-.72.87.87,0,0,1,.5-.16c.15,0,.33.15.54.46a8.79,8.79,0,0,0,.57.76,2.33,2.33,0,0,0,1.19.5,7.68,7.68,0,0,0,1.44.16l13.65,0a7.75,7.75,0,0,0,1.74-.17,6.4,6.4,0,0,0,1.11-.35,3.93,3.93,0,0,0,.89-.69,1,1,0,0,1,.78-.35.29.29,0,0,1,.27.21,1,1,0,0,1,.1.49,3.62,3.62,0,0,1,0,.43c0,.16-.05.3-.07.43-.1.46-.2.88-.3,1.24s-.18.69-.24,1a5.59,5.59,0,0,0-.09,1.06v.63a2.4,2.4,0,0,1-.15.89.51.51,0,0,1-.48.37.58.58,0,0,1-.5-.36,5,5,0,0,1-.43-1.09,3.1,3.1,0,0,0-1.11-1.75A4.06,4.06,0,0,0,268.43,8h-2.51a2,2,0,0,0-1.1.26,1.68,1.68,0,0,0-.55,1.13,15.61,15.61,0,0,0-.17,2.68V26.82a2.09,2.09,0,0,0,.67,1.73,5.69,5.69,0,0,0,2.11.9,3,3,0,0,1,.7.26.49.49,0,0,1,.26.44.37.37,0,0,1-.24.37,1.38,1.38,0,0,1-.61.12c-.59,0-1.19,0-1.78,0l-1.75-.08-1.69,0-1.68,0-1.78.1C257.71,30.65,257.11,30.67,256.52,30.67Z" transform="translate(-0.63 -4.74)"/><path class="cls-1" d="M298,31.3a10,10,0,0,1-2.78-.35,5.79,5.79,0,0,1-2-1,9.15,9.15,0,0,1-1.56-1.55L290,26.21c-.52-.7-1-1.48-1.57-2.33s-1.12-1.86-1.76-3.05a3.16,3.16,0,0,0-1.22-1.26,4.12,4.12,0,0,0-1.81-.48.31.31,0,0,0-.34.19,1.25,1.25,0,0,0-.11.55v6.88a2.48,2.48,0,0,0,.61,1.78,4.2,4.2,0,0,0,2.1,1,1.62,1.62,0,0,1,.7.24.54.54,0,0,1,.22.46.38.38,0,0,1-.2.37,1.24,1.24,0,0,1-.61.12q-.86,0-1.74-.06l-1.72-.09c-.56,0-1.08,0-1.58,0s-1.1,0-1.68,0-1.17.06-1.76.11-1.18.07-1.77.07a1.25,1.25,0,0,1-.59-.13.37.37,0,0,1-.26-.35c0-.37.3-.61.92-.74a4.62,4.62,0,0,0,2-.81,2.24,2.24,0,0,0,.59-1.74V10.54a5.82,5.82,0,0,0-.17-1.64,1.46,1.46,0,0,0-.64-.87,3.93,3.93,0,0,0-1.45-.45,1.24,1.24,0,0,1-.74-.29.68.68,0,0,1-.22-.45.4.4,0,0,1,.24-.38,1.34,1.34,0,0,1,.65-.13c.74,0,1.33,0,1.78,0l1.27.1c.41,0,.9,0,1.46,0a12.45,12.45,0,0,0,1.45-.07l1.4-.15c.52,0,1.19-.07,2-.07A11.84,11.84,0,0,1,292,7.7a5,5,0,0,1,2.26,4.51,5.38,5.38,0,0,1-.7,2.83A6.33,6.33,0,0,1,291.76,17a9.42,9.42,0,0,1-2.17,1.14.15.15,0,0,0-.12.19.45.45,0,0,0,.12.26c.74,1.13,1.47,2.21,2.17,3.23A32.76,32.76,0,0,0,294,24.68a31.24,31.24,0,0,0,2.53,2.63,4.61,4.61,0,0,0,2.35,1.27,14.63,14.63,0,0,0,2.5.21.49.49,0,0,1,.56.55,1.41,1.41,0,0,1-.56,1.17,3.7,3.7,0,0,1-1.46.61A10,10,0,0,1,298,31.3ZM284.79,18a4.41,4.41,0,0,0,2.53-.69,4.27,4.27,0,0,0,1.55-1.83,5.88,5.88,0,0,0,.54-2.55,8.68,8.68,0,0,0-.41-2.83,3.45,3.45,0,0,0-1.38-1.81,4.86,4.86,0,0,0-2.69-.65,1.34,1.34,0,0,0-1.31.68,7.33,7.33,0,0,0-.39,2.76c0,.57,0,1.31,0,2.24v3.31a1.22,1.22,0,0,0,.43,1.09A2.07,2.07,0,0,0,284.79,18Z" transform="translate(-0.63 -4.74)"/><path class="cls-1" d="M305.76,30.75a1.63,1.63,0,0,1-.76-.15.46.46,0,0,1-.27-.41.5.5,0,0,1,.31-.46,3.69,3.69,0,0,1,.8-.28,3.34,3.34,0,0,0,2-1,2.9,2.9,0,0,0,.63-2V21.24a4.83,4.83,0,0,0-.37-1.94c-.25-.58-.48-1.07-.7-1.47l-4.63-7.29A12.46,12.46,0,0,0,302,9.45a9,9,0,0,0-1-1.13,3,3,0,0,0-1.26-.7,3.59,3.59,0,0,1-.72-.31.52.52,0,0,1-.28-.47.41.41,0,0,1,.26-.38,1.34,1.34,0,0,1,.63-.13q1.33,0,2.64.09c.88.06,1.81.09,2.8.09.71,0,1.4,0,2-.09s1.33-.09,2-.09a1.85,1.85,0,0,1,.7.13c.22.08.33.21.33.38a.56.56,0,0,1-.33.49,3.09,3.09,0,0,1-.78.29,4.25,4.25,0,0,0-1.27.45.83.83,0,0,0-.43.77,2.63,2.63,0,0,0,.45,1.3l3.66,6.47q.48.93.81.93a.51.51,0,0,0,.37-.22,5.26,5.26,0,0,0,.48-.71c.6-1,1.14-1.91,1.63-2.85s1-2,1.59-3.07a4.52,4.52,0,0,0,.35-.87,2.47,2.47,0,0,0,.13-.76A1.09,1.09,0,0,0,316.27,8a3.42,3.42,0,0,0-1.22-.39,1.94,1.94,0,0,1-.78-.26c-.27-.15-.4-.32-.4-.52s.11-.29.33-.36a2.17,2.17,0,0,1,.74-.12c.67,0,1.25,0,1.76.08s1.06.07,1.68.07a15.76,15.76,0,0,0,2-.11,16.61,16.61,0,0,1,1.83-.11,2.39,2.39,0,0,1,.76.11.41.41,0,0,1,.31.41c0,.22-.14.39-.44.5s-.62.21-1,.31a4.29,4.29,0,0,0-1.78,1,9.7,9.7,0,0,0-1.44,1.81c-.42.69-.81,1.33-1.18,1.91s-.73,1.13-1.06,1.66-.67,1.08-1,1.63l-1.11,1.83a8.68,8.68,0,0,0-.57,1.15,5.7,5.7,0,0,0-.31,1.07,6.26,6.26,0,0,0-.12,1.3v5.48a2.78,2.78,0,0,0,.63,2,4.13,4.13,0,0,0,2,1,4.32,4.32,0,0,1,.83.26.5.5,0,0,1,.32.48c0,.15-.1.27-.28.37a1.54,1.54,0,0,1-.72.15c-.6,0-1.19,0-1.78-.07s-1.17-.1-1.72-.13-1.1-.06-1.65-.06-1.09,0-1.66.06-1.15.08-1.74.14A15.05,15.05,0,0,1,305.76,30.75Z" transform="translate(-0.63 -4.74)"/><path class="cls-1" d="M15,75.44a15.72,15.72,0,0,1-5.25-.87,13.71,13.71,0,0,1-4.38-2.49,11.86,11.86,0,0,1-3-3.91,12,12,0,0,1,0-9.93,12.74,12.74,0,0,1,3-4.07,14.19,14.19,0,0,1,4.68-2.8,17.08,17.08,0,0,1,6-1,16.63,16.63,0,0,1,2.39.16c.75.11,1.48.25,2.2.41a17.49,17.49,0,0,1,2.11.61,1.77,1.77,0,0,1,.65.41,1.09,1.09,0,0,1,.27.7c.1.74.18,1.47.23,2.2s.07,1.45.07,2.17a.5.5,0,0,1-.26.53.7.7,0,0,1-.63,0,.84.84,0,0,1-.48-.54,19.13,19.13,0,0,0-.68-1.94,4,4,0,0,0-1.17-1.53,6.43,6.43,0,0,0-2.15-1.13,9.51,9.51,0,0,0-3-.43,7.94,7.94,0,0,0-3.63.82,8.41,8.41,0,0,0-2.79,2.25,10.66,10.66,0,0,0-1.79,3.26,11.54,11.54,0,0,0-.63,3.81,17.13,17.13,0,0,0,.57,4.48A11.38,11.38,0,0,0,9,70.36a8.46,8.46,0,0,0,2.83,2.51,7.78,7.78,0,0,0,3.81.91,7.59,7.59,0,0,0,4.44-1.19A9.26,9.26,0,0,0,23,69.08a.84.84,0,0,1,.81-.57c.35,0,.52.21.52.61a7.61,7.61,0,0,1-.11,1.11c-.08.44-.18.92-.32,1.42s-.29,1-.46,1.5a1.64,1.64,0,0,1-.37.66,2,2,0,0,1-.67.41,14.37,14.37,0,0,1-3.31.91A25.08,25.08,0,0,1,15,75.44Z" transform="translate(-0.63 -4.74)"/><path class="cls-1" d="M26.94,75.11A1.75,1.75,0,0,1,26.2,75a.45.45,0,0,1-.3-.43.57.57,0,0,1,.28-.51,2.69,2.69,0,0,1,.72-.34,5.42,5.42,0,0,0,1.87-.9A4.27,4.27,0,0,0,30,71.11c.62-1.45,1.21-2.85,1.78-4.2s1.11-2.68,1.63-4,1-2.69,1.57-4.07,1.07-2.84,1.61-4.37c.27-.76.46-1.35.56-1.77a8,8,0,0,1,.25-.93c.37-.1.72-.19,1-.29s.68-.23,1.07-.37a3.16,3.16,0,0,0,.89-.67c.25-.27.43-.48.56-.63a.47.47,0,0,1,.22-.09c.07,0,.15,0,.22.17a3.43,3.43,0,0,1,.19.44c0,.15.09.31.14.48q.82,2.63,1.69,5.31t1.72,5.29q.84,2.61,1.64,5t1.47,4.38a4.56,4.56,0,0,0,.83,1.59,3.51,3.51,0,0,0,1.11.91,6.31,6.31,0,0,0,1.35.5,2.07,2.07,0,0,1,.74.29.62.62,0,0,1,.26.52.35.35,0,0,1-.24.33,1.38,1.38,0,0,1-.61.12c-.45,0-1,0-1.69,0L48,74.91q-1.06-.06-1.92-.06c-.5,0-1,0-1.65,0L42.57,75C42,75,41.45,75,41,75a1.44,1.44,0,0,1-.64-.13.42.42,0,0,1-.28-.39.61.61,0,0,1,.29-.5,2,2,0,0,1,.71-.28A4.19,4.19,0,0,0,43,73a1.32,1.32,0,0,0,.45-1.35c-.08-.42-.19-.92-.34-1.5s-.3-1.18-.46-1.81-.33-1.21-.5-1.72a.83.83,0,0,0-.22-.43.87.87,0,0,0-.56-.13H34.74a.5.5,0,0,0-.4.17,1.11,1.11,0,0,0-.23.5c-.09.32-.21.68-.35,1.09s-.27.83-.4,1.26-.26.83-.37,1.2a7.43,7.43,0,0,0-.24,1,1.69,1.69,0,0,0,.35,1.57,3.7,3.7,0,0,0,1.87.91q1,.26,1,.78a.39.39,0,0,1-.24.35A1.39,1.39,0,0,1,35,75c-.57,0-1.16,0-1.78-.06s-1.29,0-2,0a19.34,19.34,0,0,0-2.17.11C28.36,75.07,27.65,75.11,26.94,75.11Zm8.8-10.73h5.15c.34,0,.51-.07.51-.22a.53.53,0,0,0,0-.19s0-.12-.05-.22L38.74,55.2c-.1-.34-.19-.51-.26-.51s-.14.16-.26.48l-3.11,8.58a.79.79,0,0,0-.07.3.27.27,0,0,0,.2.26A1.47,1.47,0,0,0,35.74,64.38Z" transform="translate(-0.63 -4.74)"/><path class="cls-1" d="M53.61,75.07a1.25,1.25,0,0,1-.59-.13.39.39,0,0,1-.26-.35c0-.37.31-.61.93-.74a4.68,4.68,0,0,0,2-.81,2.24,2.24,0,0,0,.59-1.74V55A3.64,3.64,0,0,0,55.81,53,2.8,2.8,0,0,0,54,52a1.51,1.51,0,0,1-.74-.31.57.57,0,0,1-.22-.43.4.4,0,0,1,.24-.38,1.31,1.31,0,0,1,.65-.13c.59,0,1.14,0,1.64,0l1.46,0c.47,0,1,0,1.45,0A14.74,14.74,0,0,0,60,50.76l1.48-.14c.51,0,1.09-.08,1.76-.08a12,12,0,0,1,7,1.85,5.93,5.93,0,0,1,2.63,5.11,9.51,9.51,0,0,1-1,4.23,7.41,7.41,0,0,1-2.88,3.13A9.29,9.29,0,0,1,64.2,66a2.94,2.94,0,0,1-1.41-.27c-.32-.19-.48-.39-.48-.61a.47.47,0,0,1,.24-.39A.79.79,0,0,1,63,64.6a3.42,3.42,0,0,1,.65.06,7.17,7.17,0,0,0,.95,0,2.85,2.85,0,0,0,2.64-1.77,10.44,10.44,0,0,0,.91-4.74,7.07,7.07,0,0,0-1.32-4.75A4.44,4.44,0,0,0,63.27,52a2.68,2.68,0,0,0-1.61.42,1.59,1.59,0,0,0-.57,1.35l0,17.36a2.48,2.48,0,0,0,.61,1.83,4.25,4.25,0,0,0,2.09.94,1.57,1.57,0,0,1,.7.24.55.55,0,0,1,.23.46.38.38,0,0,1-.21.37,1.22,1.22,0,0,1-.61.12c-.57,0-1.14,0-1.74-.06l-1.72-.09c-.55,0-1.08,0-1.57,0s-1.1,0-1.68,0S56,75,55.39,75,54.21,75.07,53.61,75.07Z" transform="translate(-0.63 -4.74)"/><path class="cls-1" d="M75.33,75.07a1.25,1.25,0,0,1-.59-.13.39.39,0,0,1-.26-.35c0-.37.31-.61.93-.74a5,5,0,0,0,2-.81,2.08,2.08,0,0,0,.63-1.7V54.54a2.37,2.37,0,0,0-.52-1.74,3.93,3.93,0,0,0-2-.82c-.62-.12-.92-.38-.92-.77a.37.37,0,0,1,.26-.35,1.22,1.22,0,0,1,.59-.13q.89,0,1.74,0l1.64.08c.53,0,1.07,0,1.61,0s1,0,1.57,0l1.65-.08q.85,0,1.74,0a1.12,1.12,0,0,1,.59.13.4.4,0,0,1,.22.38.54.54,0,0,1-.24.47,2,2,0,0,1-.68.27,4.57,4.57,0,0,0-2,.89,2.38,2.38,0,0,0-.52,1.7V71.3A2.08,2.08,0,0,0,83.45,73a5.11,5.11,0,0,0,2,.89,2.63,2.63,0,0,1,.72.26.49.49,0,0,1,.24.44.37.37,0,0,1-.22.37,1.26,1.26,0,0,1-.59.12c-.59,0-1.19,0-1.78,0l-1.72-.08-1.61,0-1.66,0-1.74.1C76.52,75.05,75.92,75.07,75.33,75.07Z" transform="translate(-0.63 -4.74)"/><path class="cls-1" d="M94.76,75.07a1.45,1.45,0,0,1-.65-.13.38.38,0,0,1-.28-.35.56.56,0,0,1,.26-.48,1.77,1.77,0,0,1,.74-.26A4.93,4.93,0,0,0,96.9,73a2.11,2.11,0,0,0,.67-1.76v-15c0-1,0-1.78-.08-2.3a3.53,3.53,0,0,0-.2-1,.52.52,0,0,0-.39-.32,3.12,3.12,0,0,0-.92-.18c-.37,0-.73,0-1.08,0H93.76a4.58,4.58,0,0,0-2.07.5,3.82,3.82,0,0,0-1.56,1.35c-.1.15-.25.36-.46.63a6,6,0,0,1-.67.74,1,1,0,0,1-.72.33.36.36,0,0,1-.35-.18.91.91,0,0,1-.09-.41,2,2,0,0,1,.22-.89,16.56,16.56,0,0,0,.94-2.2A10,10,0,0,0,89.43,50a1,1,0,0,1,.31-.72.87.87,0,0,1,.5-.16c.15,0,.33.15.54.46a8.79,8.79,0,0,0,.57.76,2.33,2.33,0,0,0,1.19.5A7.59,7.59,0,0,0,94,51l13.65,0a7.75,7.75,0,0,0,1.74-.17,6.4,6.4,0,0,0,1.11-.35,3.93,3.93,0,0,0,.89-.69,1,1,0,0,1,.78-.35.29.29,0,0,1,.27.21,1,1,0,0,1,.1.49,3.62,3.62,0,0,1,0,.43c0,.16,0,.3-.07.43-.1.46-.2.88-.3,1.24s-.18.69-.24,1a5.59,5.59,0,0,0-.09,1.06v.63a2.4,2.4,0,0,1-.15.89.51.51,0,0,1-.48.37.58.58,0,0,1-.5-.36,5,5,0,0,1-.43-1.09A3.1,3.1,0,0,0,109.11,53a4.08,4.08,0,0,0-2.44-.58h-2.52a2,2,0,0,0-1.09.26,1.68,1.68,0,0,0-.55,1.13,15.61,15.61,0,0,0-.17,2.68V71.22A2.09,2.09,0,0,0,103,73a5.61,5.61,0,0,0,2.11.9,3,3,0,0,1,.7.26.49.49,0,0,1,.26.44.37.37,0,0,1-.24.37,1.38,1.38,0,0,1-.61.12c-.59,0-1.19,0-1.78,0l-1.76-.08-1.68,0-1.68,0-1.78.1C96,75.05,95.35,75.07,94.76,75.07Z" transform="translate(-0.63 -4.74)"/><path class="cls-1" d="M110.19,75.11a1.75,1.75,0,0,1-.74-.13.45.45,0,0,1-.3-.43.57.57,0,0,1,.28-.51,2.69,2.69,0,0,1,.72-.34,5.42,5.42,0,0,0,1.87-.9,4.27,4.27,0,0,0,1.27-1.69c.62-1.45,1.21-2.85,1.78-4.2s1.11-2.68,1.63-4,1-2.69,1.57-4.07,1.07-2.84,1.61-4.37c.27-.76.46-1.35.56-1.77a8,8,0,0,1,.25-.93c.37-.1.72-.19,1-.29s.68-.23,1.07-.37a3.16,3.16,0,0,0,.89-.67c.25-.27.43-.48.56-.63a.47.47,0,0,1,.22-.09c.07,0,.15,0,.22.17a3.43,3.43,0,0,1,.19.44c0,.15.09.31.14.48.54,1.75,1.11,3.52,1.69,5.31s1.15,3.55,1.72,5.29,1.11,3.41,1.64,5,1,3,1.46,4.38a4.74,4.74,0,0,0,.84,1.59,3.51,3.51,0,0,0,1.11.91,6.31,6.31,0,0,0,1.35.5,2.07,2.07,0,0,1,.74.29.62.62,0,0,1,.26.52.35.35,0,0,1-.24.33A1.38,1.38,0,0,1,135,75c-.45,0-1,0-1.69,0l-2.09-.09q-1.06-.06-1.92-.06c-.5,0-1,0-1.65,0l-1.81.07c-.61,0-1.12,0-1.54,0a1.44,1.44,0,0,1-.64-.13.42.42,0,0,1-.28-.39.61.61,0,0,1,.29-.5,1.89,1.89,0,0,1,.71-.28,4.24,4.24,0,0,0,1.92-.68,1.3,1.3,0,0,0,.44-1.35q-.1-.63-.33-1.5c-.15-.58-.3-1.18-.46-1.81s-.33-1.21-.5-1.72a.83.83,0,0,0-.22-.43.87.87,0,0,0-.56-.13H118a.5.5,0,0,0-.4.17,1.11,1.11,0,0,0-.23.5c-.09.32-.21.68-.35,1.09s-.27.83-.4,1.26-.26.83-.37,1.2a7.66,7.66,0,0,0-.25,1,1.71,1.71,0,0,0,.36,1.57,3.7,3.7,0,0,0,1.86.91c.67.17,1,.43,1,.78a.39.39,0,0,1-.24.35,1.42,1.42,0,0,1-.68.13c-.57,0-1.16,0-1.78-.06s-1.29,0-2,0a19.34,19.34,0,0,0-2.17.11C111.61,75.07,110.9,75.11,110.19,75.11ZM119,64.38h5.14c.35,0,.52-.07.52-.22a.53.53,0,0,0,0-.19s0-.12,0-.22L122,55.2c-.1-.34-.19-.51-.26-.51s-.14.16-.26.48l-3.11,8.58a.79.79,0,0,0-.07.3.27.27,0,0,0,.2.26A1.47,1.47,0,0,0,119,64.38Z" transform="translate(-0.63 -4.74)"/><path class="cls-1" d="M137,75.11a1,1,0,0,1-.63-.17.43.43,0,0,1-.22-.35.52.52,0,0,1,.26-.46,1.87,1.87,0,0,1,.52-.24,5.26,5.26,0,0,0,2-.83,2,2,0,0,0,.63-1.65v-17a3.16,3.16,0,0,0-.21-1.3,1.41,1.41,0,0,0-.7-.68,6.52,6.52,0,0,0-1.46-.43c-.64-.12-1-.38-1-.77a.37.37,0,0,1,.26-.35,1.25,1.25,0,0,1,.59-.13c.61,0,1.2,0,1.76,0l1.61.08c.51,0,1,0,1.55,0s1.14,0,1.72,0l1.78-.08,1.75,0a1.1,1.1,0,0,1,.59.13.41.41,0,0,1,.23.38.54.54,0,0,1-.24.47,2.06,2.06,0,0,1-.69.27,8.31,8.31,0,0,0-2.13.8,1.63,1.63,0,0,0-.68,1.5V71.19a2.2,2.2,0,0,0,.48,1.57,2.53,2.53,0,0,0,1.81.5h4a3.93,3.93,0,0,0,1.55-.3,3.41,3.41,0,0,0,1.15-.74A6.78,6.78,0,0,0,154.44,71a12.43,12.43,0,0,0,.85-1.56,4.74,4.74,0,0,1,.48-.85.61.61,0,0,1,.44-.3.38.38,0,0,1,.37.25,1.07,1.07,0,0,1,.12.49s0,.1,0,.23a1.23,1.23,0,0,0,0,.29c-.2.72-.36,1.33-.5,1.85s-.25,1-.33,1.5-.17,1-.24,1.57a1.62,1.62,0,0,1-.15.47.46.46,0,0,1-.44.2c-.74,0-1.63,0-2.67,0L149,75,145.5,75c-1.17,0-2.27,0-3.31,0-.54,0-1.16,0-1.87,0l-2,.09C137.73,75.09,137.28,75.11,137,75.11Z" transform="translate(-0.63 -4.74)"/><path class="cls-1" d="M179.45,75.44a13.68,13.68,0,0,1-5-.89,13.05,13.05,0,0,1-4.12-2.49,11.4,11.4,0,0,1-3.83-8.72,12.34,12.34,0,0,1,1-5,13,13,0,0,1,2.87-4.13,13.75,13.75,0,0,1,4.39-2.85,14.47,14.47,0,0,1,5.6-1,13.72,13.72,0,0,1,1.74.13c.69.08,1.41.19,2.15.31s1.42.26,2,.41a9.11,9.11,0,0,1,1.46.44,1.29,1.29,0,0,1,.41.28.77.77,0,0,1,.18.46c.13.82.23,1.59.3,2.33s.11,1.38.11,1.93a.87.87,0,0,1-.17.52.52.52,0,0,1-.42.22.67.67,0,0,1-.59-.28,4,4,0,0,1-.34-.61,13.38,13.38,0,0,0-.66-1.31A6.38,6.38,0,0,0,185.7,54a5.82,5.82,0,0,0-1-.8,6.69,6.69,0,0,0-1.65-.72,8.6,8.6,0,0,0-2.44-.3,7.9,7.9,0,0,0-3.67.84,7.78,7.78,0,0,0-2.73,2.31,11.16,11.16,0,0,0-1.71,3.35,12.92,12.92,0,0,0-.59,3.9,16.84,16.84,0,0,0,.59,4.61,11,11,0,0,0,1.67,3.51,7.34,7.34,0,0,0,2.55,2.24,7.05,7.05,0,0,0,3.33.78,4.6,4.6,0,0,0,2.09-.39,5.2,5.2,0,0,0,1.09-.69,2.31,2.31,0,0,0,.67-1,5,5,0,0,0,.3-1.55c0-.22,0-.5,0-.85s0-.69,0-1,0-.63,0-.85a1.81,1.81,0,0,0-.13-.72,1,1,0,0,0-.5-.5,3.73,3.73,0,0,0-.85-.46,5.79,5.79,0,0,0-1.06-.3l-.86-.13a1.22,1.22,0,0,1-.56-.24.58.58,0,0,1-.3-.5.49.49,0,0,1,.28-.44,1.08,1.08,0,0,1,.5-.15c.57,0,1.15,0,1.76,0l1.81.07c.61,0,1.19,0,1.76,0s1.37,0,2-.07,1.38-.08,2.09-.08a1.08,1.08,0,0,1,.47.13.48.48,0,0,1,.24.46.56.56,0,0,1-.26.48,1.29,1.29,0,0,1-.48.23,2.63,2.63,0,0,0-1.35.66A2.25,2.25,0,0,0,188.4,67c-.1.54-.16,1-.2,1.44s-.06.87-.06,1.33v1.15a.49.49,0,0,0,.13.33l.28.34c.1.12.19.24.28.37a.6.6,0,0,1,.13.37.92.92,0,0,1-.13.46.7.7,0,0,1-.54.31,5.25,5.25,0,0,0-1,.41c-.49.25-1.11.53-1.87.83a15.43,15.43,0,0,1-6,1.13Z" transform="translate(-0.63 -4.74)"/><path class="cls-1" d="M215.75,75.7a10,10,0,0,1-2.78-.35,5.79,5.79,0,0,1-2-1,9.15,9.15,0,0,1-1.56-1.55l-1.59-2.17c-.52-.7-1-1.48-1.57-2.33s-1.12-1.86-1.76-3A3.16,3.16,0,0,0,203.24,64a4.12,4.12,0,0,0-1.81-.48.31.31,0,0,0-.34.19,1.25,1.25,0,0,0-.11.55v6.88a2.48,2.48,0,0,0,.61,1.78,4.2,4.2,0,0,0,2.09,1,1.67,1.67,0,0,1,.71.24.54.54,0,0,1,.22.46.38.38,0,0,1-.21.37,1.19,1.19,0,0,1-.61.12c-.56,0-1.14,0-1.73-.06l-1.72-.09c-.56,0-1.08,0-1.58,0s-1.1,0-1.68,0-1.17.06-1.76.11-1.18.07-1.77.07a1.29,1.29,0,0,1-.6-.13.39.39,0,0,1-.26-.35c0-.37.31-.61.93-.74a4.62,4.62,0,0,0,2-.81,2.24,2.24,0,0,0,.59-1.74V54.94A6.21,6.21,0,0,0,196,53.3a1.46,1.46,0,0,0-.64-.87A4.07,4.07,0,0,0,194,52a1.24,1.24,0,0,1-.74-.29.64.64,0,0,1-.22-.45.4.4,0,0,1,.24-.38,1.34,1.34,0,0,1,.65-.13q1.11,0,1.77,0l1.28.1c.41,0,.9,0,1.46,0a12.45,12.45,0,0,0,1.45-.07l1.4-.15c.52,0,1.19-.07,2-.07a11.84,11.84,0,0,1,6.51,1.48A5,5,0,0,1,212,56.61a5.47,5.47,0,0,1-.7,2.83,6.33,6.33,0,0,1-1.76,1.91,9.42,9.42,0,0,1-2.17,1.14.17.17,0,0,0-.13.19.53.53,0,0,0,.13.26c.74,1.13,1.47,2.21,2.17,3.23a32.76,32.76,0,0,0,2.22,2.91,29.73,29.73,0,0,0,2.53,2.63A4.61,4.61,0,0,0,216.65,73a14.54,14.54,0,0,0,2.5.21.49.49,0,0,1,.56.55,1.41,1.41,0,0,1-.56,1.17,3.7,3.7,0,0,1-1.46.61A10,10,0,0,1,215.75,75.7ZM202.57,62.42a4.44,4.44,0,0,0,2.54-.69,4.33,4.33,0,0,0,1.55-1.83,5.88,5.88,0,0,0,.54-2.55,8.68,8.68,0,0,0-.41-2.83,3.42,3.42,0,0,0-1.39-1.81,4.72,4.72,0,0,0-2.68-.65,1.34,1.34,0,0,0-1.31.68A7.13,7.13,0,0,0,201,55.5c0,.57,0,1.31,0,2.24v3.31a1.19,1.19,0,0,0,.43,1.09A2.05,2.05,0,0,0,202.57,62.42Z" transform="translate(-0.63 -4.74)"/><path class="cls-1" d="M232.73,75.44a13.44,13.44,0,0,1-4.81-.87,12.35,12.35,0,0,1-4-2.48,11.77,11.77,0,0,1-2.78-3.84,11.89,11.89,0,0,1-1-5,14,14,0,0,1,.84-4.83,12,12,0,0,1,2.48-4.12,11.88,11.88,0,0,1,4.07-2.89,13.61,13.61,0,0,1,5.6-1.07,13.26,13.26,0,0,1,4.79.87,12.56,12.56,0,0,1,4.05,2.48,11.54,11.54,0,0,1,2.8,3.84,11.89,11.89,0,0,1,1,5,14.08,14.08,0,0,1-.84,4.81,12,12,0,0,1-2.48,4.14,11.88,11.88,0,0,1-4.07,2.89A13.78,13.78,0,0,1,232.73,75.44Zm.63-1.63a6.3,6.3,0,0,0,3.9-1.18,7.13,7.13,0,0,0,2.37-3.31,14,14,0,0,0,.79-4.9,21.66,21.66,0,0,0-.48-4.59,13.85,13.85,0,0,0-1.48-4A8.34,8.34,0,0,0,236,53.06a6.13,6.13,0,0,0-3.57-1,6.31,6.31,0,0,0-3.91,1.19,7,7,0,0,0-2.35,3.29,14,14,0,0,0-.77,4.88,21.66,21.66,0,0,0,.48,4.59,14.5,14.5,0,0,0,1.46,4,8.09,8.09,0,0,0,2.48,2.81A6.13,6.13,0,0,0,233.36,73.81Z" transform="translate(-0.63 -4.74)"/><path class="cls-1" d="M260.77,75.44A12,12,0,0,1,255,74.22a8,8,0,0,1-3.44-3.4,10.79,10.79,0,0,1-1.15-5.11V54.91A3.46,3.46,0,0,0,250,53a2.23,2.23,0,0,0-1.31-1q-1.11-.3-1.11-.81c0-.15.1-.27.29-.35a1.82,1.82,0,0,1,.74-.13c.69,0,1.42,0,2.17.07s1.48.08,2.2.08,1.37,0,2.2-.06,1.54-.06,2.13-.06a1.87,1.87,0,0,1,.72.12.37.37,0,0,1,.28.36c0,.25-.16.43-.47.54s-.67.25-1.09.43a2.39,2.39,0,0,0-1,.9,3.3,3.3,0,0,0-.46,1.87v10a9.58,9.58,0,0,0,.89,4.39,5.78,5.78,0,0,0,2.37,2.53,6.68,6.68,0,0,0,3.33.82,6.14,6.14,0,0,0,5.21-2.22,10.26,10.26,0,0,0,1.71-6.37V61.9c0-.84,0-1.71,0-2.61s0-1.76-.06-2.57a11.54,11.54,0,0,0-.2-2.35,4.41,4.41,0,0,0-.57-1.44,2.39,2.39,0,0,0-1-.83l-.87-.34c-.33-.12-.5-.28-.5-.48a.39.39,0,0,1,.3-.4,2,2,0,0,1,.77-.12c.79,0,1.4,0,1.83,0s.93,0,1.5,0l1.13,0c.33,0,.66,0,1-.06s.69,0,1.11,0a2.16,2.16,0,0,1,.7.09.36.36,0,0,1,.26.39c0,.34-.35.6-1.07.77a2.44,2.44,0,0,0-1.59,1.08,4.58,4.58,0,0,0-.52,2c-.1,1.95-.16,3.74-.2,5.37s-.07,3.27-.09,4.92a10.64,10.64,0,0,1-1.35,5.23,9.53,9.53,0,0,1-3.54,3.56A9.77,9.77,0,0,1,260.77,75.44Z" transform="translate(-0.63 -4.74)"/><path class="cls-1" d="M276,75.07a1.25,1.25,0,0,1-.59-.13.39.39,0,0,1-.26-.35c0-.37.31-.61.92-.74a4.57,4.57,0,0,0,2-.81,2.21,2.21,0,0,0,.59-1.74V55a3.65,3.65,0,0,0-.46-2.07,2.82,2.82,0,0,0-1.79-1,1.51,1.51,0,0,1-.74-.31.57.57,0,0,1-.22-.43.4.4,0,0,1,.24-.38,1.3,1.3,0,0,1,.64-.13c.6,0,1.14,0,1.65,0l1.46,0c.47,0,.95,0,1.45,0a14.74,14.74,0,0,0,1.53-.08l1.48-.14c.51,0,1.09-.08,1.76-.08a12,12,0,0,1,7,1.85,5.92,5.92,0,0,1,2.62,5.11,9.51,9.51,0,0,1-.94,4.23,7.37,7.37,0,0,1-2.89,3.13,9.24,9.24,0,0,1-4.9,1.18,2.92,2.92,0,0,1-1.4-.27c-.32-.19-.48-.39-.48-.61a.47.47,0,0,1,.24-.39.79.79,0,0,1,.42-.17,3.49,3.49,0,0,1,.65.06,7,7,0,0,0,.94,0,2.87,2.87,0,0,0,2.65-1.77,10.59,10.59,0,0,0,.9-4.74c0-2.17-.43-3.75-1.31-4.75a4.46,4.46,0,0,0-3.53-1.5,2.68,2.68,0,0,0-1.61.42,1.59,1.59,0,0,0-.57,1.35l0,17.36a2.48,2.48,0,0,0,.61,1.83,4.25,4.25,0,0,0,2.09.94,1.62,1.62,0,0,1,.7.24.54.54,0,0,1,.22.46.37.37,0,0,1-.2.37,1.24,1.24,0,0,1-.61.12q-.86,0-1.74-.06l-1.72-.09c-.56,0-1.08,0-1.57,0s-1.11,0-1.69,0-1.16.06-1.75.11S276.57,75.07,276,75.07Z" transform="translate(-0.63 -4.74)"/></g></g></svg>