<svg width="208" height="10" viewBox="0 0 208 10" fill="none" xmlns="http://www.w3.org/2000/svg">
<path d="M3.89648 9.27951C3.89648 9.07899 3.82357 8.96506 3.67773 8.93771C3.63216 8.9286 3.58659 8.92404 3.54102 8.92404H2.81641V1.43185H3.89648V1.07639H0.546875V1.43185H1.64062V8.92404H0.546875V9.27951H3.89648ZM11.3613 2.93576C11.3613 2.24305 11.0332 1.72808 10.377 1.39084C9.94857 1.1812 9.43359 1.07639 8.83203 1.07639H4.99023V1.43185H6.08398V8.92404H4.99023V9.27951H8.87305C10.0488 9.27951 10.9102 8.90581 11.457 8.15842C11.7396 7.76649 11.8809 7.3381 11.8809 6.87326C11.8809 6.14409 11.5573 5.57899 10.9102 5.17795C10.6094 5.00477 10.263 4.88172 9.87109 4.80881C10.5273 4.56271 10.9785 4.148 11.2246 3.56467C11.3158 3.34592 11.3613 3.13628 11.3613 2.93576ZM8.50391 1.43185C9.44271 1.43185 9.97591 1.84657 10.1035 2.67599C10.1217 2.79448 10.1309 2.91753 10.1309 3.04514C10.1309 3.63758 9.89844 4.0842 9.43359 4.38498C9.16016 4.55816 8.84115 4.64474 8.47656 4.64474H7.25977V1.43185H8.50391ZM8.73633 5.01389C9.56576 5.01389 10.1217 5.3648 10.4043 6.06662C10.5137 6.32183 10.5684 6.59982 10.5684 6.9006C10.5684 7.60243 10.3405 8.1493 9.88477 8.54123C9.58398 8.79644 9.22396 8.92404 8.80469 8.92404H7.25977V5.01389H8.73633ZM19.4141 3.53732L19.3457 1.07639H13.043V1.43185H14.1367V8.92404H13.043V9.27951H19.3457L19.4141 6.81857H19.1406L18.9492 7.46115C18.7214 8.23589 18.3841 8.70073 17.9375 8.85568C17.8008 8.90126 17.6549 8.92404 17.5 8.92404H15.3125V5.24631H18.1289V4.84982H15.3125V1.43185H17.5C18.1562 1.43185 18.6257 1.87391 18.9082 2.75803C18.9264 2.81271 18.9401 2.85829 18.9492 2.89474L19.1406 3.53732H19.4141ZM23.9941 9.27951V8.92404H22.9141V5.51974H24.2129L26.4004 9.27951H28.4648C28.4648 9.07899 28.4102 8.96506 28.3008 8.93771C28.2552 8.9286 28.2005 8.92404 28.1367 8.92404H27.6172L25.416 5.3967C26.2819 5.18706 26.8743 4.73589 27.1934 4.04318C27.3118 3.76974 27.3711 3.49175 27.3711 3.2092C27.3711 2.5256 27.0749 1.97873 26.4824 1.56857C25.9993 1.24045 25.4023 1.07639 24.6914 1.07639H20.6445V1.43185H21.7383V8.92404H20.6445V9.27951H23.9941ZM24.2812 1.43185C25.0651 1.43185 25.6074 1.75086 25.9082 2.38889C26.0267 2.65321 26.0859 2.9312 26.0859 3.22287C26.0859 3.87912 25.8581 4.38954 25.4023 4.75412C25.0924 5.00021 24.7324 5.12326 24.3223 5.12326H22.9141V1.43185H24.2812ZM32.3613 9.27951C32.3613 9.07899 32.2884 8.96506 32.1426 8.93771C32.097 8.9286 32.0514 8.92404 32.0059 8.92404H31.2812V1.43185H32.3613V1.07639H29.0117V1.43185H30.1055V8.92404H29.0117V9.27951H32.3613ZM41.2891 9.27951C41.2891 9.07899 41.2161 8.96506 41.0703 8.93771C41.0247 8.9286 40.9792 8.92404 40.9336 8.92404H40.4688L37.3379 1.07639H36.832L33.7695 8.92404H32.9082V9.27951H35.3418C35.3418 9.07899 35.2689 8.96506 35.123 8.93771C35.0775 8.9286 35.0319 8.92404 34.9863 8.92404H34.3164L35.3418 6.2717H38.1992L39.2246 8.92404H38.3359V9.27951H41.2891ZM38.0488 5.87521H35.4922L36.7637 2.56662L38.0488 5.87521ZM47.8516 9.27951C47.8516 9.07899 47.7786 8.96506 47.6328 8.93771C47.5872 8.9286 47.5417 8.92404 47.4961 8.92404H46.7715V1.43185H47.8516V1.07639H44.502V1.43185H45.5957V8.92404H44.502V9.27951H47.8516ZM54.6055 1.43185H55.7676V7.55685L50.5723 1.07639H48.6719V1.43185H49.7656V8.92404H48.6719V9.27951H51.4746C51.4746 9.07899 51.4017 8.96506 51.2559 8.93771C51.2103 8.9286 51.1647 8.92404 51.1191 8.92404H50.3125V2.59396L55.6855 9.34787L56.3145 9.21115V1.43185H57.4082V1.07639H54.6055V1.43185ZM58.0918 1.07639V1.43185H59.1855V8.92404H58.0918V9.27951H61.8652C63.0957 9.27951 64.1074 8.8967 64.9004 8.13107C65.6842 7.37456 66.0762 6.39019 66.0762 5.17795C66.0762 3.61024 65.502 2.4618 64.3535 1.73264C63.6517 1.29514 62.8359 1.07639 61.9062 1.07639H58.0918ZM61.8652 1.43185C63.3053 1.43185 64.2031 2.0881 64.5586 3.4006C64.6953 3.88368 64.7637 4.4579 64.7637 5.12326C64.7637 7.39279 63.9889 8.64605 62.4395 8.88303C62.2663 8.91037 62.0885 8.92404 61.9062 8.92404H60.3613V1.43185H61.8652ZM66.9648 1.43185H68.0586V6.20334C68.0768 8.33615 69.1387 9.40711 71.2441 9.41623C72.8483 9.41623 73.819 8.75998 74.1562 7.44748C74.2565 7.04644 74.3066 6.59071 74.3066 6.08029V1.43185H75.4004V1.07639H72.7344V1.43185H73.8281V6.16232C73.8281 7.93055 73.1719 8.88303 71.8594 9.01974C71.75 9.02886 71.6406 9.03342 71.5312 9.03342C70.4193 9.03342 69.7174 8.56402 69.4258 7.62521C69.2982 7.21506 69.2344 6.71376 69.2344 6.12131V1.43185H70.3145V1.07639H66.9648V1.43185ZM82.1133 7.13303C82.1133 6.32183 81.6758 5.67014 80.8008 5.17795C80.6276 5.0868 80.0944 4.84527 79.2012 4.45334C78.39 4.10698 77.8796 3.75152 77.6699 3.38693C77.5605 3.18641 77.5059 2.97222 77.5059 2.74435C77.5059 2.13368 77.8021 1.70985 78.3945 1.47287C78.6497 1.37261 78.9323 1.32248 79.2422 1.32248C80.0078 1.32248 80.5911 1.58224 80.9922 2.10178C81.2565 2.45724 81.3841 2.89019 81.375 3.4006H81.7852V1.00803C81.5664 1.00803 81.4388 1.07639 81.4023 1.2131C81.3841 1.27691 81.375 1.36349 81.375 1.47287C80.7279 1.1174 79.9987 0.939667 79.1875 0.939667C78.2031 0.939667 77.4375 1.2131 76.8906 1.75998C76.526 2.14279 76.3438 2.58941 76.3438 3.09982C76.3438 3.86545 76.7721 4.4898 77.6289 4.97287C77.7839 5.0549 78.3034 5.28732 79.1875 5.67014C80.0078 6.03472 80.5273 6.40386 80.7461 6.77756C80.8646 6.98719 80.9238 7.21506 80.9238 7.46115C80.9238 8.09917 80.6139 8.55946 79.9941 8.84201C79.7025 8.96961 79.3789 9.03342 79.0234 9.03342C77.6289 9.01519 76.8542 8.16297 76.6992 6.47678H76.2891V9.30685C76.5078 9.30685 76.6354 9.24305 76.6719 9.11545C76.6901 9.04253 76.6992 8.91037 76.6992 8.71896C77.401 9.18381 78.1986 9.41623 79.0918 9.41623C80.14 9.41623 80.9512 9.13368 81.5254 8.56857C81.9173 8.16753 82.1133 7.68902 82.1133 7.13303ZM88.5664 9.27951C88.5664 9.07899 88.4935 8.96506 88.3477 8.93771C88.3021 8.9286 88.2565 8.92404 88.2109 8.92404H87.2812V1.43185H88.0742C88.8125 1.43185 89.3047 1.87847 89.5508 2.7717C89.5508 2.80816 89.5553 2.8355 89.5645 2.85373L89.7832 3.76974H90.166L90.0977 1.07639H83.3438L83.2754 3.76974H83.6582L83.877 2.85373C84.1686 1.9605 84.6654 1.48654 85.3672 1.43185H86.1055V8.92404H84.8066V9.27951H88.5664ZM94.541 9.27951V8.92404H93.4609V5.51974H94.7598L96.9473 9.27951H99.0117C99.0117 9.07899 98.957 8.96506 98.8477 8.93771C98.8021 8.9286 98.7474 8.92404 98.6836 8.92404H98.1641L95.9629 5.3967C96.8288 5.18706 97.4212 4.73589 97.7402 4.04318C97.8587 3.76974 97.918 3.49175 97.918 3.2092C97.918 2.5256 97.6217 1.97873 97.0293 1.56857C96.5462 1.24045 95.9492 1.07639 95.2383 1.07639H91.1914V1.43185H92.2852V8.92404H91.1914V9.27951H94.541ZM94.8281 1.43185C95.612 1.43185 96.1543 1.75086 96.4551 2.38889C96.5736 2.65321 96.6328 2.9312 96.6328 3.22287C96.6328 3.87912 96.4049 4.38954 95.9492 4.75412C95.6393 5.00021 95.2793 5.12326 94.8691 5.12326H93.4609V1.43185H94.8281ZM104.521 9.27951C104.521 9.07899 104.449 8.96506 104.303 8.93771C104.257 8.9286 104.212 8.92404 104.166 8.92404H103.428V5.87521L105.492 1.81467C105.702 1.56857 105.948 1.44097 106.23 1.43185C106.431 1.43185 106.545 1.35894 106.572 1.2131C106.581 1.16753 106.586 1.12196 106.586 1.07639H104.152V1.43185H105.246L103.168 5.41037L100.994 1.43185H102.033V1.07639H98.9434V1.43185H99.6953L102.266 6.01193V8.92404H101.172V9.27951H104.521ZM116.744 8.6506C116.744 9.03342 116.799 9.25217 116.908 9.30685C116.972 9.3342 117.059 9.34787 117.168 9.34787V6.76389H116.84C116.375 8.26779 115.445 9.0243 114.051 9.03342C112.866 9.03342 112.059 8.43641 111.631 7.2424C111.421 6.65907 111.316 5.97092 111.316 5.17795C111.316 3.47352 111.786 2.31597 112.725 1.70529C113.135 1.45008 113.59 1.32248 114.092 1.32248C115.231 1.32248 116.056 1.86024 116.566 2.93576C116.658 3.12717 116.735 3.32313 116.799 3.52365H117.127L117.086 1.00803C116.885 1.00803 116.762 1.07183 116.717 1.19943C116.689 1.30881 116.676 1.48654 116.676 1.73264C116.411 1.46831 115.96 1.25412 115.322 1.09006C114.903 0.989797 114.475 0.939667 114.037 0.939667C112.597 0.939667 111.494 1.47287 110.729 2.53928C110.2 3.29579 109.936 4.16623 109.936 5.1506C109.936 6.34461 110.305 7.34722 111.043 8.15842C111.827 8.99696 112.848 9.41623 114.105 9.41623C115.026 9.40711 115.906 9.15191 116.744 8.6506ZM126.164 9.27951C126.164 9.07899 126.091 8.96506 125.945 8.93771C125.9 8.9286 125.854 8.92404 125.809 8.92404H125.344L122.213 1.07639H121.707L118.645 8.92404H117.783V9.27951H120.217C120.217 9.07899 120.144 8.96506 119.998 8.93771C119.952 8.9286 119.907 8.92404 119.861 8.92404H119.191L120.217 6.2717H123.074L124.1 8.92404H123.211V9.27951H126.164ZM122.924 5.87521H120.367L121.639 2.56662L122.924 5.87521ZM130.471 1.43185C131.282 1.43185 131.806 1.79644 132.043 2.5256C132.116 2.76258 132.152 3.01779 132.152 3.29123C132.152 4.47613 131.624 5.12782 130.566 5.24631C130.457 5.25542 130.348 5.25998 130.238 5.25998H128.98V1.43185H130.471ZM130.348 9.27951C130.348 9.07899 130.275 8.96506 130.129 8.93771C130.083 8.9286 130.038 8.92404 129.992 8.92404H128.98V5.65646H130.184C131.678 5.65646 132.667 5.23264 133.15 4.38498C133.342 4.06597 133.438 3.69683 133.438 3.27756C133.438 2.37521 133.046 1.74175 132.262 1.37717C131.842 1.17665 131.341 1.07639 130.758 1.07639H126.711V1.43185H127.805V8.92404H126.711V9.27951H130.348ZM137.744 9.27951C137.744 9.07899 137.671 8.96506 137.525 8.93771C137.48 8.9286 137.434 8.92404 137.389 8.92404H136.664V1.43185H137.744V1.07639H134.395V1.43185H135.488V8.92404H134.395V9.27951H137.744ZM144.061 9.27951C144.061 9.07899 143.988 8.96506 143.842 8.93771C143.796 8.9286 143.751 8.92404 143.705 8.92404H142.775V1.43185H143.568C144.307 1.43185 144.799 1.87847 145.045 2.7717C145.045 2.80816 145.049 2.8355 145.059 2.85373L145.277 3.76974H145.66L145.592 1.07639H138.838L138.77 3.76974H139.152L139.371 2.85373C139.663 1.9605 140.16 1.48654 140.861 1.43185H141.6V8.92404H140.301V9.27951H144.061ZM154.52 9.27951C154.52 9.07899 154.447 8.96506 154.301 8.93771C154.255 8.9286 154.21 8.92404 154.164 8.92404H153.699L150.568 1.07639H150.062L147 8.92404H146.139V9.27951H148.572C148.572 9.07899 148.499 8.96506 148.354 8.93771C148.308 8.9286 148.262 8.92404 148.217 8.92404H147.547L148.572 6.2717H151.43L152.455 8.92404H151.566V9.27951H154.52ZM151.279 5.87521H148.723L149.994 2.56662L151.279 5.87521ZM161.055 9.27951L161.123 6.54514H160.85L160.617 7.46115C160.398 8.29969 160.034 8.77821 159.523 8.8967C159.414 8.91493 159.309 8.92404 159.209 8.92404H157.336V1.43185H158.484V1.07639H155.066V1.43185H156.16V8.92404H155.066V9.27951H161.055ZM169.6 5.5881V5.94357H170.83V8.07639C170.374 8.62326 169.764 8.9286 168.998 8.9924C168.925 9.00152 168.852 9.00607 168.779 9.00607C166.965 8.98784 166.054 7.7118 166.045 5.17795C166.045 3.00868 166.701 1.75086 168.014 1.40451C168.242 1.34982 168.483 1.32248 168.738 1.32248C169.677 1.32248 170.356 1.58224 170.775 2.10178C171.049 2.45724 171.295 3.01323 171.514 3.76974H171.869L171.801 1.1174L170.611 1.36349C170.037 1.08094 169.426 0.939667 168.779 0.939667C167.686 0.939667 166.747 1.29969 165.963 2.01974C165.106 2.81271 164.678 3.84722 164.678 5.12326C164.678 6.58159 165.197 7.72092 166.236 8.54123C166.993 9.12456 167.84 9.41623 168.779 9.41623C169.463 9.41623 170.083 9.26584 170.639 8.96506C170.712 8.9286 170.771 8.89214 170.816 8.85568L171.979 9.27951V5.94357H173.004V5.5881H169.6ZM177.311 9.27951V8.92404H176.23V5.51974H177.529L179.717 9.27951H181.781C181.781 9.07899 181.727 8.96506 181.617 8.93771C181.572 8.9286 181.517 8.92404 181.453 8.92404H180.934L178.732 5.3967C179.598 5.18706 180.191 4.73589 180.51 4.04318C180.628 3.76974 180.688 3.49175 180.688 3.2092C180.688 2.5256 180.391 1.97873 179.799 1.56857C179.316 1.24045 178.719 1.07639 178.008 1.07639H173.961V1.43185H175.055V8.92404H173.961V9.27951H177.311ZM177.598 1.43185C178.382 1.43185 178.924 1.75086 179.225 2.38889C179.343 2.65321 179.402 2.9312 179.402 3.22287C179.402 3.87912 179.174 4.38954 178.719 4.75412C178.409 5.00021 178.049 5.12326 177.639 5.12326H176.23V1.43185H177.598ZM186.635 0.939667C185.541 0.939667 184.602 1.29969 183.818 2.01974C182.962 2.81271 182.533 3.84722 182.533 5.12326C182.533 6.59982 183.039 7.73915 184.051 8.54123C184.789 9.12456 185.637 9.41623 186.594 9.41623C187.669 9.41623 188.594 9.05165 189.369 8.32248C190.235 7.51128 190.668 6.4631 190.668 5.17795C190.668 3.67404 190.144 2.53016 189.096 1.74631C188.385 1.20855 187.564 0.939667 186.635 0.939667ZM186.635 9.03342C185.313 9.03342 184.465 8.32704 184.092 6.91428C183.964 6.41297 183.9 5.8342 183.9 5.17795C183.9 3.00868 184.557 1.75086 185.869 1.40451C186.097 1.34982 186.339 1.32248 186.594 1.32248C188.389 1.34071 189.292 2.60764 189.301 5.12326C189.301 7.11024 188.749 8.34527 187.646 8.82834C187.337 8.96506 186.999 9.03342 186.635 9.03342ZM191.557 1.43185H192.65V6.20334C192.669 8.33615 193.73 9.40711 195.836 9.41623C197.44 9.41623 198.411 8.75998 198.748 7.44748C198.848 7.04644 198.898 6.59071 198.898 6.08029V1.43185H199.992V1.07639H197.326V1.43185H198.42V6.16232C198.42 7.93055 197.764 8.88303 196.451 9.01974C196.342 9.02886 196.232 9.03342 196.123 9.03342C195.011 9.03342 194.309 8.56402 194.018 7.62521C193.89 7.21506 193.826 6.71376 193.826 6.12131V1.43185H194.906V1.07639H191.557V1.43185ZM204.367 1.43185C205.178 1.43185 205.702 1.79644 205.939 2.5256C206.012 2.76258 206.049 3.01779 206.049 3.29123C206.049 4.47613 205.52 5.12782 204.463 5.24631C204.354 5.25542 204.244 5.25998 204.135 5.25998H202.877V1.43185H204.367ZM204.244 9.27951C204.244 9.07899 204.171 8.96506 204.025 8.93771C203.98 8.9286 203.934 8.92404 203.889 8.92404H202.877V5.65646H204.08C205.575 5.65646 206.564 5.23264 207.047 4.38498C207.238 4.06597 207.334 3.69683 207.334 3.27756C207.334 2.37521 206.942 1.74175 206.158 1.37717C205.739 1.17665 205.238 1.07639 204.654 1.07639H200.607V1.43185H201.701V8.92404H200.607V9.27951H204.244Z" fill="#1C2E3A"/>
</svg>
