<svg xmlns="http://www.w3.org/2000/svg" data-name="Layer 1" viewBox="0 0 64 80" x="0px" y="0px"><path d="M19,41H13a1,1,0,0,0-1,1v3.323L7.629,47.071A1,1,0,0,0,7,48v6.292C3.717,55.43,3,56.919,3,58c0,3.283,6.54,5,13,5s13-1.717,13-5c0-1.081-.717-2.57-4-3.708V50.66l15.773-9.672A26.348,26.348,0,0,0,49,42.17c5.963,0,12-1.6,12-4.67,0-1.015-.661-2.406-3.667-3.465v-5.7a1,1,0,0,0-.629-.928L52.75,25.823v-2.99a1,1,0,0,0-1-1h-5.5a1,1,0,0,0-1,1v2.99L41.3,27.405a1,1,0,0,0-.629.928v.626L23.935,24.925a3.012,3.012,0,0,0,.065-.6c0-1.81-1.615-3.346-4.25-4.131V18.2l23.312-5.1A8.74,8.74,0,0,0,49,15c3.99,0,7-1.784,7-4.15,0-1.479-1.229-2.782-3.25-3.516V2a1,1,0,0,0-1-1h-5.5a1,1,0,0,0-1,1V7.334C43.229,8.068,42,9.371,42,10.85a2.759,2.759,0,0,0,.034.429L19.75,16.157V13a1,1,0,0,0-1-1h-5.5a1,1,0,0,0-1,1v7.2C9.615,20.984,8,22.52,8,24.33,8,26.992,11.439,29,16,29c3.029,0,5.555-.888,6.916-2.263l17.751,4.28v3.018C37.661,35.094,37,36.485,37,37.5a3.041,3.041,0,0,0,1.618,2.463L25,48.314V48a1,1,0,0,0-.629-.929L20,45.323V42A1,1,0,0,0,19,41ZM47.25,3h3.5V9.52h-3.5Zm-2,6.51v1.01a1,1,0,0,0,1,1h5.5a1,1,0,0,0,1-1V9.51c.818.426,1.25.941,1.25,1.34,0,.877-1.948,2.15-5,2.15s-5-1.273-5-2.15C44,10.451,44.432,9.936,45.25,9.51ZM14.25,14h3.5v9.333h-3.5ZM16,27c-3.434,0-6-1.41-6-2.67,0-.733.9-1.5,2.25-2.023v2.026a1,1,0,0,0,1,1h5.5a1,1,0,0,0,1-1V22.307C21.1,22.825,22,23.6,22,24.33,22,25.59,19.434,27,16,27Zm36.75.977,2.583,1.033V36.5H52.75Zm-5.5-4.144h3.5V36.5h-3.5ZM42.667,29.01l2.583-1.033V36.5H42.667Zm-2,7.175V37.5a1,1,0,0,0,1,1H56.333a1,1,0,0,0,1-1V36.185C58.522,36.706,59,37.233,59,37.5c0,.941-3.8,2.67-10,2.67S39,38.441,39,37.5C39,37.233,39.478,36.706,40.667,36.185ZM14,43h4V57H14ZM9,48.677l3-1.2V57H9ZM25,58V56.437c1.534.639,2,1.272,2,1.563,0,1.018-3.883,3-11,3S5,59.018,5,58c0-.291.466-.924,2-1.563V58a1,1,0,0,0,1,1H24A1,1,0,0,0,25,58Zm-2-9.323V57H20V47.477Z"/><text x="0" y="79" fill="#000000" font-size="5px" font-weight="bold" font-family="'Helvetica Neue', Helvetica, Arial-Unicode, Arial, Sans-serif">Created by Kamin Ginkaew</text><text x="0" y="84" fill="#000000" font-size="5px" font-weight="bold" font-family="'Helvetica Neue', Helvetica, Arial-Unicode, Arial, Sans-serif">from the Noun Project</text></svg>