<svg xmlns="http://www.w3.org/2000/svg" data-name="Layer 1" viewBox="0 0 64 80" x="0px" y="0px"><path d="M43,62V47a5.006,5.006,0,0,0-5-5H35.31a6,6,0,1,0-6.62,0H26a5.006,5.006,0,0,0-5,5V62a1,1,0,0,0,1,1H42A1,1,0,0,0,43,62ZM28,37a4,4,0,1,1,4,4A4,4,0,0,1,28,37Zm5.427,15.83L32,55.113,30.573,52.83,32,47.123ZM41,61H23V47a3,3,0,0,1,3-3h4.719L28.53,52.757a1,1,0,0,0,.122.773l2.5,4a1,1,0,0,0,1.7,0l2.5-4a1,1,0,0,0,.122-.773L33.281,44H38a3,3,0,0,1,3,3Z"/><path d="M37,12h3a1,1,0,0,0,.748-1.665l-8-9a1.035,1.035,0,0,0-1.5,0l-8,9A1,1,0,0,0,24,12h3V26h2V11a1,1,0,0,0-1-1H26.227L32,3.505,37.773,10H36a1,1,0,0,0-1,1V22h2Z"/><rect x="35" y="24" width="2" height="2"/><path d="M13,21h3a1,1,0,0,0,.752-1.659l-7-8a1.033,1.033,0,0,0-1.5,0l-7,8A1,1,0,0,0,2,21H5V34H7V20a1,1,0,0,0-1-1H4.2L9,13.519,13.8,19H12a1,1,0,0,0-1,1V30h2Z"/><rect x="11" y="32" width="2" height="2"/><path d="M59,21h3a1,1,0,0,0,.752-1.659l-7-8a1.033,1.033,0,0,0-1.5,0l-7,8A1,1,0,0,0,48,21h3V34h2V20a1,1,0,0,0-1-1H50.2L55,13.519,59.8,19H58a1,1,0,0,0-1,1V30h2Z"/><rect x="57" y="32" width="2" height="2"/><text x="0" y="79" fill="#000000" font-size="5px" font-weight="bold" font-family="'Helvetica Neue', Helvetica, Arial-Unicode, Arial, Sans-serif">Created by Kamin Ginkaew</text><text x="0" y="84" fill="#000000" font-size="5px" font-weight="bold" font-family="'Helvetica Neue', Helvetica, Arial-Unicode, Arial, Sans-serif">from the Noun Project</text></svg>