<svg xmlns="http://www.w3.org/2000/svg" data-name="Layer 1" viewBox="0 0 64 80" x="0px" y="0px"><path d="M23.059,38.1a1.72,1.72,0,0,0,.193,1.348l1.289,2.133a1.834,1.834,0,0,0,2.437.641l.376-.208a7.788,7.788,0,0,0,1.554.867v.349A1.788,1.788,0,0,0,30.711,45h2.578a1.788,1.788,0,0,0,1.8-1.768v-.349a7.816,7.816,0,0,0,1.554-.867l.377.208a1.832,1.832,0,0,0,2.436-.64l1.289-2.133a1.723,1.723,0,0,0,.193-1.349,1.786,1.786,0,0,0-.86-1.094l-.33-.181a7,7,0,0,0,0-1.654l.331-.182a1.783,1.783,0,0,0,.859-1.093,1.72,1.72,0,0,0-.193-1.348l-1.289-2.133a1.835,1.835,0,0,0-2.437-.641l-.376.208a7.788,7.788,0,0,0-1.554-.867v-.349A1.788,1.788,0,0,0,33.289,27H30.711a1.788,1.788,0,0,0-1.8,1.768v.349a7.816,7.816,0,0,0-1.554.867l-.377-.208a1.837,1.837,0,0,0-2.436.64l-1.289,2.133a1.723,1.723,0,0,0-.193,1.349,1.786,1.786,0,0,0,.86,1.094l.33.181a7,7,0,0,0,0,1.654l-.331.182A1.783,1.783,0,0,0,23.059,38.1ZM26.2,36a5.273,5.273,0,0,1,.053-.737,1.754,1.754,0,0,0-.9-1.765l-.251-.139,1.057-1.751.324.179a1.856,1.856,0,0,0,1.99-.143,5.893,5.893,0,0,1,1.284-.713,1.786,1.786,0,0,0,1.153-1.648V29h2.184v.283a1.786,1.786,0,0,0,1.153,1.648,5.863,5.863,0,0,1,1.283.713,1.86,1.86,0,0,0,1.991.143l.324-.179L38.9,33.359l-.252.139a1.755,1.755,0,0,0-.9,1.766,5.144,5.144,0,0,1,0,1.473,1.754,1.754,0,0,0,.9,1.765l.251.139-1.057,1.751-.324-.179a1.863,1.863,0,0,0-1.99.143,5.893,5.893,0,0,1-1.284.713,1.786,1.786,0,0,0-1.153,1.648V43H30.908v-.283a1.786,1.786,0,0,0-1.153-1.648,5.863,5.863,0,0,1-1.283-.713,1.862,1.862,0,0,0-1.991-.143l-.324.179L25.1,38.641l.252-.139a1.755,1.755,0,0,0,.9-1.766A5.247,5.247,0,0,1,26.2,36Z"/><path d="M32,39.5A3.5,3.5,0,1,0,28.5,36,3.5,3.5,0,0,0,32,39.5Zm0-5A1.5,1.5,0,1,1,30.5,36,1.5,1.5,0,0,1,32,34.5Z"/><path d="M32,21A10,10,0,1,0,22,11,10.011,10.011,0,0,0,32,21Zm3-2.589a7.935,7.935,0,0,1-6,0V14a1,1,0,0,1,1-1h4a1,1,0,0,1,1,1ZM30.5,8.5A1.5,1.5,0,1,1,32,10,1.5,1.5,0,0,1,30.5,8.5ZM32,3a7.993,7.993,0,0,1,5,14.235V14a2.993,2.993,0,0,0-2.607-2.96,3.5,3.5,0,1,0-4.786,0A2.993,2.993,0,0,0,27,14v3.235A7.993,7.993,0,0,1,32,3Z"/><path d="M53,43A10,10,0,1,0,63,53,10.011,10.011,0,0,0,53,43Zm0,18a8,8,0,1,1,8-8A8.009,8.009,0,0,1,53,61Z"/><path d="M11,63A10,10,0,1,0,1,53,10.011,10.011,0,0,0,11,63Zm0-18a8,8,0,1,1-8,8A8.009,8.009,0,0,1,11,45Z"/><path d="M53,47a3.5,3.5,0,0,0-3.5,3.5h2A1.5,1.5,0,1,1,53,52a1,1,0,0,0-1,1v3h2V53.854A3.5,3.5,0,0,0,53,47Z"/><rect x="52" y="57" width="2" height="2"/><path d="M8.879,57.182a1,1,0,0,0,.707-.293l6.364-6.364-1.414-1.414L8.879,54.768,7.464,53.354,6.05,54.768l2.122,2.121A1,1,0,0,0,8.879,57.182Z"/><path d="M8.365,40.174l1.97-.348a21.9,21.9,0,0,1,5.136-18.3l1.408,1.408a1,1,0,0,0,.707.293.977.977,0,0,0,.267-.037,1,1,0,0,0,.7-.721l1.414-5.657A1,1,0,0,0,18.757,15.6L13.1,17.016a1,1,0,0,0-.465,1.677l1.419,1.419A23.82,23.82,0,0,0,8,36,24.067,24.067,0,0,0,8.365,40.174Zm9.26-22.228-.581,2.326L15.3,18.528Z"/><path d="M53.788,33H52a1,1,0,0,0-.857,1.515l3,5a1,1,0,0,0,1.714,0l3-5A1,1,0,0,0,58,33H55.8A24.085,24.085,0,0,0,44.522,15.518l-1.044,1.7A22.086,22.086,0,0,1,53.788,33Zm2.446,2L55,37.056,53.766,35Z"/><path d="M23.223,58.547,27.5,62.509a1,1,0,0,0,.68.266.987.987,0,0,0,.3-.047,1,1,0,0,0,.675-.748l.445-2.119A23.252,23.252,0,0,0,32,60a23.746,23.746,0,0,0,9.393-1.911l-.786-1.839A21.67,21.67,0,0,1,30.015,57.9l.375-1.788a1,1,0,0,0-1.306-1.15l-5.509,1.91a1,1,0,0,0-.352,1.679Zm4.848-1.121-.507,2.415-1.759-1.629Z"/><text x="0" y="79" fill="#000000" font-size="5px" font-weight="bold" font-family="'Helvetica Neue', Helvetica, Arial-Unicode, Arial, Sans-serif">Created by Kamin Ginkaew</text><text x="0" y="84" fill="#000000" font-size="5px" font-weight="bold" font-family="'Helvetica Neue', Helvetica, Arial-Unicode, Arial, Sans-serif">from the Noun Project</text></svg>