<svg width="101" height="86" viewBox="0 0 101 86" fill="none" xmlns="http://www.w3.org/2000/svg">
<path d="M89.0967 34.97C93.1192 34.1494 97.0553 32.9551 100.853 31.4029C97.2646 30.97 93.7212 31.7312 90.1627 31.8357C89.1225 32.06 88.0416 32.0138 87.0247 31.7014C86.8198 31.5463 86.6465 31.3538 86.5142 31.1342H86.349C86.342 31.2286 86.342 31.3234 86.349 31.4178L83.0158 31.9402C82.8332 31.9845 82.6475 32.0144 82.4602 32.0297L67.3405 34.3133C64.5628 34.7312 61.7701 34.9999 58.9924 35.4029C57.4909 35.6118 56.7402 35.1044 56.5 33.6118C55.5477 28.0452 54.1775 22.5572 52.401 17.1939C58.9774 16.9551 76.0039 20.7014 77.5655 21.1491C78.507 21.5996 79.526 21.8681 80.5684 21.9402L83.4061 23.0745C83.4061 23.2238 83.4061 23.3581 83.4061 23.4924C83.7815 23.4924 84.1419 23.3282 84.5022 23.3432C84.6078 23.2367 84.7361 23.1551 84.8776 23.1044C86.4841 22.7163 87.4451 24.0596 88.4661 24.4029C86.4391 22.776 83.4662 22.2088 81.259 20.2835C81.1015 20.0747 80.9891 19.8359 80.9287 19.582C80.7598 19.553 80.5872 19.553 80.4182 19.582C71.7071 16.0041 62.3326 14.3 52.9115 14.582C51.9806 14.582 51.41 14.582 50.9896 13.5223C50.0737 11.1491 49.0677 8.8357 47.9867 6.52226C47.5963 5.64167 47.4762 5.1342 48.7074 5.1342C51.5268 5.04719 54.349 5.11695 57.1606 5.34316C60.7491 5.776 64.0223 7.43271 67.5207 8.08943C61.7701 4.23868 55.1937 3.47749 48.5422 3.22376C47.0408 3.22376 45.9447 3.22376 45.4492 1.61182C45.194 0.805846 44.7585 0.775995 44.3832 1.61182C45.1039 2.58197 46.0198 3.32823 43.7225 3.64167C39.124 4.21076 34.6916 5.71094 30.6991 8.04957C26.7067 10.3882 23.2389 13.5156 20.51 17.2387C17.2218 21.5521 16.8614 27.582 12.1018 31.0297L14.8044 29.3581C14.2108 31.9763 13.8192 34.6358 13.6333 37.3133C13.2729 41.0148 13.1978 40.8805 9.42917 41.373C6.22802 41.5553 3.06138 42.1267 0 43.0745C3.99389 43.3432 7.92771 44.3432 12.0117 43.5969C13.1678 43.3879 13.8885 43.5073 13.9185 44.9999C14.1181 48.0385 14.6723 51.0437 15.5701 53.9551L12.5672 52.2536L9.80454 51.1044C10.5102 51.776 10.6904 52.0297 10.9306 52.1342C15.1197 54.0745 17.1917 57.6864 19.1887 61.6267C21.2904 65.9214 24.2925 69.7191 27.9933 72.7646C31.6941 75.8101 36.0078 78.0328 40.6445 79.2835C44.6815 80.2556 48.8585 80.5183 52.9865 80.0596C54.5781 79.9551 55.0135 80.3133 54.6532 81.9551C54.5103 83.2896 54.5103 84.6355 54.6532 85.97C55.1036 86.0894 55.1336 85.7461 55.1787 85.5521C55.7434 84.1817 56.1611 82.7559 56.4249 81.2984C56.5901 79.8058 57.2057 79.4327 58.632 78.9849C70.2834 75.2536 79.202 68.0596 84.1569 56.8805C86.6193 51.2984 89.3069 46.0894 93.7362 41.8506C94.1266 41.4924 94.9374 41.0745 94.2016 40.1044L88.0306 45.1641C88.0306 42.0297 88.0306 39.1939 88.0306 36.4924C88.0234 36.4479 88.0234 36.4026 88.0306 36.3581C88.0029 36.0364 88.0968 35.7159 88.2939 35.4593C88.491 35.2027 88.7772 35.0282 89.0967 34.97ZM24.8792 19.8058C26.015 17.9019 27.3927 16.1512 28.9782 14.5969C33.2843 10.0495 38.893 6.92835 45.0438 5.65659C45.7795 5.47749 46.1849 5.65659 46.4252 6.56704C47.0558 8.776 47.8065 10.9402 48.6323 13.0894C49.1878 14.582 48.7224 14.8805 47.251 14.9999C41.8884 15.521 36.6095 16.6888 31.5307 18.4775C29.4421 19.1235 27.4287 19.9891 25.5248 21.0596C24.5189 21.0596 24.639 20.4029 24.8792 19.8058ZM19.519 39.0447C19.4756 36.4178 19.7887 33.7972 20.4499 31.2536C20.7652 26.9103 22.4769 23.7909 27.0864 22.4178C30.1478 21.2554 33.2704 20.2589 36.4405 19.4327C37.8997 18.8608 39.4514 18.5574 41.0199 18.5372C43.3499 18.3194 45.6624 17.9454 47.9416 17.4178C48.2944 17.3376 48.6618 17.3461 49.0105 17.4425C49.3591 17.5389 49.6781 17.7202 49.9386 17.97C51.2549 21.2857 52.1038 24.7665 52.461 28.3133C52.461 28.4626 52.461 28.6118 52.5361 28.7461C53.0016 30.7461 53.422 32.7461 53.8574 34.7163C54.0826 35.7461 53.6622 36.1342 52.5812 36.2088C41.9808 37.3631 31.3855 38.582 20.7952 39.8655C19.7142 40.179 19.519 39.9999 19.519 39.0447ZM21.6511 51.3879C21.2757 49.8954 20.8253 48.4029 20.525 46.9103C19.7592 43.1342 19.7893 43.1491 23.5279 42.9402C26.9963 42.7611 30.4797 42.5223 33.948 42.3133L44.7585 41.2984C47.5362 40.9999 50.329 40.7163 53.1067 40.3581C54.3829 40.1939 54.6081 40.8655 54.7733 41.8506C55.3138 47.5223 55.5691 53.2088 55.6591 58.8954C55.6591 59.9402 55.3288 60.4775 54.1577 60.6267C45.8512 61.5397 37.4476 60.9788 29.3385 58.97C27.4135 58.6697 25.6318 57.7765 24.2446 56.4162C22.8573 55.0559 21.9345 53.2972 21.606 51.3879H21.6511ZM55.3438 69.9402C55.2237 74.6267 55.1937 74.7312 50.389 74.5223C46.3683 74.382 42.4215 73.4081 38.8016 71.6629C35.1817 69.9177 31.9687 67.4397 29.3686 64.3879C28.7079 63.6566 28.0623 62.8954 27.4167 62.1939C27.5218 61.0745 28.1524 61.4029 28.768 61.7312C35.5975 64.0754 42.8104 65.1184 50.0287 64.8058C51.8154 64.7163 54.2027 63.9252 55.2087 64.8058C56.2147 65.6864 55.4039 68.1641 55.3438 69.9402ZM74.6376 65.8506C70.2874 69.6538 65.0812 72.3618 59.4578 73.7461C57.4609 74.2387 57.3858 73.8357 57.7161 72.0894C58.1366 69.8357 58.2417 67.5073 58.4368 65.2088C58.4368 64.4327 58.4369 63.8954 59.5479 63.6417C65.0667 62.3136 70.3978 60.3082 75.4184 57.6715C76.034 57.2835 85.2229 50.7909 85.2229 50.7909C83.0077 56.607 79.3697 61.7827 74.6376 65.8506ZM86.9045 44.6715C86.8101 45.1108 86.6287 45.5271 86.371 45.896C86.1132 46.265 85.7842 46.5794 85.4031 46.8208C77.7436 52.5293 69.0905 56.7846 59.8783 59.373C58.6471 59.7014 58.4669 59.5223 58.4819 58.3879C58.6603 52.5356 58.3943 46.6781 57.6861 40.8655C57.521 39.582 58.3017 39.567 59.1876 39.4626C65.749 38.6118 72.3254 37.8058 78.8717 36.8805C81.7442 36.6405 84.5887 36.1409 87.37 35.3879C87.5344 38.4901 87.3785 41.6009 86.9045 44.6715Z" fill="white"/>
</svg>
