<svg id="Capa_1" data-name="Capa 1" xmlns="http://www.w3.org/2000/svg" viewBox="0 0 209.94 184.36"><defs><style>.cls-1{fill:#fff;}</style></defs><g id="g20"><path id="path22" class="cls-1" d="M392.09,401.22a35.82,35.82,0,0,0,10.38-5.08c0-.16-.05-.31-.08-.47-2.91-.49-9.53-.62-23.23.84q-3,.35-6,.74a75.37,75.37,0,0,0-3-9A76.52,76.52,0,0,0,366,379.7c4.85,1.75,9.66,3.65,14.47,5.62l.27-.41A99,99,0,0,0,362.55,374a77.78,77.78,0,0,0-8.48-10.5c-1.74-1.79-3.57-3.51-5.49-5.14s-3.91-3.2-6-4.65a82.59,82.59,0,0,0-42.9-14.93,78.81,78.81,0,0,0-9.35,0s-.1-.1-.94-1.32c-2.2-4.06-3-5.25-5.49-9.19l-.43.19c1.93,4.2,2.09,5.38,3.87,9.58.25.71.58.9,0,1-1,.1-1.91.2-2.86.34A73.51,73.51,0,0,0,269.77,343a68.81,68.81,0,0,0-25.3,16,72.08,72.08,0,0,0-9.63,11.88,75.84,75.84,0,0,0-7.06,14q-.87,2.29-1.61,4.67a121,121,0,0,0-13.09,12.09l.36.37q5.67-4.8,11.74-9c-.64,2.43-1.19,4.9-1.62,7.41-.46,2.67-.78,5.39-1,8.12-.11,1.36-.18,2.73-.23,4.1,0,.69,0,1.37,0,2.07s0,1.34,0,2v.22l-4.19.48c-10.47,1.36-11.69,1-25.58,3.72l.06.5c6.53.67,10.74,2.22,26.15,1.52l3.84-.23c.06.7.12,1.4.19,2.1.28,2.76.67,5.51,1.18,8.23a97,97,0,0,0,2.62,10.43c-1-.46-2-.94-3-1.43q-5.58-2.74-11.14-5.77l-.23.43A166.14,166.14,0,0,0,228,447.74l.5,1.38a86.23,86.23,0,0,0,16.65,27.33,73.46,73.46,0,0,0,11.49,10.24A68.21,68.21,0,0,0,269.7,494a64.56,64.56,0,0,0,14.23,4.13,67.54,67.54,0,0,0,7.37.83c1.24.07,2.48.1,3.72.1l1.86,0,1,0,.87-.05,1-.05.93-.07,1.87-.17c1.24-.14,2.48-.32,3.72-.52l.64-.11-.21,2.46a58.67,58.67,0,0,0,0,12.1l.44,0c1.81-5.89,2.65-7,3.36-11.94q.33-1.77.63-3.54c.84-.2,1.67-.4,2.51-.63a75.68,75.68,0,0,0,14.3-5.45,88.5,88.5,0,0,0,41.61-44.74,82.58,82.58,0,0,0,4.07-12.57l.8-.76a126.76,126.76,0,0,0,9-9.59A108.28,108.28,0,0,0,391.16,413l-.34-.32c-3.32,2.76-6.61,5.49-9.92,8.15-1.93,1.56-3.88,3.07-5.84,4.56a76.62,76.62,0,0,0,.56-8.41h0a72.67,72.67,0,0,0-.75-11.34q2.73-.57,5.44-1.2m-10.56-16.06a62.8,62.8,0,0,1,2.67,9c-3.16.41-6.32.85-9.47,1.3l-16.13,2.45q-17.55,2.58-35.07,4.89a243.45,243.45,0,0,0-9.28-37.65c0-.14-.09-.27-.13-.4a152,152,0,0,1,35.57,3.6,208,208,0,0,1,21.59,5.9q3,1,6.05,2.09a62.77,62.77,0,0,1,4.2,8.85M299.9,342.86a75,75,0,0,1,42,12c2.09,1.35,4.12,2.79,6.06,4.33s3.8,3.19,5.58,4.92a69.91,69.91,0,0,1,8.28,9.6l-.52-.24a121.69,121.69,0,0,0-22-7.51,143.65,143.65,0,0,0-38.87-3.6q-3.48-9.58-7.85-18.93a69.28,69.28,0,0,1,7.36-.54m-48.6,22.83a63.32,63.32,0,0,1,21.36-16.53,64.68,64.68,0,0,1,16.51-5.25l.08.21q3.4,9.22,6.21,18.51c-1,.08-2,.17-3,.27a129.88,129.88,0,0,0-44,12.47q-2.78,1.36-5.48,2.87c.22-.45.45-.89.69-1.33a65.06,65.06,0,0,1,7.56-11.22M235.16,415c0-.56,0-1.15,0-1.72,0-1.16,0-2.31,0-3.46q.12-3.46.53-6.89a74.39,74.39,0,0,1,2.82-13.43c.61-2,1.32-4,2.11-5.91q4.8-2.54,9.83-4.66c1.68-.72,3.39-1.4,5.1-2s3.44-1.28,5.19-1.86c3.48-1.17,7-2.19,10.62-3.07s7.22-1.6,10.88-2.21,7.36-1,11.07-1.35c1.25-.1,2.5-.18,3.76-.26.14.52.29,1,.43,1.56a304.36,304.36,0,0,1,7.74,37.16q-11.43,1.5-22.86,2.91-23.62,2.92-47.19,5.63c0-.13,0-.26,0-.4m48.13,3.09q11.54-1.14,23.09-2.45.35,3,.64,6c.86,8.72,1.34,17.46,1.53,26.22.07,3.11.1,6.21.1,9.32-1.3.23-2.59.44-3.89.62a122.87,122.87,0,0,1-47-2.82c-4.39-1.1-8.77-2.42-13.1-3.93a79.79,79.79,0,0,1-7.58-20.61c-.5-2.23-.9-4.5-1.21-6.78-.07-.53-.14-1.06-.2-1.58q23.81-1.62,47.62-4m22.63,68.57c-1.07.08-2.14.12-3.2.14h-2.4l-.76,0-.86,0-.77,0-1.57-.11c-1.06-.09-2.1-.2-3.14-.34a58,58,0,0,1-6.18-1.14A59.8,59.8,0,0,1,275.28,481a64.72,64.72,0,0,1-20.2-15.12,70.56,70.56,0,0,1-5.91-7.45c2.3.92,4.61,1.78,7,2.56a123.65,123.65,0,0,0,11.94,3.35,119.78,119.78,0,0,0,12.24,2.07,109.62,109.62,0,0,0,25,0c1.09-.13,2.17-.27,3.26-.43q-.09,4.09-.24,8.21-.24,6.18-.63,12.37c-.59.06-1.18.1-1.77.14M366.1,444.9a79.08,79.08,0,0,1-17.48,22.88,75.43,75.43,0,0,1-23.51,14.57,69.51,69.51,0,0,1-12.31,3.44q.76-5.82,1.31-11.66.42-4.65.69-9.3a114.34,114.34,0,0,0,15.37-4.26,116.24,116.24,0,0,0,23.48-11.29,124.78,124.78,0,0,0,15.61-11.57,70.6,70.6,0,0,1-3.16,7.19M373.85,417h0a75.39,75.39,0,0,1-1.52,10.48l-1.48,1.1A200.27,200.27,0,0,1,350,442a150.47,150.47,0,0,1-22.08,10.1,120.62,120.62,0,0,1-12.72,3.73c.07-2.79.1-5.59.09-8.38-.07-8.9-.57-17.8-1.5-26.65-.21-2-.45-4-.7-5.93q17.44-2.07,34.92-4.63c5.39-.8,10.8-1.59,16.19-2.52,3.2-.57,6.39-1.17,9.57-1.83a72.3,72.3,0,0,1,.11,11.11" transform="translate(-192.53 -328.32)"/></g></svg>