<svg xmlns="http://www.w3.org/2000/svg" viewBox="0 0 552.78 141.68"><defs><style>.cls-1,.cls-2{fill:none;stroke-linecap:round;stroke-linejoin:round;stroke-width:5px;}.cls-1{stroke:#1c2e3a;}.cls-2{stroke:#f0ece9;}</style></defs><g id="Capa_2" data-name="Capa 2"><g id="Ñëîé_2" data-name="Ñëîé 2"><circle class="cls-1" cx="215.54" cy="33.52" r="10.71"/><path class="cls-1" d="M193.23,74.89a22.31,22.31,0,0,1,44.62,0"/><line class="cls-2" x1="89.62" y1="102.4" x2="40.95" y2="64.9"/><circle class="cls-2" cx="21.48" cy="53.26" r="18.98" transform="translate(-35.64 59.19) rotate(-73.96)"/><circle class="cls-2" cx="214.97" cy="45.1" r="42.59" transform="translate(112.23 239.24) rotate(-73.96)"/><line class="cls-2" x1="177.7" y1="65.72" x2="119.9" y2="101.57"/><circle class="cls-2" cx="104.27" cy="113.63" r="18.98" transform="translate(-49.48 101.59) rotate(-42.98)"/><line class="cls-2" x1="252.92" y1="74.89" x2="290.91" y2="103.63"/><circle class="cls-2" cx="306.23" cy="115.22" r="18.98" transform="translate(72.36 344.04) rotate(-64.99)"/><line class="cls-2" x1="326.92" y1="107.52" x2="369.3" y2="85.79"/><circle class="cls-2" cx="386.4" cy="77.03" r="18.98" transform="translate(38.4 261.79) rotate(-39.24)"/><line class="cls-2" x1="408.34" y1="88.07" x2="450.11" y2="110.97"/><circle class="cls-2" cx="466.96" cy="120.2" r="18.98" transform="translate(218.12 533.21) rotate(-73.37)"/><line class="cls-2" x1="481.18" y1="108.64" x2="516.89" y2="77.12"/><circle class="cls-2" cx="531.3" cy="64.4" r="18.98" transform="translate(163.73 453.4) rotate(-53.53)"/></g></g></svg>