<svg xmlns="http://www.w3.org/2000/svg" viewBox="0 0 256.71 236.85"><defs><style>.cls-1,.cls-2{fill:none;stroke-linecap:round;stroke-linejoin:round;stroke-width:5px;}.cls-1{stroke:#1c2e3a;}.cls-2{stroke:#f0ece9;}</style></defs><g id="Capa_2" data-name="Capa 2"><g id="Ñëîé_2" data-name="Ñëîé 2"><circle class="cls-1" cx="137.12" cy="36.09" r="10.71"/><path class="cls-1" d="M114.81,77.46a22.31,22.31,0,0,1,44.62,0"/><line class="cls-2" x1="23.49" y1="93.32" x2="22.12" y2="44.35"/><circle class="cls-2" cx="21.48" cy="21.48" r="18.98" transform="translate(-5.1 36.19) rotate(-73.96)"/><line class="cls-2" x1="106.43" y1="173.9" x2="69.07" y2="203.45"/><circle class="cls-2" cx="54" cy="215.37" r="18.98" transform="translate(-146.44 119.85) rotate(-50.44)"/><circle class="cls-2" cx="121.41" cy="158.23" r="18.98" transform="translate(-75.29 125.25) rotate(-42.98)"/><circle class="cls-2" cx="25.85" cy="116.19" r="18.98" transform="translate(-72.28 48.81) rotate(-42.98)"/><line class="cls-2" x1="178.16" y1="67.07" x2="218.83" y2="91.88"/><circle class="cls-2" cx="235.24" cy="101.88" r="18.98" transform="translate(61.4 290.29) rotate(-70.72)"/><line class="cls-2" x1="140.49" y1="159.92" x2="187.78" y2="165.59"/><circle class="cls-2" cx="206.86" cy="167.88" r="18.98" transform="translate(-14.51 19.66) rotate(-5.26)"/><line class="cls-2" x1="128.57" y1="93.07" x2="123.49" y2="139.31"/><line class="cls-2" x1="104.16" y1="148.9" x2="42.04" y2="126.09"/></g></g></svg>