<svg xmlns="http://www.w3.org/2000/svg" viewBox="0 0 90.2 637.73"><defs><style>.cls-1,.cls-2{fill:none;stroke-linecap:round;stroke-linejoin:round;stroke-width:5px;}.cls-1{stroke:#f0ece9;}.cls-2{stroke:#1c2e3a;}</style></defs><g id="Capa_2" data-name="Capa 2"><g id="Ñëîé_2" data-name="Ñëîé 2"><line class="cls-1" x1="45.1" y1="231.42" x2="45.1" y2="183.78"/><line class="cls-1" x1="45.1" y1="136.08" x2="45.1" y2="88.45"/><circle class="cls-2" cx="45.67" cy="33.52" r="10.71"/><path class="cls-2" d="M23.36,74.89a22.31,22.31,0,0,1,44.62,0"/><circle class="cls-1" cx="45.1" cy="45.1" r="42.59" transform="translate(-10.71 75.98) rotate(-73.96)"/><circle class="cls-1" cx="45.1" cy="160.47" r="18.98" transform="translate(-107.34 93.05) rotate(-50.44)"/><line class="cls-1" x1="45.1" y1="321.86" x2="45.1" y2="274.23"/><circle class="cls-1" cx="45.1" cy="250.91" r="18.98" transform="translate(-177.07 125.89) rotate(-50.44)"/><line class="cls-1" x1="45.1" y1="411.68" x2="45.1" y2="364.04"/><circle class="cls-1" cx="45.1" cy="340.73" r="18.98" transform="translate(-246.32 158.51) rotate(-50.44)"/><line class="cls-1" x1="45.1" y1="502.12" x2="45.1" y2="454.49"/><circle class="cls-1" cx="45.1" cy="431.17" r="18.98" transform="translate(-316.05 191.36) rotate(-50.44)"/><line class="cls-1" x1="45.1" y1="596.75" x2="45.1" y2="549.12"/><circle class="cls-1" cx="45.1" cy="525.8" r="18.98" transform="translate(-389.01 225.72) rotate(-50.44)"/><circle class="cls-1" cx="45.1" cy="616.25" r="18.98" transform="translate(-458.75 258.57) rotate(-50.44)"/></g></g></svg>